<?xml version="1.0" encoding="UTF-8"?>
<svg id="Layer_2" data-name="Layer 2" xmlns="http://www.w3.org/2000/svg" viewBox="0 0 1822.5 241.6">
  <defs>
    <style>
      .cls-1 {
        fill: #fcc01a;
      }

      .cls-2 {
        fill: #161736;
      }

      .cls-3 {
        fill: #6565f9;
      }
    </style>
  </defs>
  <g id="_Слой_1" data-name="Слой 1">
    <g>
      <path class="cls-2" d="m357.51,74.63V0h36.78v187.91h-36.78v-77.85h-76.85v77.85h-37.05V0h37.05v74.63h76.85Z"/>
      <path class="cls-2" d="m552.66,135.03h-101.2c4.47,16.82,17.09,25.23,37.85,25.23,13.24,0,23.26-4.47,30.07-13.42l27.92,16.11c-13.25,19.15-32.75,28.72-58.52,28.72-22.19,0-40-6.71-53.42-20.13-13.42-13.42-20.13-30.33-20.13-50.74s6.62-36.86,19.86-50.47c13.06-13.6,30.07-20.4,51.01-20.4,19.86,0,36.06,6.8,48.59,20.4,12.89,13.6,19.33,30.43,19.33,50.47,0,3.76-.45,8.5-1.34,14.23Zm-101.74-26.84h68.45c-1.97-8.77-5.95-15.48-11.95-20.13-6-4.65-13.11-6.98-21.34-6.98-9.31,0-17.01,2.37-23.09,7.11-6.09,4.74-10.11,11.41-12.08,20Z"/>
      <path class="cls-2" d="m607.42,187.91h-34.63V0h34.63v187.91Z"/>
      <path class="cls-2" d="m711.85,49.93c18.07,0,33.46,6.89,46.17,20.67,12.89,13.78,19.33,30.52,19.33,50.2s-6.44,36.87-19.33,50.47c-12.53,13.6-27.92,20.4-46.17,20.4s-33.29-6.53-43.49-19.6v69.53h-34.63V53.69h34.63v15.84c10.2-13.06,24.7-19.6,43.49-19.6Zm-33.02,98.25c6.98,6.98,15.84,10.47,26.58,10.47s19.6-3.49,26.58-10.47c7.16-7.16,10.74-16.28,10.74-27.38s-3.58-20.13-10.74-27.11c-6.98-7.16-15.84-10.74-26.58-10.74s-19.6,3.58-26.58,10.74c-6.98,6.98-10.47,16.02-10.47,27.11s3.49,20.23,10.47,27.38Z"/>
      <path class="cls-2" d="m944.86,49.93c15.39,0,27.69,5.01,36.91,15.03,9.21,10.03,13.82,23.45,13.82,40.27v82.68h-34.63v-80.26c0-8.05-1.97-14.32-5.91-18.79-3.94-4.47-9.49-6.71-16.64-6.71-7.88,0-14.01,2.6-18.39,7.78-4.39,5.19-6.58,12.71-6.58,22.55v75.43h-34.63v-80.26c0-8.05-1.97-14.32-5.91-18.79-3.94-4.47-9.49-6.71-16.64-6.71-7.7,0-13.83,2.64-18.39,7.92-4.57,5.28-6.85,12.75-6.85,22.42v75.43h-34.63V53.69h34.63v14.23c8.06-11.99,20.49-17.99,37.31-17.99s28.81,6.44,36.51,19.33c8.77-12.88,22.1-19.33,40-19.33Z"/>
      <path class="cls-2" d="m1121.76,69.53v-15.84h34.63v134.22h-34.63v-15.84c-10.38,13.07-24.97,19.6-43.76,19.6s-33.29-6.8-46.17-20.4c-12.71-13.78-19.06-30.6-19.06-50.47s6.35-36.42,19.06-50.2c12.88-13.78,28.27-20.67,46.17-20.67,18.79,0,33.38,6.54,43.76,19.6Zm-63.89,78.65c6.98,6.98,15.84,10.47,26.58,10.47s19.6-3.49,26.58-10.47,10.74-16.28,10.74-27.38-3.58-20.13-10.74-27.11c-6.98-7.16-15.84-10.74-26.58-10.74s-19.6,3.58-26.58,10.74c-6.98,6.98-10.47,16.02-10.47,27.11s3.49,20.23,10.47,27.38Z"/>
      <path class="cls-2" d="m1214.7,53.69v23.09c3.04-8.41,8.23-14.81,15.57-19.19,7.34-4.38,15.75-3.89,25.23-3.89v35.97c-10.63,0-20.04.72-28.46,6.44-8.23,5.55-12.35,14.76-12.35,27.65v64.16h-34.63V53.69h34.63Z"/>
      <path class="cls-2" d="m1340.8,120l55.57,67.92h-40.27l-48.86-60.94v60.94h-34.63V0h34.63v112.75l46.17-59.06h41.34l-53.96,66.31Z"/>
      <path class="cls-2" d="m1528.98,135.03h-101.2c4.47,16.82,17.09,25.23,37.85,25.23,13.24,0,23.26-4.47,30.07-13.42l27.92,16.11c-13.25,19.15-32.75,28.72-58.52,28.72-22.19,0-40-6.71-53.42-20.13-13.42-13.42-20.13-30.33-20.13-50.74s6.62-36.86,19.87-50.47c13.06-13.6,30.07-20.4,51-20.4s36.06,6.8,48.59,20.4c12.88,13.6,19.33,30.43,19.33,50.47,0,3.76-.45,8.5-1.34,14.23Zm-101.74-26.84h68.45c-1.97-8.77-5.95-15.48-11.95-20.13-6-4.65-13.11-6.98-21.34-6.98-9.31,0-17,2.37-23.08,7.11-6.09,4.74-10.11,11.41-12.08,20Z"/>
      <path class="cls-2" d="m1612.46,53.69v33.29h-30.33v55.84c0,4.66,1.16,8.05,3.49,10.2,2.32,2.15,5.73,3.35,10.2,3.62,4.47.27,10.02.23,16.64-.14v31.41c-23.45,2.68-40.13.49-50.07-6.58-9.93-7.07-14.9-19.91-14.9-38.52V26.58l34.63-10.47v37.58h30.33Z"/>
      <g>
        <g>
          <path class="cls-1" d="m0,2.54v68.38c9.69-14.05,25.91-23.28,44.24-23.28h7.07V2.54c0-1.4-1.14-2.54-2.54-2.54H2.54C1.14,0,0,1.14,0,2.54Z"/>
          <path class="cls-1" d="m199.3,0c1.4,0,2.54,1.14,2.54,2.54v84.02c0,2.52-.21,4.99-.62,7.4-3.52,20.91-21.71,36.84-43.62,36.84H63.33c-1.4,0-2.54-1.14-2.54-2.54v-27.83c0-1.4,1.14-2.54,2.54-2.54h84.05c1.75,0,3.16-1.41,3.16-3.16V2.54c0-1.4,1.14-2.54,2.54-2.54h46.23Z"/>
        </g>
        <g>
          <path class="cls-3" d="m141.06,59.66v27.83c0,1.4-1.14,2.54-2.54,2.54H54.47c-1.75,0-3.16,1.41-3.16,3.16v92.18c0,1.4-1.14,2.54-2.54,2.54H2.54c-1.4,0-2.54-1.14-2.54-2.54v-84.02c0-2.52.21-4.99.62-7.39,3.51-20.91,21.71-36.84,43.62-36.84h94.28c1.4,0,2.54,1.14,2.54,2.54Z"/>
          <path class="cls-3" d="m201.85,117v68.37c0,1.4-1.14,2.54-2.54,2.54h-46.23c-1.4,0-2.54-1.14-2.54-2.54v-45.1h7.07c18.33,0,34.54-9.23,44.24-23.27Z"/>
        </g>
      </g>
      <g>
        <path class="cls-2" d="m1656.14,188.16c-2.24,2.23-4.93,3.36-8.08,3.36s-5.85-1.12-8.08-3.36c-2.24-2.23-3.35-4.93-3.35-8.08s1.09-5.85,3.28-8.08c2.19-2.23,4.9-3.36,8.16-3.36s5.84,1.12,8.08,3.36c2.23,2.24,3.36,4.93,3.36,8.08s-1.12,5.85-3.36,8.08Z"/>
        <path class="cls-2" d="m1706.91,191.67c-11.49,0-21.07-3.86-28.74-11.59-7.68-7.73-11.51-17.23-11.51-28.52s3.84-20.91,11.51-28.59c7.68-7.67,17.26-11.51,28.74-11.51,7.42,0,14.18,1.78,20.28,5.34,6.1,3.56,10.67,8.34,13.72,14.33l-14.18,8.23c-1.73-3.66-4.35-6.53-7.85-8.62-3.51-2.08-7.55-3.12-12.12-3.12-6.71,0-12.33,2.29-16.85,6.86-4.52,4.57-6.78,10.27-6.78,17.08s2.26,12.5,6.78,17.08c4.52,4.58,10.14,6.86,16.85,6.86,4.47,0,8.51-1.07,12.12-3.2,3.61-2.14,6.33-4.98,8.16-8.54l14.18,8.08c-3.26,6.1-7.93,10.93-14.03,14.48-6.1,3.56-12.86,5.34-20.28,5.34Z"/>
        <path class="cls-2" d="m1793.22,111.46c8.74,0,15.81,2.8,21.2,8.39,5.39,5.59,8.08,13.27,8.08,23.02v46.81h-16.47v-45.14c0-5.69-1.53-10.06-4.58-13.11-3.05-3.05-7.22-4.58-12.5-4.58-5.8,0-10.47,1.81-14.03,5.41-3.56,3.61-5.34,9.12-5.34,16.55v40.87h-16.47v-106.74h16.47v40.26c4.98-7.83,12.86-11.74,23.63-11.74Z"/>
      </g>
    </g>
  </g>
</svg>