<?xml version="1.0" encoding="utf-8"?>
<!-- Generator: Adobe Illustrator 26.4.1, SVG Export Plug-In . SVG Version: 6.00 Build 0)  -->
<svg version="1.1" id="Layer_1" xmlns="http://www.w3.org/2000/svg" xmlns:xlink="http://www.w3.org/1999/xlink" x="0px" y="0px"
	 viewBox="0 0 801.7 518.8" style="enable-background:new 0 0 801.7 518.8;" xml:space="preserve">
<style type="text/css">
	.st0{fill:#FFFFFF;}
	.st1{clip-path:url(#SVGID_00000106853015518703287530000011669501341972969912_);fill:#FBBF1B;}
	.st2{fill:#1A1A36;}
	.st3{font-family:'Montserrat-ExtraBold';}
	.st4{font-size:54.7896px;}
	.st5{font-family:'CarosSoftBold';}
	.st6{fill:#555EA6;}
	.st7{opacity:0.7;}
	.st8{font-family:'Montserrat-Regular';}
	.st9{font-size:30.0888px;}
	.st10{fill:none;}
	.st11{fill:#FBBF1B;}
	.st12{fill:#555FA7;}
	.st13{clip-path:url(#SVGID_00000094620352461445614110000012123269978880819346_);}
	.st14{fill:none;stroke:#1A1A36;stroke-width:63.5957;stroke-miterlimit:10;}
</style>
<rect class="st0" width="801.7" height="518.8"/>
<g>
	<defs>
		<rect id="SVGID_1_" width="801.7" height="518.8"/>
	</defs>
	<clipPath id="SVGID_00000002371826705958875800000012013693484277475463_">
		<use xlink:href="#SVGID_1_"  style="overflow:visible;"/>
	</clipPath>
	
		<circle style="clip-path:url(#SVGID_00000002371826705958875800000012013693484277475463_);fill:#FBBF1B;" cx="728.4" cy="446" r="267.6"/>
</g>
<g>
	<text transform="matrix(1 0 0 1 69.7322 362.1321)"><tspan x="0" y="0" class="st2 st3 st4">Your</tspan><tspan x="136.6" y="0" class="st2 st5 st4"> </tspan><tspan x="153.2" y="0" class="st6 st3 st4">Name</tspan></text>
	<g class="st7">
		<text transform="matrix(1 0 0 1 75.8836 403.1125)" class="st2 st8 st9">Manager</text>
	</g>
</g>
<g>
	<g transform="translate(70,70)">
		<g transform="translate(350,0) scale(0.35,0.35)">
			<g transform="">
				<rect x="613.5" y="639.4" width="16.7" height="16.7"/>
			</g>
		</g>
		<g transform="translate(385,0) scale(0.35,0.35)">
			<g transform="">
				<rect x="530.2" y="639.4" width="16.7" height="16.7"/>
			</g>
		</g>
		<g transform="translate(490,0) scale(0.35,0.35)">
			<g transform="">
				<rect x="280.4" y="639.4" width="16.7" height="16.7"/>
			</g>
		</g>
		<g transform="translate(595,0) scale(0.35,0.35)">
			<g transform="">
				<rect x="30.6" y="639.4" width="16.7" height="16.7"/>
			</g>
		</g>
		<g transform="translate(630,0) scale(0.35,0.35)">
			<g transform="">
				<rect x="-52.7" y="639.4" width="16.7" height="16.7"/>
			</g>
		</g>
		<g transform="translate(665,0) scale(0.35,0.35)">
			<g transform="">
				<rect x="-136" y="639.4" width="16.7" height="16.7"/>
			</g>
		</g>
		<g transform="translate(700,0) scale(0.35,0.35)">
			<g transform="">
				<rect x="-219.2" y="639.4" width="16.7" height="16.7"/>
			</g>
		</g>
		<g transform="translate(315,35) scale(0.35,0.35)">
			<g transform="">
				<rect x="696.8" y="556.1" width="16.7" height="16.7"/>
			</g>
		</g>
		<g transform="translate(350,35) scale(0.35,0.35)">
			<g transform="">
				<rect x="613.5" y="556.1" width="16.7" height="16.7"/>
			</g>
		</g>
		<g transform="translate(385,35) scale(0.35,0.35)">
			<g transform="">
				<rect x="530.2" y="556.1" width="16.7" height="16.7"/>
			</g>
		</g>
		<g transform="translate(420,35) scale(0.35,0.35)">
			<g transform="">
				<rect x="446.9" y="556.1" width="16.7" height="16.7"/>
			</g>
		</g>
		<g transform="translate(560,35) scale(0.35,0.35)">
			<g transform="">
				<rect x="113.8" y="556.1" width="16.7" height="16.7"/>
			</g>
		</g>
		<g transform="translate(630,35) scale(0.35,0.35)">
			<g transform="">
				<rect x="-52.7" y="556.1" width="16.7" height="16.7"/>
			</g>
		</g>
		<g transform="translate(420,70) scale(0.35,0.35)">
			<g transform="">
				<rect x="446.9" y="472.8" width="16.7" height="16.7"/>
			</g>
		</g>
		<g transform="translate(490,70) scale(0.35,0.35)">
			<g transform="">
				<rect x="280.4" y="472.8" width="16.7" height="16.7"/>
			</g>
		</g>
		<g transform="translate(525,70) scale(0.35,0.35)">
			<g transform="">
				<rect x="197.1" y="472.8" width="16.7" height="16.7"/>
			</g>
		</g>
		<g transform="translate(595,70) scale(0.35,0.35)">
			<g transform="">
				<rect x="30.6" y="472.8" width="16.7" height="16.7"/>
			</g>
		</g>
		<g transform="translate(630,70) scale(0.35,0.35)">
			<g transform="">
				<rect x="-52.7" y="472.8" width="16.7" height="16.7"/>
			</g>
		</g>
		<g transform="translate(700,70) scale(0.35,0.35)">
			<g transform="">
				<rect x="-219.2" y="472.8" width="16.7" height="16.7"/>
			</g>
		</g>
		<g transform="translate(315,105) scale(0.35,0.35)">
			<g transform="">
				<rect x="696.8" y="389.6" width="16.7" height="16.7"/>
			</g>
		</g>
		<g transform="translate(350,105) scale(0.35,0.35)">
			<g transform="">
				<rect x="613.5" y="389.6" width="16.7" height="16.7"/>
			</g>
		</g>
		<g transform="translate(385,105) scale(0.35,0.35)">
			<g transform="">
				<rect x="530.2" y="389.6" width="16.7" height="16.7"/>
			</g>
		</g>
		<g transform="translate(420,105) scale(0.35,0.35)">
			<g transform="">
				<rect x="446.9" y="389.6" width="16.7" height="16.7"/>
			</g>
		</g>
		<g transform="translate(455,105) scale(0.35,0.35)">
			<g transform="">
				<rect x="363.7" y="389.6" width="16.7" height="16.7"/>
			</g>
		</g>
		<g transform="translate(560,105) scale(0.35,0.35)">
			<g transform="">
				<rect x="113.8" y="389.6" width="16.7" height="16.7"/>
			</g>
		</g>
		<g transform="translate(630,105) scale(0.35,0.35)">
			<g transform="">
				<rect x="-52.7" y="389.6" width="16.7" height="16.7"/>
			</g>
		</g>
		<g transform="translate(665,105) scale(0.35,0.35)">
			<g transform="">
				<rect x="-136" y="389.6" width="16.7" height="16.7"/>
			</g>
		</g>
		<g transform="translate(700,105) scale(0.35,0.35)">
			<g transform="">
				<rect x="-219.2" y="389.6" width="16.7" height="16.7"/>
			</g>
		</g>
		<g transform="translate(315,140) scale(0.35,0.35)">
			<g transform="">
				<rect x="696.8" y="306.3" width="16.7" height="16.7"/>
			</g>
		</g>
		<g transform="translate(350,140) scale(0.35,0.35)">
			<g transform="">
				<rect x="613.5" y="306.3" width="16.7" height="16.7"/>
			</g>
		</g>
		<g transform="translate(630,140) scale(0.35,0.35)">
			<g transform="">
				<rect x="-52.7" y="306.3" width="16.7" height="16.7"/>
			</g>
		</g>
		<g transform="translate(280,175) scale(0.35,0.35)">
			<g transform="">
				<rect x="780" y="223" width="16.7" height="16.7"/>
			</g>
		</g>
		<g transform="translate(315,175) scale(0.35,0.35)">
			<g transform="">
				<rect x="696.8" y="223" width="16.7" height="16.7"/>
			</g>
		</g>
		<g transform="translate(350,175) scale(0.35,0.35)">
			<g transform="">
				<rect x="613.5" y="223" width="16.7" height="16.7"/>
			</g>
		</g>
		<g transform="translate(525,175) scale(0.35,0.35)">
			<g transform="">
				<rect x="197.1" y="223" width="16.7" height="16.7"/>
			</g>
		</g>
		<g transform="translate(560,175) scale(0.35,0.35)">
			<g transform="">
				<rect x="113.8" y="223" width="16.7" height="16.7"/>
			</g>
		</g>
		<g transform="translate(595,175) scale(0.35,0.35)">
			<g transform="">
				<rect x="30.6" y="223" width="16.7" height="16.7"/>
			</g>
		</g>
		<g transform="translate(665,175) scale(0.35,0.35)">
			<g transform="">
				<rect x="-136" y="223" width="16.7" height="16.7"/>
			</g>
		</g>
		<g transform="translate(280,210) scale(0.35,0.35)">
			<g transform="">
				<rect x="780" y="139.7" width="16.7" height="16.7"/>
			</g>
		</g>
		<g transform="translate(350,210) scale(0.35,0.35)">
			<g transform="">
				<rect x="613.5" y="139.7" width="16.7" height="16.7"/>
			</g>
		</g>
		<g transform="translate(420,210) scale(0.35,0.35)">
			<g transform="">
				<rect x="446.9" y="139.7" width="16.7" height="16.7"/>
			</g>
		</g>
		<g transform="translate(490,210) scale(0.35,0.35)">
			<g transform="">
				<rect x="280.4" y="139.7" width="16.7" height="16.7"/>
			</g>
		</g>
		<g transform="translate(560,210) scale(0.35,0.35)">
			<g transform="">
				<rect x="113.8" y="139.7" width="16.7" height="16.7"/>
			</g>
		</g>
		<g transform="translate(630,210) scale(0.35,0.35)">
			<g transform="">
				<rect x="-52.7" y="139.7" width="16.7" height="16.7"/>
			</g>
		</g>
		<g transform="translate(700,210) scale(0.35,0.35)">
			<g transform="">
				<rect x="-219.2" y="139.7" width="16.7" height="16.7"/>
			</g>
		</g>
		<g transform="translate(455,245) scale(0.35,0.35)">
			<g transform="">
				<rect x="363.7" y="56.5" width="16.7" height="16.7"/>
			</g>
		</g>
		<g transform="translate(525,245) scale(0.35,0.35)">
			<g transform="">
				<rect x="197.1" y="56.5" width="16.7" height="16.7"/>
			</g>
		</g>
		<g transform="translate(560,245) scale(0.35,0.35)">
			<g transform="">
				<rect x="113.8" y="56.5" width="16.7" height="16.7"/>
			</g>
		</g>
		<g transform="translate(595,245) scale(0.35,0.35)">
			<g transform="">
				<rect x="30.6" y="56.5" width="16.7" height="16.7"/>
			</g>
		</g>
		<g transform="translate(630,245) scale(0.35,0.35)">
			<g transform="">
				<rect x="-52.7" y="56.5" width="16.7" height="16.7"/>
			</g>
		</g>
		<g transform="translate(700,245) scale(0.35,0.35)">
			<g transform="">
				<rect x="-219.2" y="56.5" width="16.7" height="16.7"/>
			</g>
		</g>
		<g transform="translate(0,280) scale(0.35,0.35)">
			<g transform="">
				<rect x="1446.2" y="-26.8" width="16.7" height="16.7"/>
			</g>
		</g>
		<g transform="translate(105,280) scale(0.35,0.35)">
			<g transform="">
				<rect x="1196.4" y="-26.8" width="16.7" height="16.7"/>
			</g>
		</g>
		<g transform="translate(175,280) scale(0.35,0.35)">
			<g transform="">
				<rect x="1029.8" y="-26.8" width="16.7" height="16.7"/>
			</g>
		</g>
		<g transform="translate(210,280) scale(0.35,0.35)">
			<g transform="">
				<rect x="946.6" y="-26.8" width="16.7" height="16.7"/>
			</g>
		</g>
		<g transform="translate(280,280) scale(0.35,0.35)">
			<g transform="">
				<rect x="780" y="-26.8" width="16.7" height="16.7"/>
			</g>
		</g>
		<g transform="translate(315,280) scale(0.35,0.35)">
			<g transform="">
				<rect x="696.8" y="-26.8" width="16.7" height="16.7"/>
			</g>
		</g>
		<g transform="translate(420,280) scale(0.35,0.35)">
			<g transform="">
				<rect x="446.9" y="-26.8" width="16.7" height="16.7"/>
			</g>
		</g>
		<g transform="translate(490,280) scale(0.35,0.35)">
			<g transform="">
				<rect x="280.4" y="-26.8" width="16.7" height="16.7"/>
			</g>
		</g>
		<g transform="translate(560,280) scale(0.35,0.35)">
			<g transform="">
				<rect x="113.8" y="-26.8" width="16.7" height="16.7"/>
			</g>
		</g>
		<g transform="translate(735,280) scale(0.35,0.35)">
			<g transform="">
				<rect x="-302.5" y="-26.8" width="16.7" height="16.7"/>
			</g>
		</g>
		<g transform="translate(805,280) scale(0.35,0.35)">
			<g transform="">
				<rect x="-469.1" y="-26.8" width="16.7" height="16.7"/>
			</g>
		</g>
		<g transform="translate(0,315) scale(0.35,0.35)">
			<g transform="">
				<rect x="1446.2" y="-110.1" width="16.7" height="16.7"/>
			</g>
		</g>
		<g transform="translate(35,315) scale(0.35,0.35)">
			<g transform="">
				<rect x="1362.9" y="-110.1" width="16.7" height="16.7"/>
			</g>
		</g>
		<g transform="translate(70,315) scale(0.35,0.35)">
			<g transform="">
				<rect x="1279.7" y="-110.1" width="16.7" height="16.7"/>
			</g>
		</g>
		<g transform="translate(315,315) scale(0.35,0.35)">
			<g transform="">
				<rect x="696.8" y="-110.1" width="16.7" height="16.7"/>
			</g>
		</g>
		<g transform="translate(455,315) scale(0.35,0.35)">
			<g transform="">
				<rect x="363.7" y="-110.1" width="16.7" height="16.7"/>
			</g>
		</g>
		<g transform="translate(525,315) scale(0.35,0.35)">
			<g transform="">
				<rect x="197.1" y="-110.1" width="16.7" height="16.7"/>
			</g>
		</g>
		<g transform="translate(560,315) scale(0.35,0.35)">
			<g transform="">
				<rect x="113.8" y="-110.1" width="16.7" height="16.7"/>
			</g>
		</g>
		<g transform="translate(700,315) scale(0.35,0.35)">
			<g transform="">
				<rect x="-219.2" y="-110.1" width="16.7" height="16.7"/>
			</g>
		</g>
		<g transform="translate(735,315) scale(0.35,0.35)">
			<g transform="">
				<rect x="-302.5" y="-110.1" width="16.7" height="16.7"/>
			</g>
		</g>
		<g transform="translate(770,315) scale(0.35,0.35)">
			<g transform="">
				<rect x="-385.8" y="-110.1" width="16.7" height="16.7"/>
			</g>
		</g>
		<g transform="translate(875,315) scale(0.35,0.35)">
			<g transform="">
				<rect x="-635.6" y="-110.1" width="16.7" height="16.7"/>
			</g>
		</g>
		<g transform="translate(980,315) scale(0.35,0.35)">
			<g transform="">
				<rect x="-885.4" y="-110.1" width="16.7" height="16.7"/>
			</g>
		</g>
		<g transform="translate(0,350) scale(0.35,0.35)">
			<g transform="">
				<rect x="1446.2" y="-193.4" width="16.7" height="16.7"/>
			</g>
		</g>
		<g transform="translate(105,350) scale(0.35,0.35)">
			<g transform="">
				<rect x="1196.4" y="-193.4" width="16.7" height="16.7"/>
			</g>
		</g>
		<g transform="translate(210,350) scale(0.35,0.35)">
			<g transform="">
				<rect x="946.6" y="-193.4" width="16.7" height="16.7"/>
			</g>
		</g>
		<g transform="translate(280,350) scale(0.35,0.35)">
			<g transform="">
				<rect x="780" y="-193.4" width="16.7" height="16.7"/>
			</g>
		</g>
		<g transform="translate(385,350) scale(0.35,0.35)">
			<g transform="">
				<rect x="530.2" y="-193.4" width="16.7" height="16.7"/>
			</g>
		</g>
		<g transform="translate(455,350) scale(0.35,0.35)">
			<g transform="">
				<rect x="363.7" y="-193.4" width="16.7" height="16.7"/>
			</g>
		</g>
		<g transform="translate(490,350) scale(0.35,0.35)">
			<g transform="">
				<rect x="280.4" y="-193.4" width="16.7" height="16.7"/>
			</g>
		</g>
		<g transform="translate(525,350) scale(0.35,0.35)">
			<g transform="">
				<rect x="197.1" y="-193.4" width="16.7" height="16.7"/>
			</g>
		</g>
		<g transform="translate(630,350) scale(0.35,0.35)">
			<g transform="">
				<rect x="-52.7" y="-193.4" width="16.7" height="16.7"/>
			</g>
		</g>
		<g transform="translate(665,350) scale(0.35,0.35)">
			<g transform="">
				<rect x="-136" y="-193.4" width="16.7" height="16.7"/>
			</g>
		</g>
		<g transform="translate(770,350) scale(0.35,0.35)">
			<g transform="">
				<rect x="-385.8" y="-193.4" width="16.7" height="16.7"/>
			</g>
		</g>
		<g transform="translate(875,350) scale(0.35,0.35)">
			<g transform="">
				<rect x="-635.6" y="-193.4" width="16.7" height="16.7"/>
			</g>
		</g>
		<g transform="translate(910,350) scale(0.35,0.35)">
			<g transform="">
				<rect x="-718.9" y="-193.4" width="16.7" height="16.7"/>
			</g>
		</g>
		<g transform="translate(945,350) scale(0.35,0.35)">
			<g transform="">
				<rect x="-802.2" y="-193.4" width="16.7" height="16.7"/>
			</g>
		</g>
		<g transform="translate(70,385) scale(0.35,0.35)">
			<g transform="">
				<rect x="1279.7" y="-276.6" width="16.7" height="16.7"/>
			</g>
		</g>
		<g transform="translate(105,385) scale(0.35,0.35)">
			<g transform="">
				<rect x="1196.4" y="-276.6" width="16.7" height="16.7"/>
			</g>
		</g>
		<g transform="translate(140,385) scale(0.35,0.35)">
			<g transform="">
				<rect x="1113.1" y="-276.6" width="16.7" height="16.7"/>
			</g>
		</g>
		<g transform="translate(245,385) scale(0.35,0.35)">
			<g transform="">
				<rect x="863.3" y="-276.6" width="16.7" height="16.7"/>
			</g>
		</g>
		<g transform="translate(280,385) scale(0.35,0.35)">
			<g transform="">
				<rect x="780" y="-276.6" width="16.7" height="16.7"/>
			</g>
		</g>
		<g transform="translate(315,385) scale(0.35,0.35)">
			<g transform="">
				<rect x="696.8" y="-276.6" width="16.7" height="16.7"/>
			</g>
		</g>
		<g transform="translate(350,385) scale(0.35,0.35)">
			<g transform="">
				<rect x="613.5" y="-276.6" width="16.7" height="16.7"/>
			</g>
		</g>
		<g transform="translate(420,385) scale(0.35,0.35)">
			<g transform="">
				<rect x="446.9" y="-276.6" width="16.7" height="16.7"/>
			</g>
		</g>
		<g transform="translate(455,385) scale(0.35,0.35)">
			<g transform="">
				<rect x="363.7" y="-276.6" width="16.7" height="16.7"/>
			</g>
		</g>
		<g transform="translate(560,385) scale(0.35,0.35)">
			<g transform="">
				<rect x="113.8" y="-276.6" width="16.7" height="16.7"/>
			</g>
		</g>
		<g transform="translate(700,385) scale(0.35,0.35)">
			<g transform="">
				<rect x="-219.2" y="-276.6" width="16.7" height="16.7"/>
			</g>
		</g>
		<g transform="translate(735,385) scale(0.35,0.35)">
			<g transform="">
				<rect x="-302.5" y="-276.6" width="16.7" height="16.7"/>
			</g>
		</g>
		<g transform="translate(805,385) scale(0.35,0.35)">
			<g transform="">
				<rect x="-469.1" y="-276.6" width="16.7" height="16.7"/>
			</g>
		</g>
		<g transform="translate(840,385) scale(0.35,0.35)">
			<g transform="">
				<rect x="-552.3" y="-276.6" width="16.7" height="16.7"/>
			</g>
		</g>
		<g transform="translate(910,385) scale(0.35,0.35)">
			<g transform="">
				<rect x="-718.9" y="-276.6" width="16.7" height="16.7"/>
			</g>
		</g>
		<g transform="translate(945,385) scale(0.35,0.35)">
			<g transform="">
				<rect x="-802.2" y="-276.6" width="16.7" height="16.7"/>
			</g>
		</g>
		<g transform="translate(35,420) scale(0.35,0.35)">
			<g transform="">
				<rect x="1362.9" y="-359.9" width="16.7" height="16.7"/>
			</g>
		</g>
		<g transform="translate(105,420) scale(0.35,0.35)">
			<g transform="">
				<rect x="1196.4" y="-359.9" width="16.7" height="16.7"/>
			</g>
		</g>
		<g transform="translate(175,420) scale(0.35,0.35)">
			<g transform="">
				<rect x="1029.8" y="-359.9" width="16.7" height="16.7"/>
			</g>
		</g>
		<g transform="translate(210,420) scale(0.35,0.35)">
			<g transform="">
				<rect x="946.6" y="-359.9" width="16.7" height="16.7"/>
			</g>
		</g>
		<g transform="translate(245,420) scale(0.35,0.35)">
			<g transform="">
				<rect x="863.3" y="-359.9" width="16.7" height="16.7"/>
			</g>
		</g>
		<g transform="translate(385,420) scale(0.35,0.35)">
			<g transform="">
				<rect x="530.2" y="-359.9" width="16.7" height="16.7"/>
			</g>
		</g>
		<g transform="translate(490,420) scale(0.35,0.35)">
			<g transform="">
				<rect x="280.4" y="-359.9" width="16.7" height="16.7"/>
			</g>
		</g>
		<g transform="translate(525,420) scale(0.35,0.35)">
			<g transform="">
				<rect x="197.1" y="-359.9" width="16.7" height="16.7"/>
			</g>
		</g>
		<g transform="translate(595,420) scale(0.35,0.35)">
			<g transform="">
				<rect x="30.6" y="-359.9" width="16.7" height="16.7"/>
			</g>
		</g>
		<g transform="translate(630,420) scale(0.35,0.35)">
			<g transform="">
				<rect x="-52.7" y="-359.9" width="16.7" height="16.7"/>
			</g>
		</g>
		<g transform="translate(665,420) scale(0.35,0.35)">
			<g transform="">
				<rect x="-136" y="-359.9" width="16.7" height="16.7"/>
			</g>
		</g>
		<g transform="translate(700,420) scale(0.35,0.35)">
			<g transform="">
				<rect x="-219.2" y="-359.9" width="16.7" height="16.7"/>
			</g>
		</g>
		<g transform="translate(735,420) scale(0.35,0.35)">
			<g transform="">
				<rect x="-302.5" y="-359.9" width="16.7" height="16.7"/>
			</g>
		</g>
		<g transform="translate(770,420) scale(0.35,0.35)">
			<g transform="">
				<rect x="-385.8" y="-359.9" width="16.7" height="16.7"/>
			</g>
		</g>
		<g transform="translate(875,420) scale(0.35,0.35)">
			<g transform="">
				<rect x="-635.6" y="-359.9" width="16.7" height="16.7"/>
			</g>
		</g>
		<g transform="translate(945,420) scale(0.35,0.35)">
			<g transform="">
				<rect x="-802.2" y="-359.9" width="16.7" height="16.7"/>
			</g>
		</g>
		<g transform="translate(980,420) scale(0.35,0.35)">
			<g transform="">
				<rect x="-885.4" y="-359.9" width="16.7" height="16.7"/>
			</g>
		</g>
		<g transform="translate(0,455) scale(0.35,0.35)">
			<g transform="">
				<rect x="1446.2" y="-443.2" width="16.7" height="16.7"/>
			</g>
		</g>
		<g transform="translate(35,455) scale(0.35,0.35)">
			<g transform="">
				<rect x="1362.9" y="-443.2" width="16.7" height="16.7"/>
			</g>
		</g>
		<g transform="translate(70,455) scale(0.35,0.35)">
			<g transform="">
				<rect x="1279.7" y="-443.2" width="16.7" height="16.7"/>
			</g>
		</g>
		<g transform="translate(140,455) scale(0.35,0.35)">
			<g transform="">
				<rect x="1113.1" y="-443.2" width="16.7" height="16.7"/>
			</g>
		</g>
		<g transform="translate(175,455) scale(0.35,0.35)">
			<g transform="">
				<rect x="1029.8" y="-443.2" width="16.7" height="16.7"/>
			</g>
		</g>
		<g transform="translate(245,455) scale(0.35,0.35)">
			<g transform="">
				<rect x="863.3" y="-443.2" width="16.7" height="16.7"/>
			</g>
		</g>
		<g transform="translate(280,455) scale(0.35,0.35)">
			<g transform="">
				<rect x="780" y="-443.2" width="16.7" height="16.7"/>
			</g>
		</g>
		<g transform="translate(420,455) scale(0.35,0.35)">
			<g transform="">
				<rect x="446.9" y="-443.2" width="16.7" height="16.7"/>
			</g>
		</g>
		<g transform="translate(455,455) scale(0.35,0.35)">
			<g transform="">
				<rect x="363.7" y="-443.2" width="16.7" height="16.7"/>
			</g>
		</g>
		<g transform="translate(490,455) scale(0.35,0.35)">
			<g transform="">
				<rect x="280.4" y="-443.2" width="16.7" height="16.7"/>
			</g>
		</g>
		<g transform="translate(525,455) scale(0.35,0.35)">
			<g transform="">
				<rect x="197.1" y="-443.2" width="16.7" height="16.7"/>
			</g>
		</g>
		<g transform="translate(560,455) scale(0.35,0.35)">
			<g transform="">
				<rect x="113.8" y="-443.2" width="16.7" height="16.7"/>
			</g>
		</g>
		<g transform="translate(665,455) scale(0.35,0.35)">
			<g transform="">
				<rect x="-136" y="-443.2" width="16.7" height="16.7"/>
			</g>
		</g>
		<g transform="translate(700,455) scale(0.35,0.35)">
			<g transform="">
				<rect x="-219.2" y="-443.2" width="16.7" height="16.7"/>
			</g>
		</g>
		<g transform="translate(735,455) scale(0.35,0.35)">
			<g transform="">
				<rect x="-302.5" y="-443.2" width="16.7" height="16.7"/>
			</g>
		</g>
		<g transform="translate(805,455) scale(0.35,0.35)">
			<g transform="">
				<rect x="-469.1" y="-443.2" width="16.7" height="16.7"/>
			</g>
		</g>
		<g transform="translate(70,490) scale(0.35,0.35)">
			<g transform="">
				<rect x="1279.7" y="-526.4" width="16.7" height="16.7"/>
			</g>
		</g>
		<g transform="translate(105,490) scale(0.35,0.35)">
			<g transform="">
				<rect x="1196.4" y="-526.4" width="16.7" height="16.7"/>
			</g>
		</g>
		<g transform="translate(175,490) scale(0.35,0.35)">
			<g transform="">
				<rect x="1029.8" y="-526.4" width="16.7" height="16.7"/>
			</g>
		</g>
		<g transform="translate(210,490) scale(0.35,0.35)">
			<g transform="">
				<rect x="946.6" y="-526.4" width="16.7" height="16.7"/>
			</g>
		</g>
		<g transform="translate(280,490) scale(0.35,0.35)">
			<g transform="">
				<rect x="780" y="-526.4" width="16.7" height="16.7"/>
			</g>
		</g>
		<g transform="translate(350,490) scale(0.35,0.35)">
			<g transform="">
				<rect x="613.5" y="-526.4" width="16.7" height="16.7"/>
			</g>
		</g>
		<g transform="translate(385,490) scale(0.35,0.35)">
			<g transform="">
				<rect x="530.2" y="-526.4" width="16.7" height="16.7"/>
			</g>
		</g>
		<g transform="translate(455,490) scale(0.35,0.35)">
			<g transform="">
				<rect x="363.7" y="-526.4" width="16.7" height="16.7"/>
			</g>
		</g>
		<g transform="translate(490,490) scale(0.35,0.35)">
			<g transform="">
				<rect x="280.4" y="-526.4" width="16.7" height="16.7"/>
			</g>
		</g>
		<g transform="translate(735,490) scale(0.35,0.35)">
			<g transform="">
				<rect x="-302.5" y="-526.4" width="16.7" height="16.7"/>
			</g>
		</g>
		<g transform="translate(770,490) scale(0.35,0.35)">
			<g transform="">
				<rect x="-385.8" y="-526.4" width="16.7" height="16.7"/>
			</g>
		</g>
		<g transform="translate(805,490) scale(0.35,0.35)">
			<g transform="">
				<rect x="-469.1" y="-526.4" width="16.7" height="16.7"/>
			</g>
		</g>
		<g transform="translate(875,490) scale(0.35,0.35)">
			<g transform="">
				<rect x="-635.6" y="-526.4" width="16.7" height="16.7"/>
			</g>
		</g>
		<g transform="translate(910,490) scale(0.35,0.35)">
			<g transform="">
				<rect x="-718.9" y="-526.4" width="16.7" height="16.7"/>
			</g>
		</g>
		<g transform="translate(945,490) scale(0.35,0.35)">
			<g transform="">
				<rect x="-802.2" y="-526.4" width="16.7" height="16.7"/>
			</g>
		</g>
		<g transform="translate(980,490) scale(0.35,0.35)">
			<g transform="">
				<rect x="-885.4" y="-526.4" width="16.7" height="16.7"/>
			</g>
		</g>
		<g transform="translate(35,525) scale(0.35,0.35)">
			<g transform="">
				<rect x="1362.9" y="-609.7" width="16.7" height="16.7"/>
			</g>
		</g>
		<g transform="translate(70,525) scale(0.35,0.35)">
			<g transform="">
				<rect x="1279.7" y="-609.7" width="16.7" height="16.7"/>
			</g>
		</g>
		<g transform="translate(175,525) scale(0.35,0.35)">
			<g transform="">
				<rect x="1029.8" y="-609.7" width="16.7" height="16.7"/>
			</g>
		</g>
		<g transform="translate(280,525) scale(0.35,0.35)">
			<g transform="">
				<rect x="780" y="-609.7" width="16.7" height="16.7"/>
			</g>
		</g>
		<g transform="translate(350,525) scale(0.35,0.35)">
			<g transform="">
				<rect x="613.5" y="-609.7" width="16.7" height="16.7"/>
			</g>
		</g>
		<g transform="translate(525,525) scale(0.35,0.35)">
			<g transform="">
				<rect x="197.1" y="-609.7" width="16.7" height="16.7"/>
			</g>
		</g>
		<g transform="translate(595,525) scale(0.35,0.35)">
			<g transform="">
				<rect x="30.6" y="-609.7" width="16.7" height="16.7"/>
			</g>
		</g>
		<g transform="translate(630,525) scale(0.35,0.35)">
			<g transform="">
				<rect x="-52.7" y="-609.7" width="16.7" height="16.7"/>
			</g>
		</g>
		<g transform="translate(875,525) scale(0.35,0.35)">
			<g transform="">
				<rect x="-635.6" y="-609.7" width="16.7" height="16.7"/>
			</g>
		</g>
		<g transform="translate(945,525) scale(0.35,0.35)">
			<g transform="">
				<rect x="-802.2" y="-609.7" width="16.7" height="16.7"/>
			</g>
		</g>
		<g transform="translate(0,560) scale(0.35,0.35)">
			<g transform="">
				<rect x="1446.2" y="-693" width="16.7" height="16.7"/>
			</g>
		</g>
		<g transform="translate(35,560) scale(0.35,0.35)">
			<g transform="">
				<rect x="1362.9" y="-693" width="16.7" height="16.7"/>
			</g>
		</g>
		<g transform="translate(70,560) scale(0.35,0.35)">
			<g transform="">
				<rect x="1279.7" y="-693" width="16.7" height="16.7"/>
			</g>
		</g>
		<g transform="translate(175,560) scale(0.35,0.35)">
			<g transform="">
				<rect x="1029.8" y="-693" width="16.7" height="16.7"/>
			</g>
		</g>
		<g transform="translate(210,560) scale(0.35,0.35)">
			<g transform="">
				<rect x="946.6" y="-693" width="16.7" height="16.7"/>
			</g>
		</g>
		<g transform="translate(245,560) scale(0.35,0.35)">
			<g transform="">
				<rect x="863.3" y="-693" width="16.7" height="16.7"/>
			</g>
		</g>
		<g transform="translate(280,560) scale(0.35,0.35)">
			<g transform="">
				<rect x="780" y="-693" width="16.7" height="16.7"/>
			</g>
		</g>
		<g transform="translate(455,560) scale(0.35,0.35)">
			<g transform="">
				<rect x="363.7" y="-693" width="16.7" height="16.7"/>
			</g>
		</g>
		<g transform="translate(595,560) scale(0.35,0.35)">
			<g transform="">
				<rect x="30.6" y="-693" width="16.7" height="16.7"/>
			</g>
		</g>
		<g transform="translate(665,560) scale(0.35,0.35)">
			<g transform="">
				<rect x="-136" y="-693" width="16.7" height="16.7"/>
			</g>
		</g>
		<g transform="translate(735,560) scale(0.35,0.35)">
			<g transform="">
				<rect x="-302.5" y="-693" width="16.7" height="16.7"/>
			</g>
		</g>
		<g transform="translate(805,560) scale(0.35,0.35)">
			<g transform="">
				<rect x="-469.1" y="-693" width="16.7" height="16.7"/>
			</g>
		</g>
		<g transform="translate(945,560) scale(0.35,0.35)">
			<g transform="">
				<rect x="-802.2" y="-693" width="16.7" height="16.7"/>
			</g>
		</g>
		<g transform="translate(35,595) scale(0.35,0.35)">
			<g transform="">
				<rect x="1362.9" y="-776.3" width="16.7" height="16.7"/>
			</g>
		</g>
		<g transform="translate(70,595) scale(0.35,0.35)">
			<g transform="">
				<rect x="1279.7" y="-776.3" width="16.7" height="16.7"/>
			</g>
		</g>
		<g transform="translate(140,595) scale(0.35,0.35)">
			<g transform="">
				<rect x="1113.1" y="-776.3" width="16.7" height="16.7"/>
			</g>
		</g>
		<g transform="translate(315,595) scale(0.35,0.35)">
			<g transform="">
				<rect x="696.8" y="-776.3" width="16.7" height="16.7"/>
			</g>
		</g>
		<g transform="translate(350,595) scale(0.35,0.35)">
			<g transform="">
				<rect x="613.5" y="-776.3" width="16.7" height="16.7"/>
			</g>
		</g>
		<g transform="translate(455,595) scale(0.35,0.35)">
			<g transform="">
				<rect x="363.7" y="-776.3" width="16.7" height="16.7"/>
			</g>
		</g>
		<g transform="translate(490,595) scale(0.35,0.35)">
			<g transform="">
				<rect x="280.4" y="-776.3" width="16.7" height="16.7"/>
			</g>
		</g>
		<g transform="translate(525,595) scale(0.35,0.35)">
			<g transform="">
				<rect x="197.1" y="-776.3" width="16.7" height="16.7"/>
			</g>
		</g>
		<g transform="translate(560,595) scale(0.35,0.35)">
			<g transform="">
				<rect x="113.8" y="-776.3" width="16.7" height="16.7"/>
			</g>
		</g>
		<g transform="translate(630,595) scale(0.35,0.35)">
			<g transform="">
				<rect x="-52.7" y="-776.3" width="16.7" height="16.7"/>
			</g>
		</g>
		<g transform="translate(735,595) scale(0.35,0.35)">
			<g transform="">
				<rect x="-302.5" y="-776.3" width="16.7" height="16.7"/>
			</g>
		</g>
		<g transform="translate(770,595) scale(0.35,0.35)">
			<g transform="">
				<rect x="-385.8" y="-776.3" width="16.7" height="16.7"/>
			</g>
		</g>
		<g transform="translate(805,595) scale(0.35,0.35)">
			<g transform="">
				<rect x="-469.1" y="-776.3" width="16.7" height="16.7"/>
			</g>
		</g>
		<g transform="translate(875,595) scale(0.35,0.35)">
			<g transform="">
				<rect x="-635.6" y="-776.3" width="16.7" height="16.7"/>
			</g>
		</g>
		<g transform="translate(980,595) scale(0.35,0.35)">
			<g transform="">
				<rect x="-885.4" y="-776.3" width="16.7" height="16.7"/>
			</g>
		</g>
		<g transform="translate(0,630) scale(0.35,0.35)">
			<g transform="">
				<rect x="1446.2" y="-859.5" width="16.7" height="16.7"/>
			</g>
		</g>
		<g transform="translate(70,630) scale(0.35,0.35)">
			<g transform="">
				<rect x="1279.7" y="-859.5" width="16.7" height="16.7"/>
			</g>
		</g>
		<g transform="translate(140,630) scale(0.35,0.35)">
			<g transform="">
				<rect x="1113.1" y="-859.5" width="16.7" height="16.7"/>
			</g>
		</g>
		<g transform="translate(210,630) scale(0.35,0.35)">
			<g transform="">
				<rect x="946.6" y="-859.5" width="16.7" height="16.7"/>
			</g>
		</g>
		<g transform="translate(245,630) scale(0.35,0.35)">
			<g transform="">
				<rect x="863.3" y="-859.5" width="16.7" height="16.7"/>
			</g>
		</g>
		<g transform="translate(280,630) scale(0.35,0.35)">
			<g transform="">
				<rect x="780" y="-859.5" width="16.7" height="16.7"/>
			</g>
		</g>
		<g transform="translate(350,630) scale(0.35,0.35)">
			<g transform="">
				<rect x="613.5" y="-859.5" width="16.7" height="16.7"/>
			</g>
		</g>
		<g transform="translate(385,630) scale(0.35,0.35)">
			<g transform="">
				<rect x="530.2" y="-859.5" width="16.7" height="16.7"/>
			</g>
		</g>
		<g transform="translate(490,630) scale(0.35,0.35)">
			<g transform="">
				<rect x="280.4" y="-859.5" width="16.7" height="16.7"/>
			</g>
		</g>
		<g transform="translate(525,630) scale(0.35,0.35)">
			<g transform="">
				<rect x="197.1" y="-859.5" width="16.7" height="16.7"/>
			</g>
		</g>
		<g transform="translate(560,630) scale(0.35,0.35)">
			<g transform="">
				<rect x="113.8" y="-859.5" width="16.7" height="16.7"/>
			</g>
		</g>
		<g transform="translate(735,630) scale(0.35,0.35)">
			<g transform="">
				<rect x="-302.5" y="-859.5" width="16.7" height="16.7"/>
			</g>
		</g>
		<g transform="translate(805,630) scale(0.35,0.35)">
			<g transform="">
				<rect x="-469.1" y="-859.5" width="16.7" height="16.7"/>
			</g>
		</g>
		<g transform="translate(840,630) scale(0.35,0.35)">
			<g transform="">
				<rect x="-552.3" y="-859.5" width="16.7" height="16.7"/>
			</g>
		</g>
		<g transform="translate(945,630) scale(0.35,0.35)">
			<g transform="">
				<rect x="-802.2" y="-859.5" width="16.7" height="16.7"/>
			</g>
		</g>
		<g transform="translate(980,630) scale(0.35,0.35)">
			<g transform="">
				<rect x="-885.4" y="-859.5" width="16.7" height="16.7"/>
			</g>
		</g>
		<g transform="translate(245,665) scale(0.35,0.35)">
			<g transform="">
				<rect x="863.3" y="-942.8" width="16.7" height="16.7"/>
			</g>
		</g>
		<g transform="translate(490,665) scale(0.35,0.35)">
			<g transform="">
				<rect x="280.4" y="-942.8" width="16.7" height="16.7"/>
			</g>
		</g>
		<g transform="translate(595,665) scale(0.35,0.35)">
			<g transform="">
				<rect x="30.6" y="-942.8" width="16.7" height="16.7"/>
			</g>
		</g>
		<g transform="translate(630,665) scale(0.35,0.35)">
			<g transform="">
				<rect x="-52.7" y="-942.8" width="16.7" height="16.7"/>
			</g>
		</g>
		<g transform="translate(735,665) scale(0.35,0.35)">
			<g transform="">
				<rect x="-302.5" y="-942.8" width="16.7" height="16.7"/>
			</g>
		</g>
		<g transform="translate(770,665) scale(0.35,0.35)">
			<g transform="">
				<rect x="-385.8" y="-942.8" width="16.7" height="16.7"/>
			</g>
		</g>
		<g transform="translate(945,665) scale(0.35,0.35)">
			<g transform="">
				<rect x="-802.2" y="-942.8" width="16.7" height="16.7"/>
			</g>
		</g>
		<g transform="translate(980,665) scale(0.35,0.35)">
			<g transform="">
				<rect x="-885.4" y="-942.8" width="16.7" height="16.7"/>
			</g>
		</g>
		<g transform="translate(0,700) scale(0.35,0.35)">
			<g transform="">
				<rect x="1446.2" y="-1026.1" width="16.7" height="16.7"/>
			</g>
		</g>
		<g transform="translate(210,700) scale(0.35,0.35)">
			<g transform="">
				<rect x="946.6" y="-1026.1" width="16.7" height="16.7"/>
			</g>
		</g>
		<g transform="translate(245,700) scale(0.35,0.35)">
			<g transform="">
				<rect x="863.3" y="-1026.1" width="16.7" height="16.7"/>
			</g>
		</g>
		<g transform="translate(315,700) scale(0.35,0.35)">
			<g transform="">
				<rect x="696.8" y="-1026.1" width="16.7" height="16.7"/>
			</g>
		</g>
		<g transform="translate(350,700) scale(0.35,0.35)">
			<g transform="">
				<rect x="613.5" y="-1026.1" width="16.7" height="16.7"/>
			</g>
		</g>
		<g transform="translate(420,700) scale(0.35,0.35)">
			<g transform="">
				<rect x="446.9" y="-1026.1" width="16.7" height="16.7"/>
			</g>
		</g>
		<g transform="translate(525,700) scale(0.35,0.35)">
			<g transform="">
				<rect x="197.1" y="-1026.1" width="16.7" height="16.7"/>
			</g>
		</g>
		<g transform="translate(700,700) scale(0.35,0.35)">
			<g transform="">
				<rect x="-219.2" y="-1026.1" width="16.7" height="16.7"/>
			</g>
		</g>
		<g transform="translate(735,700) scale(0.35,0.35)">
			<g transform="">
				<rect x="-302.5" y="-1026.1" width="16.7" height="16.7"/>
			</g>
		</g>
		<g transform="translate(770,700) scale(0.35,0.35)">
			<g transform="">
				<rect x="-385.8" y="-1026.1" width="16.7" height="16.7"/>
			</g>
		</g>
		<g transform="translate(805,700) scale(0.35,0.35)">
			<g transform="">
				<rect x="-469.1" y="-1026.1" width="16.7" height="16.7"/>
			</g>
		</g>
		<g transform="translate(840,700) scale(0.35,0.35)">
			<g transform="">
				<rect x="-552.3" y="-1026.1" width="16.7" height="16.7"/>
			</g>
		</g>
		<g transform="translate(910,700) scale(0.35,0.35)">
			<g transform="">
				<rect x="-718.9" y="-1026.1" width="16.7" height="16.7"/>
			</g>
		</g>
		<g transform="translate(280,735) scale(0.35,0.35)">
			<g transform="">
				<rect x="780" y="-1109.4" width="16.7" height="16.7"/>
			</g>
		</g>
		<g transform="translate(315,735) scale(0.35,0.35)">
			<g transform="">
				<rect x="696.8" y="-1109.4" width="16.7" height="16.7"/>
			</g>
		</g>
		<g transform="translate(385,735) scale(0.35,0.35)">
			<g transform="">
				<rect x="530.2" y="-1109.4" width="16.7" height="16.7"/>
			</g>
		</g>
		<g transform="translate(420,735) scale(0.35,0.35)">
			<g transform="">
				<rect x="446.9" y="-1109.4" width="16.7" height="16.7"/>
			</g>
		</g>
		<g transform="translate(490,735) scale(0.35,0.35)">
			<g transform="">
				<rect x="280.4" y="-1109.4" width="16.7" height="16.7"/>
			</g>
		</g>
		<g transform="translate(525,735) scale(0.35,0.35)">
			<g transform="">
				<rect x="197.1" y="-1109.4" width="16.7" height="16.7"/>
			</g>
		</g>
		<g transform="translate(665,735) scale(0.35,0.35)">
			<g transform="">
				<rect x="-136" y="-1109.4" width="16.7" height="16.7"/>
			</g>
		</g>
		<g transform="translate(700,735) scale(0.35,0.35)">
			<g transform="">
				<rect x="-219.2" y="-1109.4" width="16.7" height="16.7"/>
			</g>
		</g>
		<g transform="translate(840,735) scale(0.35,0.35)">
			<g transform="">
				<rect x="-552.3" y="-1109.4" width="16.7" height="16.7"/>
			</g>
		</g>
		<g transform="translate(910,735) scale(0.35,0.35)">
			<g transform="">
				<rect x="-718.9" y="-1109.4" width="16.7" height="16.7"/>
			</g>
		</g>
		<g transform="translate(945,735) scale(0.35,0.35)">
			<g transform="">
				<rect x="-802.2" y="-1109.4" width="16.7" height="16.7"/>
			</g>
		</g>
		<g transform="translate(980,735) scale(0.35,0.35)">
			<g transform="">
				<rect x="-885.4" y="-1109.4" width="16.7" height="16.7"/>
			</g>
		</g>
		<g transform="translate(350,770) scale(0.35,0.35)">
			<g transform="">
				<rect x="613.5" y="-1192.6" width="16.7" height="16.7"/>
			</g>
		</g>
		<g transform="translate(385,770) scale(0.35,0.35)">
			<g transform="">
				<rect x="530.2" y="-1192.6" width="16.7" height="16.7"/>
			</g>
		</g>
		<g transform="translate(420,770) scale(0.35,0.35)">
			<g transform="">
				<rect x="446.9" y="-1192.6" width="16.7" height="16.7"/>
			</g>
		</g>
		<g transform="translate(560,770) scale(0.35,0.35)">
			<g transform="">
				<rect x="113.8" y="-1192.6" width="16.7" height="16.7"/>
			</g>
		</g>
		<g transform="translate(595,770) scale(0.35,0.35)">
			<g transform="">
				<rect x="30.6" y="-1192.6" width="16.7" height="16.7"/>
			</g>
		</g>
		<g transform="translate(630,770) scale(0.35,0.35)">
			<g transform="">
				<rect x="-52.7" y="-1192.6" width="16.7" height="16.7"/>
			</g>
		</g>
		<g transform="translate(700,770) scale(0.35,0.35)">
			<g transform="">
				<rect x="-219.2" y="-1192.6" width="16.7" height="16.7"/>
			</g>
		</g>
		<g transform="translate(770,770) scale(0.35,0.35)">
			<g transform="">
				<rect x="-385.8" y="-1192.6" width="16.7" height="16.7"/>
			</g>
		</g>
		<g transform="translate(840,770) scale(0.35,0.35)">
			<g transform="">
				<rect x="-552.3" y="-1192.6" width="16.7" height="16.7"/>
			</g>
		</g>
		<g transform="translate(945,770) scale(0.35,0.35)">
			<g transform="">
				<rect x="-802.2" y="-1192.6" width="16.7" height="16.7"/>
			</g>
		</g>
		<g transform="translate(280,805) scale(0.35,0.35)">
			<g transform="">
				<rect x="780" y="-1275.9" width="16.7" height="16.7"/>
			</g>
		</g>
		<g transform="translate(315,805) scale(0.35,0.35)">
			<g transform="">
				<rect x="696.8" y="-1275.9" width="16.7" height="16.7"/>
			</g>
		</g>
		<g transform="translate(385,805) scale(0.35,0.35)">
			<g transform="">
				<rect x="530.2" y="-1275.9" width="16.7" height="16.7"/>
			</g>
		</g>
		<g transform="translate(490,805) scale(0.35,0.35)">
			<g transform="">
				<rect x="280.4" y="-1275.9" width="16.7" height="16.7"/>
			</g>
		</g>
		<g transform="translate(525,805) scale(0.35,0.35)">
			<g transform="">
				<rect x="197.1" y="-1275.9" width="16.7" height="16.7"/>
			</g>
		</g>
		<g transform="translate(630,805) scale(0.35,0.35)">
			<g transform="">
				<rect x="-52.7" y="-1275.9" width="16.7" height="16.7"/>
			</g>
		</g>
		<g transform="translate(700,805) scale(0.35,0.35)">
			<g transform="">
				<rect x="-219.2" y="-1275.9" width="16.7" height="16.7"/>
			</g>
		</g>
		<g transform="translate(840,805) scale(0.35,0.35)">
			<g transform="">
				<rect x="-552.3" y="-1275.9" width="16.7" height="16.7"/>
			</g>
		</g>
		<g transform="translate(875,805) scale(0.35,0.35)">
			<g transform="">
				<rect x="-635.6" y="-1275.9" width="16.7" height="16.7"/>
			</g>
		</g>
		<g transform="translate(910,805) scale(0.35,0.35)">
			<g transform="">
				<rect x="-718.9" y="-1275.9" width="16.7" height="16.7"/>
			</g>
		</g>
		<g transform="translate(315,840) scale(0.35,0.35)">
			<g transform="">
				<rect x="696.8" y="-1359.2" width="16.7" height="16.7"/>
			</g>
		</g>
		<g transform="translate(350,840) scale(0.35,0.35)">
			<g transform="">
				<rect x="613.5" y="-1359.2" width="16.7" height="16.7"/>
			</g>
		</g>
		<g transform="translate(385,840) scale(0.35,0.35)">
			<g transform="">
				<rect x="530.2" y="-1359.2" width="16.7" height="16.7"/>
			</g>
		</g>
		<g transform="translate(420,840) scale(0.35,0.35)">
			<g transform="">
				<rect x="446.9" y="-1359.2" width="16.7" height="16.7"/>
			</g>
		</g>
		<g transform="translate(560,840) scale(0.35,0.35)">
			<g transform="">
				<rect x="113.8" y="-1359.2" width="16.7" height="16.7"/>
			</g>
		</g>
		<g transform="translate(595,840) scale(0.35,0.35)">
			<g transform="">
				<rect x="30.6" y="-1359.2" width="16.7" height="16.7"/>
			</g>
		</g>
		<g transform="translate(630,840) scale(0.35,0.35)">
			<g transform="">
				<rect x="-52.7" y="-1359.2" width="16.7" height="16.7"/>
			</g>
		</g>
		<g transform="translate(700,840) scale(0.35,0.35)">
			<g transform="">
				<rect x="-219.2" y="-1359.2" width="16.7" height="16.7"/>
			</g>
		</g>
		<g transform="translate(735,840) scale(0.35,0.35)">
			<g transform="">
				<rect x="-302.5" y="-1359.2" width="16.7" height="16.7"/>
			</g>
		</g>
		<g transform="translate(770,840) scale(0.35,0.35)">
			<g transform="">
				<rect x="-385.8" y="-1359.2" width="16.7" height="16.7"/>
			</g>
		</g>
		<g transform="translate(805,840) scale(0.35,0.35)">
			<g transform="">
				<rect x="-469.1" y="-1359.2" width="16.7" height="16.7"/>
			</g>
		</g>
		<g transform="translate(840,840) scale(0.35,0.35)">
			<g transform="">
				<rect x="-552.3" y="-1359.2" width="16.7" height="16.7"/>
			</g>
		</g>
		<g transform="translate(945,840) scale(0.35,0.35)">
			<g transform="">
				<rect x="-802.2" y="-1359.2" width="16.7" height="16.7"/>
			</g>
		</g>
		<g transform="translate(280,875) scale(0.35,0.35)">
			<g transform="">
				<rect x="780" y="-1442.4" width="16.7" height="16.7"/>
			</g>
		</g>
		<g transform="translate(315,875) scale(0.35,0.35)">
			<g transform="">
				<rect x="696.8" y="-1442.4" width="16.7" height="16.7"/>
			</g>
		</g>
		<g transform="translate(455,875) scale(0.35,0.35)">
			<g transform="">
				<rect x="363.7" y="-1442.4" width="16.7" height="16.7"/>
			</g>
		</g>
		<g transform="translate(525,875) scale(0.35,0.35)">
			<g transform="">
				<rect x="197.1" y="-1442.4" width="16.7" height="16.7"/>
			</g>
		</g>
		<g transform="translate(665,875) scale(0.35,0.35)">
			<g transform="">
				<rect x="-136" y="-1442.4" width="16.7" height="16.7"/>
			</g>
		</g>
		<g transform="translate(770,875) scale(0.35,0.35)">
			<g transform="">
				<rect x="-385.8" y="-1442.4" width="16.7" height="16.7"/>
			</g>
		</g>
		<g transform="translate(805,875) scale(0.35,0.35)">
			<g transform="">
				<rect x="-469.1" y="-1442.4" width="16.7" height="16.7"/>
			</g>
		</g>
		<g transform="translate(840,875) scale(0.35,0.35)">
			<g transform="">
				<rect x="-552.3" y="-1442.4" width="16.7" height="16.7"/>
			</g>
		</g>
		<g transform="translate(875,875) scale(0.35,0.35)">
			<g transform="">
				<rect x="-635.6" y="-1442.4" width="16.7" height="16.7"/>
			</g>
		</g>
		<g transform="translate(910,875) scale(0.35,0.35)">
			<g transform="">
				<rect x="-718.9" y="-1442.4" width="16.7" height="16.7"/>
			</g>
		</g>
		<g transform="translate(980,875) scale(0.35,0.35)">
			<g transform="">
				<rect x="-885.4" y="-1442.4" width="16.7" height="16.7"/>
			</g>
		</g>
		<g transform="translate(315,910) scale(0.35,0.35)">
			<g transform="">
				<rect x="696.8" y="-1525.7" width="16.7" height="16.7"/>
			</g>
		</g>
		<g transform="translate(350,910) scale(0.35,0.35)">
			<g transform="">
				<rect x="613.5" y="-1525.7" width="16.7" height="16.7"/>
			</g>
		</g>
		<g transform="translate(385,910) scale(0.35,0.35)">
			<g transform="">
				<rect x="530.2" y="-1525.7" width="16.7" height="16.7"/>
			</g>
		</g>
		<g transform="translate(420,910) scale(0.35,0.35)">
			<g transform="">
				<rect x="446.9" y="-1525.7" width="16.7" height="16.7"/>
			</g>
		</g>
		<g transform="translate(455,910) scale(0.35,0.35)">
			<g transform="">
				<rect x="363.7" y="-1525.7" width="16.7" height="16.7"/>
			</g>
		</g>
		<g transform="translate(525,910) scale(0.35,0.35)">
			<g transform="">
				<rect x="197.1" y="-1525.7" width="16.7" height="16.7"/>
			</g>
		</g>
		<g transform="translate(560,910) scale(0.35,0.35)">
			<g transform="">
				<rect x="113.8" y="-1525.7" width="16.7" height="16.7"/>
			</g>
		</g>
		<g transform="translate(665,910) scale(0.35,0.35)">
			<g transform="">
				<rect x="-136" y="-1525.7" width="16.7" height="16.7"/>
			</g>
		</g>
		<g transform="translate(700,910) scale(0.35,0.35)">
			<g transform="">
				<rect x="-219.2" y="-1525.7" width="16.7" height="16.7"/>
			</g>
		</g>
		<g transform="translate(735,910) scale(0.35,0.35)">
			<g transform="">
				<rect x="-302.5" y="-1525.7" width="16.7" height="16.7"/>
			</g>
		</g>
		<g transform="translate(840,910) scale(0.35,0.35)">
			<g transform="">
				<rect x="-552.3" y="-1525.7" width="16.7" height="16.7"/>
			</g>
		</g>
		<g transform="translate(875,910) scale(0.35,0.35)">
			<g transform="">
				<rect x="-635.6" y="-1525.7" width="16.7" height="16.7"/>
			</g>
		</g>
		<g transform="translate(910,910) scale(0.35,0.35)">
			<g transform="">
				<rect x="-718.9" y="-1525.7" width="16.7" height="16.7"/>
			</g>
		</g>
		<g transform="translate(980,910) scale(0.35,0.35)">
			<g transform="">
				<rect x="-885.4" y="-1525.7" width="16.7" height="16.7"/>
			</g>
		</g>
		<g transform="translate(350,945) scale(0.35,0.35)">
			<g transform="">
				<rect x="613.5" y="-1609" width="16.7" height="16.7"/>
			</g>
		</g>
		<g transform="translate(385,945) scale(0.35,0.35)">
			<g transform="">
				<rect x="530.2" y="-1609" width="16.7" height="16.7"/>
			</g>
		</g>
		<g transform="translate(420,945) scale(0.35,0.35)">
			<g transform="">
				<rect x="446.9" y="-1609" width="16.7" height="16.7"/>
			</g>
		</g>
		<g transform="translate(455,945) scale(0.35,0.35)">
			<g transform="">
				<rect x="363.7" y="-1609" width="16.7" height="16.7"/>
			</g>
		</g>
		<g transform="translate(560,945) scale(0.35,0.35)">
			<g transform="">
				<rect x="113.8" y="-1609" width="16.7" height="16.7"/>
			</g>
		</g>
		<g transform="translate(595,945) scale(0.35,0.35)">
			<g transform="">
				<rect x="30.6" y="-1609" width="16.7" height="16.7"/>
			</g>
		</g>
		<g transform="translate(630,945) scale(0.35,0.35)">
			<g transform="">
				<rect x="-52.7" y="-1609" width="16.7" height="16.7"/>
			</g>
		</g>
		<g transform="translate(665,945) scale(0.35,0.35)">
			<g transform="">
				<rect x="-136" y="-1609" width="16.7" height="16.7"/>
			</g>
		</g>
		<g transform="translate(700,945) scale(0.35,0.35)">
			<g transform="">
				<rect x="-219.2" y="-1609" width="16.7" height="16.7"/>
			</g>
		</g>
		<g transform="translate(735,945) scale(0.35,0.35)">
			<g transform="">
				<rect x="-302.5" y="-1609" width="16.7" height="16.7"/>
			</g>
		</g>
		<g transform="translate(805,945) scale(0.35,0.35)">
			<g transform="">
				<rect x="-469.1" y="-1609" width="16.7" height="16.7"/>
			</g>
		</g>
		<g transform="translate(945,945) scale(0.35,0.35)">
			<g transform="">
				<rect x="-802.2" y="-1609" width="16.7" height="16.7"/>
			</g>
		</g>
		<g transform="translate(280,980) scale(0.35,0.35)">
			<g transform="">
				<rect x="780" y="-1692.3" width="16.7" height="16.7"/>
			</g>
		</g>
		<g transform="translate(350,980) scale(0.35,0.35)">
			<g transform="">
				<rect x="613.5" y="-1692.3" width="16.7" height="16.7"/>
			</g>
		</g>
		<g transform="translate(385,980) scale(0.35,0.35)">
			<g transform="">
				<rect x="530.2" y="-1692.3" width="16.7" height="16.7"/>
			</g>
		</g>
		<g transform="translate(420,980) scale(0.35,0.35)">
			<g transform="">
				<rect x="446.9" y="-1692.3" width="16.7" height="16.7"/>
			</g>
		</g>
		<g transform="translate(455,980) scale(0.35,0.35)">
			<g transform="">
				<rect x="363.7" y="-1692.3" width="16.7" height="16.7"/>
			</g>
		</g>
		<g transform="translate(490,980) scale(0.35,0.35)">
			<g transform="">
				<rect x="280.4" y="-1692.3" width="16.7" height="16.7"/>
			</g>
		</g>
		<g transform="translate(525,980) scale(0.35,0.35)">
			<g transform="">
				<rect x="197.1" y="-1692.3" width="16.7" height="16.7"/>
			</g>
		</g>
		<g transform="translate(630,980) scale(0.35,0.35)">
			<g transform="">
				<rect x="-52.7" y="-1692.3" width="16.7" height="16.7"/>
			</g>
		</g>
		<g transform="translate(700,980) scale(0.35,0.35)">
			<g transform="">
				<rect x="-219.2" y="-1692.3" width="16.7" height="16.7"/>
			</g>
		</g>
		<g transform="translate(805,980) scale(0.35,0.35)">
			<g transform="">
				<rect x="-469.1" y="-1692.3" width="16.7" height="16.7"/>
			</g>
		</g>
		<g transform="translate(840,980) scale(0.35,0.35)">
			<g transform="">
				<rect x="-552.3" y="-1692.3" width="16.7" height="16.7"/>
			</g>
		</g>
		<g transform="translate(875,980) scale(0.35,0.35)">
			<g transform="">
				<rect x="-635.6" y="-1692.3" width="16.7" height="16.7"/>
			</g>
		</g>
		<g transform="translate(945,980) scale(0.35,0.35)">
			<g transform="">
				<rect x="-802.2" y="-1692.3" width="16.7" height="16.7"/>
			</g>
		</g>
		<g transform="translate(0,0) scale(2.45, 2.45)">
			<g transform="">
				<g>
					<rect x="209.1" y="93.8" class="st10" width="11.7" height="11.7"/>
					<path d="M220.8,91.3h-11.7h-2.5v2.5v11.7v2.5h2.5h11.7h2.5v-2.5V93.8v-2.5H220.8z M220.8,105.6h-11.7V93.8h11.7V105.6z"/>
				</g>
			</g>
		</g>
		<g transform="translate(770,0) scale(2.45, 2.45)">
			<g transform="">
				<g>
					<rect x="-52.6" y="93.8" class="st10" width="11.7" height="11.7"/>
					<path d="M-40.9,91.3h-11.7h-2.5v2.5v11.7v2.5h2.5h11.7h2.5v-2.5V93.8v-2.5H-40.9z M-40.9,105.6h-11.7V93.8h11.7V105.6z"/>
				</g>
			</g>
		</g>
		<g transform="translate(0,770) scale(2.45, 2.45)">
			<g transform="">
				<g>
					<rect x="209.1" y="-167.9" class="st10" width="11.7" height="11.7"/>
					<path d="M220.8-170.4h-11.7h-2.5v2.5v11.7v2.5h2.5h11.7h2.5v-2.5v-11.7v-2.5H220.8z M220.8-156.2h-11.7v-11.7h11.7V-156.2z"/>
				</g>
			</g>
		</g>
		<g transform="translate(70,70) scale(1.05, 1.05)">
			<g transform="">
				<rect x="426.6" y="157.6" width="16.7" height="16.7"/>
			</g>
		</g>
		<g transform="translate(840,70) scale(1.05, 1.05)">
			<g transform="">
				<rect x="-184.1" y="157.6" width="16.7" height="16.7"/>
			</g>
		</g>
		<g transform="translate(70,840) scale(1.05, 1.05)">
			<g transform="">
				<rect x="426.6" y="-453.1" width="16.7" height="16.7"/>
			</g>
		</g>
	</g>
</g>
<g id="__1_00000106842665464750020550000010430967161634907057_">
	<g>
		<path class="st2" d="M369.6,88.4V71.7h8.2v41.9h-8.2V96.3h-17.1v17.4h-8.3V71.7h8.3v16.7H369.6z"/>
		<path class="st2" d="M413.2,101.9h-22.6c1,3.8,3.8,5.6,8.4,5.6c3,0,5.2-1,6.7-3l6.2,3.6c-3,4.3-7.3,6.4-13.1,6.4
			c-5,0-8.9-1.5-11.9-4.5c-3-3-4.5-6.8-4.5-11.3c0-4.6,1.5-8.2,4.4-11.3c2.9-3,6.7-4.6,11.4-4.6c4.4,0,8,1.5,10.8,4.6
			c2.9,3,4.3,6.8,4.3,11.3C413.5,99.5,413.4,100.6,413.2,101.9L413.2,101.9z M390.5,95.9h15.3c-0.4-2-1.3-3.5-2.7-4.5
			c-1.3-1-2.9-1.6-4.8-1.6c-2.1,0-3.8,0.5-5.2,1.6C391.8,92.5,390.9,93.9,390.5,95.9L390.5,95.9z"/>
		<path class="st2" d="M425.4,113.7h-7.7V71.7h7.7V113.7z"/>
		<path class="st2" d="M448.7,82.9c4,0,7.5,1.5,10.3,4.6c2.9,3.1,4.3,6.8,4.3,11.2s-1.4,8.2-4.3,11.3c-2.8,3-6.2,4.6-10.3,4.6
			s-7.4-1.5-9.7-4.4v15.5h-7.7V83.7h7.7v3.5C441.3,84.3,444.5,82.9,448.7,82.9z M441.3,104.8c1.6,1.6,3.5,2.3,5.9,2.3
			s4.4-0.8,5.9-2.3c1.6-1.6,2.4-3.6,2.4-6.1c0-2.5-0.8-4.5-2.4-6c-1.6-1.6-3.5-2.4-5.9-2.4s-4.4,0.8-5.9,2.4c-1.6,1.6-2.3,3.6-2.3,6
			C439,101.2,439.8,103.2,441.3,104.8z"/>
		<path class="st2" d="M500.7,82.9c3.4,0,6.2,1.1,8.2,3.4c2.1,2.2,3.1,5.2,3.1,9v18.4h-7.7V95.7c0-1.8-0.4-3.2-1.3-4.2
			s-2.1-1.5-3.7-1.5c-1.8,0-3.1,0.6-4.1,1.7c-1,1.2-1.5,2.8-1.5,5v16.8h-7.7V95.7c0-1.8-0.4-3.2-1.3-4.2s-2.1-1.5-3.7-1.5
			c-1.7,0-3.1,0.6-4.1,1.8c-1,1.2-1.5,2.8-1.5,5v16.8h-7.7v-30h7.7v3.2c1.8-2.7,4.6-4,8.3-4c3.8,0,6.4,1.4,8.1,4.3
			C493.7,84.3,496.7,82.9,500.7,82.9L500.7,82.9z"/>
		<path class="st2" d="M540.2,87.2v-3.5h7.7v29.9h-7.7v-3.5c-2.3,2.9-5.6,4.4-9.8,4.4s-7.4-1.5-10.3-4.6c-2.8-3.1-4.3-6.8-4.3-11.3
			c0-4.4,1.4-8.1,4.3-11.2c2.9-3.1,6.3-4.6,10.3-4.6C534.6,82.9,537.8,84.3,540.2,87.2L540.2,87.2z M525.9,104.8
			c1.6,1.6,3.5,2.3,5.9,2.3c2.4,0,4.4-0.8,5.9-2.3s2.4-3.6,2.4-6.1c0-2.5-0.8-4.5-2.4-6c-1.6-1.6-3.5-2.4-5.9-2.4
			c-2.4,0-4.4,0.8-5.9,2.4c-1.6,1.6-2.3,3.6-2.3,6C523.6,101.2,524.3,103.2,525.9,104.8z"/>
		<path class="st2" d="M560.9,83.7v5.2c0.7-1.9,1.8-3.3,3.5-4.3s3.5-0.9,5.6-0.9v8c-2.4,0-4.5,0.2-6.4,1.4c-1.8,1.2-2.8,3.3-2.8,6.2
			v14.3h-7.7v-30H560.9L560.9,83.7z"/>
		<path class="st2" d="M589,98.5l12.4,15.2h-9l-10.9-13.6v13.6h-7.7V71.7h7.7v25.2l10.3-13.2h9.2L589,98.5L589,98.5z"/>
		<path class="st2" d="M631,101.9h-22.6c1,3.8,3.8,5.6,8.4,5.6c3,0,5.2-1,6.7-3l6.2,3.6c-3,4.3-7.3,6.4-13.1,6.4
			c-5,0-8.9-1.5-11.9-4.5c-3-3-4.5-6.8-4.5-11.3c0-4.6,1.5-8.2,4.4-11.3c2.9-3,6.7-4.6,11.4-4.6c4.7,0,8,1.5,10.8,4.6
			c2.9,3,4.3,6.8,4.3,11.3C631.3,99.5,631.2,100.6,631,101.9L631,101.9z M608.3,95.9h15.3c-0.4-2-1.3-3.5-2.7-4.5s-2.9-1.6-4.8-1.6
			c-2.1,0-3.8,0.5-5.1,1.6C609.7,92.5,608.8,93.9,608.3,95.9L608.3,95.9z"/>
		<path class="st2" d="M649.6,83.7v7.4h-6.8v12.5c0,1,0.3,1.8,0.8,2.3c0.5,0.5,1.3,0.7,2.3,0.8s2.2,0.1,3.7,0v7
			c-5.2,0.6-9,0.1-11.2-1.5c-2.2-1.6-3.3-4.4-3.3-8.6V77.7l7.7-2.3v8.4H649.6L649.6,83.7z"/>
		<g>
			<g>
				<path class="st11" d="M289.9,72.3v15.3c2.2-3.1,5.8-5.2,9.9-5.2h1.6V72.3c0-0.3-0.3-0.6-0.6-0.6h-10.3
					C290.1,71.7,289.9,72,289.9,72.3z"/>
				<path class="st11" d="M334.3,71.7c0.3,0,0.6,0.3,0.6,0.6V91c0,0.6,0,1.1-0.1,1.7c-0.8,4.7-4.8,8.2-9.7,8.2h-21
					c-0.3,0-0.6-0.3-0.6-0.6v-6.2c0-0.3,0.3-0.6,0.6-0.6h18.8c0.4,0,0.7-0.3,0.7-0.7V72.3c0-0.3,0.3-0.6,0.6-0.6H334.3L334.3,71.7z"
					/>
			</g>
			<g>
				<path class="st12" d="M321.3,85v6.2c0,0.3-0.3,0.6-0.6,0.6H302c-0.4,0-0.7,0.3-0.7,0.7v20.6c0,0.3-0.3,0.6-0.6,0.6h-10.3
					c-0.3,0-0.6-0.3-0.6-0.6V94.3c0-0.6,0-1.1,0.1-1.6c0.8-4.7,4.8-8.2,9.7-8.2h21C321.1,84.5,321.3,84.7,321.3,85L321.3,85z"/>
				<path class="st12" d="M334.9,97.8v15.3c0,0.3-0.3,0.6-0.6,0.6H324c-0.3,0-0.6-0.3-0.6-0.6V103h1.6
					C329.1,103,332.7,101,334.9,97.8L334.9,97.8z"/>
			</g>
		</g>
		<g>
			<path class="st2" d="M659.4,113.7c-0.5,0.5-1.1,0.7-1.8,0.7c-0.7,0-1.3-0.2-1.8-0.7c-0.5-0.5-0.7-1.1-0.7-1.8
				c0-0.7,0.2-1.3,0.7-1.8c0.5-0.5,1.1-0.7,1.8-0.7c0.7,0,1.3,0.2,1.8,0.7c0.5,0.5,0.7,1.1,0.7,1.8
				C660.1,112.6,659.9,113.2,659.4,113.7L659.4,113.7z"/>
			<path class="st2" d="M670.7,114.5c-2.6,0-4.7-0.9-6.4-2.6c-1.7-1.7-2.6-3.8-2.6-6.4c0-2.5,0.9-4.7,2.6-6.4
				c1.7-1.7,3.9-2.6,6.4-2.6c1.7,0,3.2,0.4,4.5,1.2c1.4,0.8,2.4,1.9,3.1,3.2l-3.2,1.8c-0.4-0.8-1-1.5-1.8-1.9
				c-0.8-0.5-1.7-0.7-2.7-0.7c-1.5,0-2.8,0.5-3.8,1.5c-1,1-1.5,2.3-1.5,3.8s0.5,2.8,1.5,3.8c1,1,2.3,1.5,3.8,1.5
				c1,0,1.9-0.2,2.7-0.7c0.8-0.5,1.4-1.1,1.8-1.9l3.2,1.8c-0.7,1.4-1.8,2.4-3.1,3.2C673.9,114.1,672.4,114.5,670.7,114.5
				L670.7,114.5z"/>
			<path class="st2" d="M690,96.6c2,0,3.5,0.6,4.7,1.9s1.8,3,1.8,5.1V114h-3.7V104c0-1.3-0.3-2.2-1-2.9c-0.7-0.7-1.6-1-2.8-1
				c-1.3,0-2.3,0.4-3.1,1.2c-0.8,0.8-1.2,2-1.2,3.7v9.1H681V90.2h3.7v9C685.8,97.5,687.6,96.6,690,96.6L690,96.6z"/>
		</g>
	</g>
</g>
<rect x="80.7" y="425.6" class="st11" width="86.5" height="9.1"/>
<g>
	<defs>
		<rect id="SVGID_00000070101596213881758390000006242072441472211897_" x="0" y="0" width="801.7" height="518.8"/>
	</defs>
	<clipPath id="SVGID_00000070076349053901394490000016743157780106402209_">
		<use xlink:href="#SVGID_00000070101596213881758390000006242072441472211897_"  style="overflow:visible;"/>
	</clipPath>
	<g style="clip-path:url(#SVGID_00000070076349053901394490000016743157780106402209_);">
		<circle class="st14" cx="-0.1" cy="-18.4" r="206.7"/>
		<circle class="st11" cx="175.2" cy="150.3" r="24.7"/>
	</g>
</g>
<rect x="498.6" y="215.9" class="st6" width="190.2" height="15.5"/>
</svg>
