<?xml version="1.0" encoding="utf-8"?>
<!-- Generator: Adobe Illustrator 26.4.1, SVG Export Plug-In . SVG Version: 6.00 Build 0)  -->
<svg version="1.1" id="Layer_1" xmlns="http://www.w3.org/2000/svg" xmlns:xlink="http://www.w3.org/1999/xlink" x="0px" y="0px"
	 viewBox="0 0 801.7 518.8" style="enable-background:new 0 0 801.7 518.8;" xml:space="preserve">
<style type="text/css">
	.st0{fill:#FFFFFF;}
	.st1{clip-path:url(#SVGID_00000153663505181653171910000002854553877484845477_);fill:#FBBF1B;}
	.st2{fill:#1A1A36;}
	.st3{fill:#FBBF1B;}
	.st4{fill:#555FA7;}
	.st5{font-family:'Montserrat-ExtraBold';}
	.st6{font-size:63.8327px;}
	.st7{font-family:'CarosSoftBold';}
	.st8{fill:#555EA6;}
	.st9{opacity:0.7;}
	.st10{font-family:'Montserrat-Regular';}
	.st11{font-size:35.055px;}
	.st12{fill:none;}
	.st13{fill:none;stroke:#FBBF1D;stroke-width:2.4476;stroke-miterlimit:10;}
	.st14{fill:#FBBF1D;}
</style>
<rect x="0" class="st0" width="801.7" height="518.8"/>
<g>
	<defs>
		<rect id="SVGID_1_" x="0" width="801.7" height="518.8"/>
	</defs>
	<clipPath id="SVGID_00000178192804835933027160000009504256876126810807_">
		<use xlink:href="#SVGID_1_"  style="overflow:visible;"/>
	</clipPath>
	
		<circle style="clip-path:url(#SVGID_00000178192804835933027160000009504256876126810807_);fill:#FBBF1B;" cx="68.6" cy="282.5" r="101.3"/>
</g>
<g id="_Слой_1_00000145759487685483629590000018272301001871199619_">
	<g>
		<path class="st2" d="M147.6,98.1v-15h7.4v37.8h-7.4v-15.7h-15.5v15.7h-7.5V83.1h7.5v15H147.6z"/>
		<path class="st2" d="M186.9,110.3h-20.4c0.9,3.4,3.4,5.1,7.6,5.1c2.7,0,4.7-0.9,6.1-2.7l5.6,3.2c-2.7,3.9-6.6,5.8-11.8,5.8
			c-4.5,0-8.1-1.4-10.8-4.1c-2.7-2.7-4.1-6.1-4.1-10.2c0-4.1,1.3-7.4,4-10.2c2.6-2.7,6.1-4.1,10.3-4.1c4,0,7.3,1.4,9.8,4.1
			c2.6,2.7,3.9,6.1,3.9,10.2C187.1,108.2,187,109.1,186.9,110.3L186.9,110.3z M166.4,104.9h13.8c-0.4-1.8-1.2-3.1-2.4-4.1
			c-1.2-0.9-2.6-1.4-4.3-1.4c-1.9,0-3.4,0.5-4.6,1.4C167.6,101.8,166.8,103.1,166.4,104.9L166.4,104.9z"/>
		<path class="st2" d="M197.9,120.9h-7V83.1h7V120.9z"/>
		<path class="st2" d="M218.9,93.1c3.6,0,6.7,1.4,9.3,4.2c2.6,2.8,3.9,6.1,3.9,10.1c0,4-1.3,7.4-3.9,10.2c-2.5,2.7-5.6,4.1-9.3,4.1
			s-6.7-1.3-8.8-3.9v14h-7V93.9h7v3.2C212.2,94.5,215.1,93.1,218.9,93.1z M212.3,112.9c1.4,1.4,3.2,2.1,5.4,2.1s3.9-0.7,5.4-2.1
			c1.4-1.4,2.2-3.3,2.2-5.5c0-2.2-0.7-4.1-2.2-5.5c-1.4-1.4-3.2-2.2-5.4-2.2s-3.9,0.7-5.4,2.2c-1.4,1.4-2.1,3.2-2.1,5.5
			S210.8,111.5,212.3,112.9z"/>
		<path class="st2" d="M265.8,93.1c3.1,0,5.6,1,7.4,3c1.9,2,2.8,4.7,2.8,8.1v16.6h-7v-16.2c0-1.6-0.4-2.9-1.2-3.8
			c-0.8-0.9-1.9-1.4-3.3-1.4c-1.6,0-2.8,0.5-3.7,1.6c-0.9,1-1.3,2.6-1.3,4.5v15.2h-7v-16.2c0-1.6-0.4-2.9-1.2-3.8
			c-0.8-0.9-1.9-1.4-3.3-1.4c-1.5,0-2.8,0.5-3.7,1.6c-0.9,1.1-1.4,2.6-1.4,4.5v15.2h-7v-27h7v2.9c1.6-2.4,4.1-3.6,7.5-3.6
			c3.4,0,5.8,1.3,7.3,3.9C259.5,94.4,262.2,93.1,265.8,93.1L265.8,93.1z"/>
		<path class="st2" d="M301.4,97.1v-3.2h7v27h-7v-3.2c-2.1,2.6-5,3.9-8.8,3.9s-6.7-1.4-9.3-4.1c-2.6-2.8-3.8-6.2-3.8-10.2
			s1.3-7.3,3.8-10.1c2.6-2.8,5.7-4.2,9.3-4.2C296.4,93.1,299.3,94.5,301.4,97.1L301.4,97.1z M288.6,112.9c1.4,1.4,3.2,2.1,5.4,2.1
			c2.2,0,3.9-0.7,5.4-2.1c1.4-1.4,2.2-3.3,2.2-5.5c0-2.2-0.7-4.1-2.2-5.5c-1.4-1.4-3.2-2.2-5.4-2.2c-2.2,0-3.9,0.7-5.4,2.2
			c-1.4,1.4-2.1,3.2-2.1,5.5S287.1,111.5,288.6,112.9z"/>
		<path class="st2" d="M320.1,93.9v4.6c0.6-1.7,1.7-3,3.1-3.9c1.5-0.9,3.2-0.8,5.1-0.8v7.2c-2.1,0-4,0.1-5.7,1.3
			c-1.7,1.1-2.5,3-2.5,5.6v12.9h-7v-27H320.1L320.1,93.9z"/>
		<path class="st2" d="M345.5,107.2l11.2,13.7h-8.1l-9.8-12.3v12.3h-7V83.1h7v22.7l9.3-11.9h8.3L345.5,107.2L345.5,107.2z"/>
		<path class="st2" d="M383.4,110.3H363c0.9,3.4,3.4,5.1,7.6,5.1c2.7,0,4.7-0.9,6.1-2.7l5.6,3.2c-2.7,3.9-6.6,5.8-11.8,5.8
			c-4.5,0-8.1-1.4-10.8-4.1c-2.7-2.7-4.1-6.1-4.1-10.2c0-4.1,1.3-7.4,4-10.2c2.6-2.7,6.1-4.1,10.3-4.1s7.3,1.4,9.8,4.1
			c2.6,2.7,3.9,6.1,3.9,10.2C383.7,108.2,383.6,109.1,383.4,110.3L383.4,110.3z M362.9,104.9h13.8c-0.4-1.8-1.2-3.1-2.4-4.1
			c-1.2-0.9-2.6-1.4-4.3-1.4c-1.9,0-3.4,0.5-4.6,1.4C364.1,101.8,363.3,103.1,362.9,104.9L362.9,104.9z"/>
		<path class="st2" d="M400.2,93.9v6.7h-6.1v11.2c0,0.9,0.2,1.6,0.7,2.1c0.5,0.4,1.2,0.7,2.1,0.7c0.9,0.1,2,0,3.3,0v6.3
			c-4.7,0.5-8.1,0.1-10.1-1.3c-2-1.4-3-4-3-7.8V88.4l7-2.1v7.6H400.2L400.2,93.9z"/>
		<g>
			<g>
				<path class="st3" d="M75.6,83.6v13.8c2-2.8,5.2-4.7,8.9-4.7h1.4v-9.1c0-0.3-0.2-0.5-0.5-0.5h-9.3C75.8,83.1,75.6,83.3,75.6,83.6
					z"/>
				<path class="st3" d="M115.7,83.1c0.3,0,0.5,0.2,0.5,0.5v16.9c0,0.5,0,1-0.1,1.5c-0.7,4.2-4.4,7.4-8.8,7.4h-19
					c-0.3,0-0.5-0.2-0.5-0.5v-5.6c0-0.3,0.2-0.5,0.5-0.5h16.9c0.4,0,0.6-0.3,0.6-0.6V83.6c0-0.3,0.2-0.5,0.5-0.5H115.7L115.7,83.1z"
					/>
			</g>
			<g>
				<path class="st4" d="M104,95.1v5.6c0,0.3-0.2,0.5-0.5,0.5H86.6c-0.4,0-0.6,0.3-0.6,0.6v18.6c0,0.3-0.2,0.5-0.5,0.5h-9.3
					c-0.3,0-0.5-0.2-0.5-0.5v-16.9c0-0.5,0-1,0.1-1.5c0.7-4.2,4.4-7.4,8.8-7.4h19C103.8,94.6,104,94.8,104,95.1L104,95.1z"/>
				<path class="st4" d="M116.2,106.6v13.8c0,0.3-0.2,0.5-0.5,0.5h-9.3c-0.3,0-0.5-0.2-0.5-0.5v-9.1h1.4
					C111,111.3,114.3,109.5,116.2,106.6L116.2,106.6z"/>
			</g>
		</g>
		<g>
			<path class="st2" d="M409,121c-0.5,0.4-1,0.7-1.6,0.7c-0.6,0-1.2-0.2-1.6-0.7c-0.5-0.4-0.7-1-0.7-1.6c0-0.6,0.2-1.2,0.7-1.6
				s1-0.7,1.6-0.7s1.2,0.2,1.6,0.7c0.4,0.5,0.7,1,0.7,1.6C409.7,120,409.4,120.5,409,121L409,121z"/>
			<path class="st2" d="M419.2,121.7c-2.3,0-4.2-0.8-5.8-2.3c-1.5-1.6-2.3-3.5-2.3-5.7s0.8-4.2,2.3-5.8c1.5-1.5,3.5-2.3,5.8-2.3
				c1.5,0,2.9,0.4,4.1,1.1c1.2,0.7,2.1,1.7,2.8,2.9l-2.9,1.7c-0.3-0.7-0.9-1.3-1.6-1.7c-0.7-0.4-1.5-0.6-2.4-0.6
				c-1.4,0-2.5,0.5-3.4,1.4s-1.4,2.1-1.4,3.4s0.5,2.5,1.4,3.4c0.9,0.9,2,1.4,3.4,1.4c0.9,0,1.7-0.2,2.4-0.6c0.7-0.4,1.3-1,1.6-1.7
				l2.9,1.6c-0.7,1.2-1.6,2.2-2.8,2.9C422.1,121.3,420.7,121.7,419.2,121.7L419.2,121.7z"/>
			<path class="st2" d="M436.6,105.5c1.8,0,3.2,0.6,4.3,1.7c1.1,1.1,1.6,2.7,1.6,4.6v9.4h-3.3v-9.1c0-1.1-0.3-2-0.9-2.6
				c-0.6-0.6-1.5-0.9-2.5-0.9c-1.2,0-2.1,0.4-2.8,1.1c-0.7,0.7-1.1,1.8-1.1,3.3v8.2h-3.3V99.8h3.3v8.1
				C432.8,106.3,434.4,105.5,436.6,105.5L436.6,105.5z"/>
		</g>
	</g>
</g>
<g>
	<text transform="matrix(1 0 0 1 69.9111 255.7212)"><tspan x="0" y="0" class="st2 st5 st6">Your</tspan><tspan x="159.2" y="0" class="st2 st7 st6"> </tspan><tspan x="178.4" y="0" class="st8 st5 st6">Name</tspan></text>
	<g class="st9">
		<text transform="matrix(1 0 0 1 77.0791 303.4683)" class="st2 st10 st11">Manager</text>
	</g>
</g>
<g>
	<g>
		<g transform="translate(70,70)">
			<g transform="translate(350,0) scale(0.35,0.35)">
				<g transform="">
					<rect x="535.3" y="99.3" width="18.7" height="18.7"/>
				</g>
			</g>
			<g transform="translate(385,0) scale(0.35,0.35)">
				<g transform="">
					<rect x="454.1" y="99.3" width="18.7" height="18.7"/>
				</g>
			</g>
			<g transform="translate(490,0) scale(0.35,0.35)">
				<g transform="">
					<rect x="210.3" y="99.3" width="18.7" height="18.7"/>
				</g>
			</g>
			<g transform="translate(595,0) scale(0.35,0.35)">
				<g transform="">
					<rect x="-33.6" y="99.3" width="18.7" height="18.7"/>
				</g>
			</g>
			<g transform="translate(630,0) scale(0.35,0.35)">
				<g transform="">
					<rect x="-114.8" y="99.3" width="18.7" height="18.7"/>
				</g>
			</g>
			<g transform="translate(665,0) scale(0.35,0.35)">
				<g transform="">
					<rect x="-196.1" y="99.3" width="18.7" height="18.7"/>
				</g>
			</g>
			<g transform="translate(700,0) scale(0.35,0.35)">
				<g transform="">
					<rect x="-277.4" y="99.3" width="18.7" height="18.7"/>
				</g>
			</g>
			<g transform="translate(315,35) scale(0.35,0.35)">
				<g transform="">
					<rect x="616.6" y="18" width="18.7" height="18.7"/>
				</g>
			</g>
			<g transform="translate(350,35) scale(0.35,0.35)">
				<g transform="">
					<rect x="535.3" y="18" width="18.7" height="18.7"/>
				</g>
			</g>
			<g transform="translate(385,35) scale(0.35,0.35)">
				<g transform="">
					<rect x="454.1" y="18" width="18.7" height="18.7"/>
				</g>
			</g>
			<g transform="translate(420,35) scale(0.35,0.35)">
				<g transform="">
					<rect x="372.8" y="18" width="18.7" height="18.7"/>
				</g>
			</g>
			<g transform="translate(560,35) scale(0.35,0.35)">
				<g transform="">
					<rect x="47.7" y="18" width="18.7" height="18.7"/>
				</g>
			</g>
			<g transform="translate(630,35) scale(0.35,0.35)">
				<g transform="">
					<rect x="-114.8" y="18" width="18.7" height="18.7"/>
				</g>
			</g>
			<g transform="translate(420,70) scale(0.35,0.35)">
				<g transform="">
					<rect x="372.8" y="-63.3" width="18.7" height="18.7"/>
				</g>
			</g>
			<g transform="translate(490,70) scale(0.35,0.35)">
				<g transform="">
					<rect x="210.3" y="-63.3" width="18.7" height="18.7"/>
				</g>
			</g>
			<g transform="translate(525,70) scale(0.35,0.35)">
				<g transform="">
					<rect x="129" y="-63.3" width="18.7" height="18.7"/>
				</g>
			</g>
			<g transform="translate(595,70) scale(0.35,0.35)">
				<g transform="">
					<rect x="-33.6" y="-63.3" width="18.7" height="18.7"/>
				</g>
			</g>
			<g transform="translate(630,70) scale(0.35,0.35)">
				<g transform="">
					<rect x="-114.8" y="-63.3" width="18.7" height="18.7"/>
				</g>
			</g>
			<g transform="translate(700,70) scale(0.35,0.35)">
				<g transform="">
					<rect x="-277.4" y="-63.3" width="18.7" height="18.7"/>
				</g>
			</g>
			<g transform="translate(315,105) scale(0.35,0.35)">
				<g transform="">
					<rect x="616.6" y="-144.5" width="18.7" height="18.7"/>
				</g>
			</g>
			<g transform="translate(350,105) scale(0.35,0.35)">
				<g transform="">
					<rect x="535.3" y="-144.5" width="18.7" height="18.7"/>
				</g>
			</g>
			<g transform="translate(385,105) scale(0.35,0.35)">
				<g transform="">
					<rect x="454.1" y="-144.5" width="18.7" height="18.7"/>
				</g>
			</g>
			<g transform="translate(420,105) scale(0.35,0.35)">
				<g transform="">
					<rect x="372.8" y="-144.5" width="18.7" height="18.7"/>
				</g>
			</g>
			<g transform="translate(455,105) scale(0.35,0.35)">
				<g transform="">
					<rect x="291.5" y="-144.5" width="18.7" height="18.7"/>
				</g>
			</g>
			<g transform="translate(560,105) scale(0.35,0.35)">
				<g transform="">
					<rect x="47.7" y="-144.5" width="18.7" height="18.7"/>
				</g>
			</g>
			<g transform="translate(630,105) scale(0.35,0.35)">
				<g transform="">
					<rect x="-114.8" y="-144.5" width="18.7" height="18.7"/>
				</g>
			</g>
			<g transform="translate(665,105) scale(0.35,0.35)">
				<g transform="">
					<rect x="-196.1" y="-144.5" width="18.7" height="18.7"/>
				</g>
			</g>
			<g transform="translate(700,105) scale(0.35,0.35)">
				<g transform="">
					<rect x="-277.4" y="-144.5" width="18.7" height="18.7"/>
				</g>
			</g>
			<g transform="translate(315,140) scale(0.35,0.35)">
				<g transform="">
					<rect x="616.6" y="-225.8" width="18.7" height="18.7"/>
				</g>
			</g>
			<g transform="translate(350,140) scale(0.35,0.35)">
				<g transform="">
					<rect x="535.3" y="-225.8" width="18.7" height="18.7"/>
				</g>
			</g>
			<g transform="translate(630,140) scale(0.35,0.35)">
				<g transform="">
					<rect x="-114.8" y="-225.8" width="18.7" height="18.7"/>
				</g>
			</g>
			<g transform="translate(280,175) scale(0.35,0.35)">
				<g transform="">
					<rect x="697.9" y="-307.1" width="18.7" height="18.7"/>
				</g>
			</g>
			<g transform="translate(315,175) scale(0.35,0.35)">
				<g transform="">
					<rect x="616.6" y="-307.1" width="18.7" height="18.7"/>
				</g>
			</g>
			<g transform="translate(350,175) scale(0.35,0.35)">
				<g transform="">
					<rect x="535.3" y="-307.1" width="18.7" height="18.7"/>
				</g>
			</g>
			<g transform="translate(525,175) scale(0.35,0.35)">
				<g transform="">
					<rect x="129" y="-307.1" width="18.7" height="18.7"/>
				</g>
			</g>
			<g transform="translate(560,175) scale(0.35,0.35)">
				<g transform="">
					<rect x="47.7" y="-307.1" width="18.7" height="18.7"/>
				</g>
			</g>
			<g transform="translate(595,175) scale(0.35,0.35)">
				<g transform="">
					<rect x="-33.6" y="-307.1" width="18.7" height="18.7"/>
				</g>
			</g>
			<g transform="translate(665,175) scale(0.35,0.35)">
				<g transform="">
					<rect x="-196.1" y="-307.1" width="18.7" height="18.7"/>
				</g>
			</g>
			<g transform="translate(280,210) scale(0.35,0.35)">
				<g transform="">
					<rect x="697.9" y="-388.3" width="18.7" height="18.7"/>
				</g>
			</g>
			<g transform="translate(350,210) scale(0.35,0.35)">
				<g transform="">
					<rect x="535.3" y="-388.3" width="18.7" height="18.7"/>
				</g>
			</g>
			<g transform="translate(420,210) scale(0.35,0.35)">
				<g transform="">
					<rect x="372.8" y="-388.3" width="18.7" height="18.7"/>
				</g>
			</g>
			<g transform="translate(490,210) scale(0.35,0.35)">
				<g transform="">
					<rect x="210.3" y="-388.3" width="18.7" height="18.7"/>
				</g>
			</g>
			<g transform="translate(560,210) scale(0.35,0.35)">
				<g transform="">
					<rect x="47.7" y="-388.3" width="18.7" height="18.7"/>
				</g>
			</g>
			<g transform="translate(630,210) scale(0.35,0.35)">
				<g transform="">
					<rect x="-114.8" y="-388.3" width="18.7" height="18.7"/>
				</g>
			</g>
			<g transform="translate(700,210) scale(0.35,0.35)">
				<g transform="">
					<rect x="-277.4" y="-388.3" width="18.7" height="18.7"/>
				</g>
			</g>
			<g transform="translate(455,245) scale(0.35,0.35)">
				<g transform="">
					<rect x="291.5" y="-469.6" width="18.7" height="18.7"/>
				</g>
			</g>
			<g transform="translate(525,245) scale(0.35,0.35)">
				<g transform="">
					<rect x="129" y="-469.6" width="18.7" height="18.7"/>
				</g>
			</g>
			<g transform="translate(560,245) scale(0.35,0.35)">
				<g transform="">
					<rect x="47.7" y="-469.6" width="18.7" height="18.7"/>
				</g>
			</g>
			<g transform="translate(595,245) scale(0.35,0.35)">
				<g transform="">
					<rect x="-33.6" y="-469.6" width="18.7" height="18.7"/>
				</g>
			</g>
			<g transform="translate(630,245) scale(0.35,0.35)">
				<g transform="">
					<rect x="-114.8" y="-469.6" width="18.7" height="18.7"/>
				</g>
			</g>
			<g transform="translate(700,245) scale(0.35,0.35)">
				<g transform="">
					<rect x="-277.4" y="-469.6" width="18.7" height="18.7"/>
				</g>
			</g>
			<g transform="translate(0,280) scale(0.35,0.35)">
				<g transform="">
					<rect x="1348" y="-550.9" width="18.7" height="18.7"/>
				</g>
			</g>
			<g transform="translate(105,280) scale(0.35,0.35)">
				<g transform="">
					<rect x="1104.2" y="-550.9" width="18.7" height="18.7"/>
				</g>
			</g>
			<g transform="translate(175,280) scale(0.35,0.35)">
				<g transform="">
					<rect x="941.7" y="-550.9" width="18.7" height="18.7"/>
				</g>
			</g>
			<g transform="translate(210,280) scale(0.35,0.35)">
				<g transform="">
					<rect x="860.4" y="-550.9" width="18.7" height="18.7"/>
				</g>
			</g>
			<g transform="translate(280,280) scale(0.35,0.35)">
				<g transform="">
					<rect x="697.9" y="-550.9" width="18.7" height="18.7"/>
				</g>
			</g>
			<g transform="translate(315,280) scale(0.35,0.35)">
				<g transform="">
					<rect x="616.6" y="-550.9" width="18.7" height="18.7"/>
				</g>
			</g>
			<g transform="translate(420,280) scale(0.35,0.35)">
				<g transform="">
					<rect x="372.8" y="-550.9" width="18.7" height="18.7"/>
				</g>
			</g>
			<g transform="translate(490,280) scale(0.35,0.35)">
				<g transform="">
					<rect x="210.3" y="-550.9" width="18.7" height="18.7"/>
				</g>
			</g>
			<g transform="translate(560,280) scale(0.35,0.35)">
				<g transform="">
					<rect x="47.7" y="-550.9" width="18.7" height="18.7"/>
				</g>
			</g>
			<g transform="translate(735,280) scale(0.35,0.35)">
				<g transform="">
					<rect x="-358.6" y="-550.9" width="18.7" height="18.7"/>
				</g>
			</g>
			<g transform="translate(805,280) scale(0.35,0.35)">
				<g transform="">
					<rect x="-521.2" y="-550.9" width="18.7" height="18.7"/>
				</g>
			</g>
			<g transform="translate(0,315) scale(0.35,0.35)">
				<g transform="">
					<rect x="1348" y="-632.1" width="18.7" height="18.7"/>
				</g>
			</g>
			<g transform="translate(35,315) scale(0.35,0.35)">
				<g transform="">
					<rect x="1266.8" y="-632.1" width="18.7" height="18.7"/>
				</g>
			</g>
			<g transform="translate(70,315) scale(0.35,0.35)">
				<g transform="">
					<rect x="1185.5" y="-632.1" width="18.7" height="18.7"/>
				</g>
			</g>
			<g transform="translate(315,315) scale(0.35,0.35)">
				<g transform="">
					<rect x="616.6" y="-632.1" width="18.7" height="18.7"/>
				</g>
			</g>
			<g transform="translate(455,315) scale(0.35,0.35)">
				<g transform="">
					<rect x="291.5" y="-632.1" width="18.7" height="18.7"/>
				</g>
			</g>
			<g transform="translate(525,315) scale(0.35,0.35)">
				<g transform="">
					<rect x="129" y="-632.1" width="18.7" height="18.7"/>
				</g>
			</g>
			<g transform="translate(560,315) scale(0.35,0.35)">
				<g transform="">
					<rect x="47.7" y="-632.1" width="18.7" height="18.7"/>
				</g>
			</g>
			<g transform="translate(700,315) scale(0.35,0.35)">
				<g transform="">
					<rect x="-277.4" y="-632.1" width="18.7" height="18.7"/>
				</g>
			</g>
			<g transform="translate(735,315) scale(0.35,0.35)">
				<g transform="">
					<rect x="-358.6" y="-632.1" width="18.7" height="18.7"/>
				</g>
			</g>
			<g transform="translate(770,315) scale(0.35,0.35)">
				<g transform="">
					<rect x="-439.9" y="-632.1" width="18.7" height="18.7"/>
				</g>
			</g>
			<g transform="translate(875,315) scale(0.35,0.35)">
				<g transform="">
					<rect x="-683.7" y="-632.1" width="18.7" height="18.7"/>
				</g>
			</g>
			<g transform="translate(980,315) scale(0.35,0.35)">
				<g transform="">
					<rect x="-927.5" y="-632.1" width="18.7" height="18.7"/>
				</g>
			</g>
			<g transform="translate(0,350) scale(0.35,0.35)">
				<g transform="">
					<rect x="1348" y="-713.4" width="18.7" height="18.7"/>
				</g>
			</g>
			<g transform="translate(105,350) scale(0.35,0.35)">
				<g transform="">
					<rect x="1104.2" y="-713.4" width="18.7" height="18.7"/>
				</g>
			</g>
			<g transform="translate(210,350) scale(0.35,0.35)">
				<g transform="">
					<rect x="860.4" y="-713.4" width="18.7" height="18.7"/>
				</g>
			</g>
			<g transform="translate(280,350) scale(0.35,0.35)">
				<g transform="">
					<rect x="697.9" y="-713.4" width="18.7" height="18.7"/>
				</g>
			</g>
			<g transform="translate(385,350) scale(0.35,0.35)">
				<g transform="">
					<rect x="454.1" y="-713.4" width="18.7" height="18.7"/>
				</g>
			</g>
			<g transform="translate(455,350) scale(0.35,0.35)">
				<g transform="">
					<rect x="291.5" y="-713.4" width="18.7" height="18.7"/>
				</g>
			</g>
			<g transform="translate(490,350) scale(0.35,0.35)">
				<g transform="">
					<rect x="210.3" y="-713.4" width="18.7" height="18.7"/>
				</g>
			</g>
			<g transform="translate(525,350) scale(0.35,0.35)">
				<g transform="">
					<rect x="129" y="-713.4" width="18.7" height="18.7"/>
				</g>
			</g>
			<g transform="translate(630,350) scale(0.35,0.35)">
				<g transform="">
					<rect x="-114.8" y="-713.4" width="18.7" height="18.7"/>
				</g>
			</g>
			<g transform="translate(665,350) scale(0.35,0.35)">
				<g transform="">
					<rect x="-196.1" y="-713.4" width="18.7" height="18.7"/>
				</g>
			</g>
			<g transform="translate(770,350) scale(0.35,0.35)">
				<g transform="">
					<rect x="-439.9" y="-713.4" width="18.7" height="18.7"/>
				</g>
			</g>
			<g transform="translate(875,350) scale(0.35,0.35)">
				<g transform="">
					<rect x="-683.7" y="-713.4" width="18.7" height="18.7"/>
				</g>
			</g>
			<g transform="translate(910,350) scale(0.35,0.35)">
				<g transform="">
					<rect x="-765" y="-713.4" width="18.7" height="18.7"/>
				</g>
			</g>
			<g transform="translate(945,350) scale(0.35,0.35)">
				<g transform="">
					<rect x="-846.2" y="-713.4" width="18.7" height="18.7"/>
				</g>
			</g>
			<g transform="translate(70,385) scale(0.35,0.35)">
				<g transform="">
					<rect x="1185.5" y="-794.7" width="18.7" height="18.7"/>
				</g>
			</g>
			<g transform="translate(105,385) scale(0.35,0.35)">
				<g transform="">
					<rect x="1104.2" y="-794.7" width="18.7" height="18.7"/>
				</g>
			</g>
			<g transform="translate(140,385) scale(0.35,0.35)">
				<g transform="">
					<rect x="1023" y="-794.7" width="18.7" height="18.7"/>
				</g>
			</g>
			<g transform="translate(245,385) scale(0.35,0.35)">
				<g transform="">
					<rect x="779.1" y="-794.7" width="18.7" height="18.7"/>
				</g>
			</g>
			<g transform="translate(280,385) scale(0.35,0.35)">
				<g transform="">
					<rect x="697.9" y="-794.7" width="18.7" height="18.7"/>
				</g>
			</g>
			<g transform="translate(315,385) scale(0.35,0.35)">
				<g transform="">
					<rect x="616.6" y="-794.7" width="18.7" height="18.7"/>
				</g>
			</g>
			<g transform="translate(350,385) scale(0.35,0.35)">
				<g transform="">
					<rect x="535.3" y="-794.7" width="18.7" height="18.7"/>
				</g>
			</g>
			<g transform="translate(420,385) scale(0.35,0.35)">
				<g transform="">
					<rect x="372.8" y="-794.7" width="18.7" height="18.7"/>
				</g>
			</g>
			<g transform="translate(455,385) scale(0.35,0.35)">
				<g transform="">
					<rect x="291.5" y="-794.7" width="18.7" height="18.7"/>
				</g>
			</g>
			<g transform="translate(560,385) scale(0.35,0.35)">
				<g transform="">
					<rect x="47.7" y="-794.7" width="18.7" height="18.7"/>
				</g>
			</g>
			<g transform="translate(700,385) scale(0.35,0.35)">
				<g transform="">
					<rect x="-277.4" y="-794.7" width="18.7" height="18.7"/>
				</g>
			</g>
			<g transform="translate(735,385) scale(0.35,0.35)">
				<g transform="">
					<rect x="-358.6" y="-794.7" width="18.7" height="18.7"/>
				</g>
			</g>
			<g transform="translate(805,385) scale(0.35,0.35)">
				<g transform="">
					<rect x="-521.2" y="-794.7" width="18.7" height="18.7"/>
				</g>
			</g>
			<g transform="translate(840,385) scale(0.35,0.35)">
				<g transform="">
					<rect x="-602.4" y="-794.7" width="18.7" height="18.7"/>
				</g>
			</g>
			<g transform="translate(910,385) scale(0.35,0.35)">
				<g transform="">
					<rect x="-765" y="-794.7" width="18.7" height="18.7"/>
				</g>
			</g>
			<g transform="translate(945,385) scale(0.35,0.35)">
				<g transform="">
					<rect x="-846.2" y="-794.7" width="18.7" height="18.7"/>
				</g>
			</g>
			<g transform="translate(35,420) scale(0.35,0.35)">
				<g transform="">
					<rect x="1266.8" y="-876" width="18.7" height="18.7"/>
				</g>
			</g>
			<g transform="translate(105,420) scale(0.35,0.35)">
				<g transform="">
					<rect x="1104.2" y="-876" width="18.7" height="18.7"/>
				</g>
			</g>
			<g transform="translate(175,420) scale(0.35,0.35)">
				<g transform="">
					<rect x="941.7" y="-876" width="18.7" height="18.7"/>
				</g>
			</g>
			<g transform="translate(210,420) scale(0.35,0.35)">
				<g transform="">
					<rect x="860.4" y="-876" width="18.7" height="18.7"/>
				</g>
			</g>
			<g transform="translate(245,420) scale(0.35,0.35)">
				<g transform="">
					<rect x="779.1" y="-876" width="18.7" height="18.7"/>
				</g>
			</g>
			<g transform="translate(385,420) scale(0.35,0.35)">
				<g transform="">
					<rect x="454.1" y="-876" width="18.7" height="18.7"/>
				</g>
			</g>
			<g transform="translate(490,420) scale(0.35,0.35)">
				<g transform="">
					<rect x="210.3" y="-876" width="18.7" height="18.7"/>
				</g>
			</g>
			<g transform="translate(525,420) scale(0.35,0.35)">
				<g transform="">
					<rect x="129" y="-876" width="18.7" height="18.7"/>
				</g>
			</g>
			<g transform="translate(595,420) scale(0.35,0.35)">
				<g transform="">
					<rect x="-33.6" y="-876" width="18.7" height="18.7"/>
				</g>
			</g>
			<g transform="translate(630,420) scale(0.35,0.35)">
				<g transform="">
					<rect x="-114.8" y="-876" width="18.7" height="18.7"/>
				</g>
			</g>
			<g transform="translate(665,420) scale(0.35,0.35)">
				<g transform="">
					<rect x="-196.1" y="-876" width="18.7" height="18.7"/>
				</g>
			</g>
			<g transform="translate(700,420) scale(0.35,0.35)">
				<g transform="">
					<rect x="-277.4" y="-876" width="18.7" height="18.7"/>
				</g>
			</g>
			<g transform="translate(735,420) scale(0.35,0.35)">
				<g transform="">
					<rect x="-358.6" y="-876" width="18.7" height="18.7"/>
				</g>
			</g>
			<g transform="translate(770,420) scale(0.35,0.35)">
				<g transform="">
					<rect x="-439.9" y="-876" width="18.7" height="18.7"/>
				</g>
			</g>
			<g transform="translate(875,420) scale(0.35,0.35)">
				<g transform="">
					<rect x="-683.7" y="-876" width="18.7" height="18.7"/>
				</g>
			</g>
			<g transform="translate(945,420) scale(0.35,0.35)">
				<g transform="">
					<rect x="-846.2" y="-876" width="18.7" height="18.7"/>
				</g>
			</g>
			<g transform="translate(980,420) scale(0.35,0.35)">
				<g transform="">
					<rect x="-927.5" y="-876" width="18.7" height="18.7"/>
				</g>
			</g>
			<g transform="translate(0,455) scale(0.35,0.35)">
				<g transform="">
					<rect x="1348" y="-957.2" width="18.7" height="18.7"/>
				</g>
			</g>
			<g transform="translate(35,455) scale(0.35,0.35)">
				<g transform="">
					<rect x="1266.8" y="-957.2" width="18.7" height="18.7"/>
				</g>
			</g>
			<g transform="translate(70,455) scale(0.35,0.35)">
				<g transform="">
					<rect x="1185.5" y="-957.2" width="18.7" height="18.7"/>
				</g>
			</g>
			<g transform="translate(140,455) scale(0.35,0.35)">
				<g transform="">
					<rect x="1023" y="-957.2" width="18.7" height="18.7"/>
				</g>
			</g>
			<g transform="translate(175,455) scale(0.35,0.35)">
				<g transform="">
					<rect x="941.7" y="-957.2" width="18.7" height="18.7"/>
				</g>
			</g>
			<g transform="translate(245,455) scale(0.35,0.35)">
				<g transform="">
					<rect x="779.1" y="-957.2" width="18.7" height="18.7"/>
				</g>
			</g>
			<g transform="translate(280,455) scale(0.35,0.35)">
				<g transform="">
					<rect x="697.9" y="-957.2" width="18.7" height="18.7"/>
				</g>
			</g>
			<g transform="translate(420,455) scale(0.35,0.35)">
				<g transform="">
					<rect x="372.8" y="-957.2" width="18.7" height="18.7"/>
				</g>
			</g>
			<g transform="translate(455,455) scale(0.35,0.35)">
				<g transform="">
					<rect x="291.5" y="-957.2" width="18.7" height="18.7"/>
				</g>
			</g>
			<g transform="translate(490,455) scale(0.35,0.35)">
				<g transform="">
					<rect x="210.3" y="-957.2" width="18.7" height="18.7"/>
				</g>
			</g>
			<g transform="translate(525,455) scale(0.35,0.35)">
				<g transform="">
					<rect x="129" y="-957.2" width="18.7" height="18.7"/>
				</g>
			</g>
			<g transform="translate(560,455) scale(0.35,0.35)">
				<g transform="">
					<rect x="47.7" y="-957.2" width="18.7" height="18.7"/>
				</g>
			</g>
			<g transform="translate(665,455) scale(0.35,0.35)">
				<g transform="">
					<rect x="-196.1" y="-957.2" width="18.7" height="18.7"/>
				</g>
			</g>
			<g transform="translate(700,455) scale(0.35,0.35)">
				<g transform="">
					<rect x="-277.4" y="-957.2" width="18.7" height="18.7"/>
				</g>
			</g>
			<g transform="translate(735,455) scale(0.35,0.35)">
				<g transform="">
					<rect x="-358.6" y="-957.2" width="18.7" height="18.7"/>
				</g>
			</g>
			<g transform="translate(805,455) scale(0.35,0.35)">
				<g transform="">
					<rect x="-521.2" y="-957.2" width="18.7" height="18.7"/>
				</g>
			</g>
			<g transform="translate(70,490) scale(0.35,0.35)">
				<g transform="">
					<rect x="1185.5" y="-1038.5" width="18.7" height="18.7"/>
				</g>
			</g>
			<g transform="translate(105,490) scale(0.35,0.35)">
				<g transform="">
					<rect x="1104.2" y="-1038.5" width="18.7" height="18.7"/>
				</g>
			</g>
			<g transform="translate(175,490) scale(0.35,0.35)">
				<g transform="">
					<rect x="941.7" y="-1038.5" width="18.7" height="18.7"/>
				</g>
			</g>
			<g transform="translate(210,490) scale(0.35,0.35)">
				<g transform="">
					<rect x="860.4" y="-1038.5" width="18.7" height="18.7"/>
				</g>
			</g>
			<g transform="translate(280,490) scale(0.35,0.35)">
				<g transform="">
					<rect x="697.9" y="-1038.5" width="18.7" height="18.7"/>
				</g>
			</g>
			<g transform="translate(350,490) scale(0.35,0.35)">
				<g transform="">
					<rect x="535.3" y="-1038.5" width="18.7" height="18.7"/>
				</g>
			</g>
			<g transform="translate(385,490) scale(0.35,0.35)">
				<g transform="">
					<rect x="454.1" y="-1038.5" width="18.7" height="18.7"/>
				</g>
			</g>
			<g transform="translate(455,490) scale(0.35,0.35)">
				<g transform="">
					<rect x="291.5" y="-1038.5" width="18.7" height="18.7"/>
				</g>
			</g>
			<g transform="translate(490,490) scale(0.35,0.35)">
				<g transform="">
					<rect x="210.3" y="-1038.5" width="18.7" height="18.7"/>
				</g>
			</g>
			<g transform="translate(735,490) scale(0.35,0.35)">
				<g transform="">
					<rect x="-358.6" y="-1038.5" width="18.7" height="18.7"/>
				</g>
			</g>
			<g transform="translate(770,490) scale(0.35,0.35)">
				<g transform="">
					<rect x="-439.9" y="-1038.5" width="18.7" height="18.7"/>
				</g>
			</g>
			<g transform="translate(805,490) scale(0.35,0.35)">
				<g transform="">
					<rect x="-521.2" y="-1038.5" width="18.7" height="18.7"/>
				</g>
			</g>
			<g transform="translate(875,490) scale(0.35,0.35)">
				<g transform="">
					<rect x="-683.7" y="-1038.5" width="18.7" height="18.7"/>
				</g>
			</g>
			<g transform="translate(910,490) scale(0.35,0.35)">
				<g transform="">
					<rect x="-765" y="-1038.5" width="18.7" height="18.7"/>
				</g>
			</g>
			<g transform="translate(945,490) scale(0.35,0.35)">
				<g transform="">
					<rect x="-846.2" y="-1038.5" width="18.7" height="18.7"/>
				</g>
			</g>
			<g transform="translate(980,490) scale(0.35,0.35)">
				<g transform="">
					<rect x="-927.5" y="-1038.5" width="18.7" height="18.7"/>
				</g>
			</g>
			<g transform="translate(35,525) scale(0.35,0.35)">
				<g transform="">
					<rect x="1266.8" y="-1119.8" width="18.7" height="18.7"/>
				</g>
			</g>
			<g transform="translate(70,525) scale(0.35,0.35)">
				<g transform="">
					<rect x="1185.5" y="-1119.8" width="18.7" height="18.7"/>
				</g>
			</g>
			<g transform="translate(175,525) scale(0.35,0.35)">
				<g transform="">
					<rect x="941.7" y="-1119.8" width="18.7" height="18.7"/>
				</g>
			</g>
			<g transform="translate(280,525) scale(0.35,0.35)">
				<g transform="">
					<rect x="697.9" y="-1119.8" width="18.7" height="18.7"/>
				</g>
			</g>
			<g transform="translate(350,525) scale(0.35,0.35)">
				<g transform="">
					<rect x="535.3" y="-1119.8" width="18.7" height="18.7"/>
				</g>
			</g>
			<g transform="translate(525,525) scale(0.35,0.35)">
				<g transform="">
					<rect x="129" y="-1119.8" width="18.7" height="18.7"/>
				</g>
			</g>
			<g transform="translate(595,525) scale(0.35,0.35)">
				<g transform="">
					<rect x="-33.6" y="-1119.8" width="18.7" height="18.7"/>
				</g>
			</g>
			<g transform="translate(630,525) scale(0.35,0.35)">
				<g transform="">
					<rect x="-114.8" y="-1119.8" width="18.7" height="18.7"/>
				</g>
			</g>
			<g transform="translate(875,525) scale(0.35,0.35)">
				<g transform="">
					<rect x="-683.7" y="-1119.8" width="18.7" height="18.7"/>
				</g>
			</g>
			<g transform="translate(945,525) scale(0.35,0.35)">
				<g transform="">
					<rect x="-846.2" y="-1119.8" width="18.7" height="18.7"/>
				</g>
			</g>
			<g transform="translate(0,560) scale(0.35,0.35)">
				<g transform="">
					<rect x="1348" y="-1201" width="18.7" height="18.7"/>
				</g>
			</g>
			<g transform="translate(35,560) scale(0.35,0.35)">
				<g transform="">
					<rect x="1266.8" y="-1201" width="18.7" height="18.7"/>
				</g>
			</g>
			<g transform="translate(70,560) scale(0.35,0.35)">
				<g transform="">
					<rect x="1185.5" y="-1201" width="18.7" height="18.7"/>
				</g>
			</g>
			<g transform="translate(175,560) scale(0.35,0.35)">
				<g transform="">
					<rect x="941.7" y="-1201" width="18.7" height="18.7"/>
				</g>
			</g>
			<g transform="translate(210,560) scale(0.35,0.35)">
				<g transform="">
					<rect x="860.4" y="-1201" width="18.7" height="18.7"/>
				</g>
			</g>
			<g transform="translate(245,560) scale(0.35,0.35)">
				<g transform="">
					<rect x="779.1" y="-1201" width="18.7" height="18.7"/>
				</g>
			</g>
			<g transform="translate(280,560) scale(0.35,0.35)">
				<g transform="">
					<rect x="697.9" y="-1201" width="18.7" height="18.7"/>
				</g>
			</g>
			<g transform="translate(455,560) scale(0.35,0.35)">
				<g transform="">
					<rect x="291.5" y="-1201" width="18.7" height="18.7"/>
				</g>
			</g>
			<g transform="translate(595,560) scale(0.35,0.35)">
				<g transform="">
					<rect x="-33.6" y="-1201" width="18.7" height="18.7"/>
				</g>
			</g>
			<g transform="translate(665,560) scale(0.35,0.35)">
				<g transform="">
					<rect x="-196.1" y="-1201" width="18.7" height="18.7"/>
				</g>
			</g>
			<g transform="translate(735,560) scale(0.35,0.35)">
				<g transform="">
					<rect x="-358.6" y="-1201" width="18.7" height="18.7"/>
				</g>
			</g>
			<g transform="translate(805,560) scale(0.35,0.35)">
				<g transform="">
					<rect x="-521.2" y="-1201" width="18.7" height="18.7"/>
				</g>
			</g>
			<g transform="translate(945,560) scale(0.35,0.35)">
				<g transform="">
					<rect x="-846.2" y="-1201" width="18.7" height="18.7"/>
				</g>
			</g>
			<g transform="translate(35,595) scale(0.35,0.35)">
				<g transform="">
					<rect x="1266.8" y="-1282.3" width="18.7" height="18.7"/>
				</g>
			</g>
			<g transform="translate(70,595) scale(0.35,0.35)">
				<g transform="">
					<rect x="1185.5" y="-1282.3" width="18.7" height="18.7"/>
				</g>
			</g>
			<g transform="translate(140,595) scale(0.35,0.35)">
				<g transform="">
					<rect x="1023" y="-1282.3" width="18.7" height="18.7"/>
				</g>
			</g>
			<g transform="translate(315,595) scale(0.35,0.35)">
				<g transform="">
					<rect x="616.6" y="-1282.3" width="18.7" height="18.7"/>
				</g>
			</g>
			<g transform="translate(350,595) scale(0.35,0.35)">
				<g transform="">
					<rect x="535.3" y="-1282.3" width="18.7" height="18.7"/>
				</g>
			</g>
			<g transform="translate(455,595) scale(0.35,0.35)">
				<g transform="">
					<rect x="291.5" y="-1282.3" width="18.7" height="18.7"/>
				</g>
			</g>
			<g transform="translate(490,595) scale(0.35,0.35)">
				<g transform="">
					<rect x="210.3" y="-1282.3" width="18.7" height="18.7"/>
				</g>
			</g>
			<g transform="translate(525,595) scale(0.35,0.35)">
				<g transform="">
					<rect x="129" y="-1282.3" width="18.7" height="18.7"/>
				</g>
			</g>
			<g transform="translate(560,595) scale(0.35,0.35)">
				<g transform="">
					<rect x="47.7" y="-1282.3" width="18.7" height="18.7"/>
				</g>
			</g>
			<g transform="translate(630,595) scale(0.35,0.35)">
				<g transform="">
					<rect x="-114.8" y="-1282.3" width="18.7" height="18.7"/>
				</g>
			</g>
			<g transform="translate(735,595) scale(0.35,0.35)">
				<g transform="">
					<rect x="-358.6" y="-1282.3" width="18.7" height="18.7"/>
				</g>
			</g>
			<g transform="translate(770,595) scale(0.35,0.35)">
				<g transform="">
					<rect x="-439.9" y="-1282.3" width="18.7" height="18.7"/>
				</g>
			</g>
			<g transform="translate(805,595) scale(0.35,0.35)">
				<g transform="">
					<rect x="-521.2" y="-1282.3" width="18.7" height="18.7"/>
				</g>
			</g>
			<g transform="translate(875,595) scale(0.35,0.35)">
				<g transform="">
					<rect x="-683.7" y="-1282.3" width="18.7" height="18.7"/>
				</g>
			</g>
			<g transform="translate(980,595) scale(0.35,0.35)">
				<g transform="">
					<rect x="-927.5" y="-1282.3" width="18.7" height="18.7"/>
				</g>
			</g>
			<g transform="translate(0,630) scale(0.35,0.35)">
				<g transform="">
					<rect x="1348" y="-1363.6" width="18.7" height="18.7"/>
				</g>
			</g>
			<g transform="translate(70,630) scale(0.35,0.35)">
				<g transform="">
					<rect x="1185.5" y="-1363.6" width="18.7" height="18.7"/>
				</g>
			</g>
			<g transform="translate(140,630) scale(0.35,0.35)">
				<g transform="">
					<rect x="1023" y="-1363.6" width="18.7" height="18.7"/>
				</g>
			</g>
			<g transform="translate(210,630) scale(0.35,0.35)">
				<g transform="">
					<rect x="860.4" y="-1363.6" width="18.7" height="18.7"/>
				</g>
			</g>
			<g transform="translate(245,630) scale(0.35,0.35)">
				<g transform="">
					<rect x="779.1" y="-1363.6" width="18.7" height="18.7"/>
				</g>
			</g>
			<g transform="translate(280,630) scale(0.35,0.35)">
				<g transform="">
					<rect x="697.9" y="-1363.6" width="18.7" height="18.7"/>
				</g>
			</g>
			<g transform="translate(350,630) scale(0.35,0.35)">
				<g transform="">
					<rect x="535.3" y="-1363.6" width="18.7" height="18.7"/>
				</g>
			</g>
			<g transform="translate(385,630) scale(0.35,0.35)">
				<g transform="">
					<rect x="454.1" y="-1363.6" width="18.7" height="18.7"/>
				</g>
			</g>
			<g transform="translate(490,630) scale(0.35,0.35)">
				<g transform="">
					<rect x="210.3" y="-1363.6" width="18.7" height="18.7"/>
				</g>
			</g>
			<g transform="translate(525,630) scale(0.35,0.35)">
				<g transform="">
					<rect x="129" y="-1363.6" width="18.7" height="18.7"/>
				</g>
			</g>
			<g transform="translate(560,630) scale(0.35,0.35)">
				<g transform="">
					<rect x="47.7" y="-1363.6" width="18.7" height="18.7"/>
				</g>
			</g>
			<g transform="translate(735,630) scale(0.35,0.35)">
				<g transform="">
					<rect x="-358.6" y="-1363.6" width="18.7" height="18.7"/>
				</g>
			</g>
			<g transform="translate(805,630) scale(0.35,0.35)">
				<g transform="">
					<rect x="-521.2" y="-1363.6" width="18.7" height="18.7"/>
				</g>
			</g>
			<g transform="translate(840,630) scale(0.35,0.35)">
				<g transform="">
					<rect x="-602.4" y="-1363.6" width="18.7" height="18.7"/>
				</g>
			</g>
			<g transform="translate(945,630) scale(0.35,0.35)">
				<g transform="">
					<rect x="-846.2" y="-1363.6" width="18.7" height="18.7"/>
				</g>
			</g>
			<g transform="translate(980,630) scale(0.35,0.35)">
				<g transform="">
					<rect x="-927.5" y="-1363.6" width="18.7" height="18.7"/>
				</g>
			</g>
			<g transform="translate(245,665) scale(0.35,0.35)">
				<g transform="">
					<rect x="779.1" y="-1444.8" width="18.7" height="18.7"/>
				</g>
			</g>
			<g transform="translate(490,665) scale(0.35,0.35)">
				<g transform="">
					<rect x="210.3" y="-1444.8" width="18.7" height="18.7"/>
				</g>
			</g>
			<g transform="translate(595,665) scale(0.35,0.35)">
				<g transform="">
					<rect x="-33.6" y="-1444.8" width="18.7" height="18.7"/>
				</g>
			</g>
			<g transform="translate(630,665) scale(0.35,0.35)">
				<g transform="">
					<rect x="-114.8" y="-1444.8" width="18.7" height="18.7"/>
				</g>
			</g>
			<g transform="translate(735,665) scale(0.35,0.35)">
				<g transform="">
					<rect x="-358.6" y="-1444.8" width="18.7" height="18.7"/>
				</g>
			</g>
			<g transform="translate(770,665) scale(0.35,0.35)">
				<g transform="">
					<rect x="-439.9" y="-1444.8" width="18.7" height="18.7"/>
				</g>
			</g>
			<g transform="translate(945,665) scale(0.35,0.35)">
				<g transform="">
					<rect x="-846.2" y="-1444.8" width="18.7" height="18.7"/>
				</g>
			</g>
			<g transform="translate(980,665) scale(0.35,0.35)">
				<g transform="">
					<rect x="-927.5" y="-1444.8" width="18.7" height="18.7"/>
				</g>
			</g>
			<g transform="translate(0,700) scale(0.35,0.35)">
				<g transform="">
					<rect x="1348" y="-1526.1" width="18.7" height="18.7"/>
				</g>
			</g>
			<g transform="translate(210,700) scale(0.35,0.35)">
				<g transform="">
					<rect x="860.4" y="-1526.1" width="18.7" height="18.7"/>
				</g>
			</g>
			<g transform="translate(245,700) scale(0.35,0.35)">
				<g transform="">
					<rect x="779.1" y="-1526.1" width="18.7" height="18.7"/>
				</g>
			</g>
			<g transform="translate(315,700) scale(0.35,0.35)">
				<g transform="">
					<rect x="616.6" y="-1526.1" width="18.7" height="18.7"/>
				</g>
			</g>
			<g transform="translate(350,700) scale(0.35,0.35)">
				<g transform="">
					<rect x="535.3" y="-1526.1" width="18.7" height="18.7"/>
				</g>
			</g>
			<g transform="translate(420,700) scale(0.35,0.35)">
				<g transform="">
					<rect x="372.8" y="-1526.1" width="18.7" height="18.7"/>
				</g>
			</g>
			<g transform="translate(525,700) scale(0.35,0.35)">
				<g transform="">
					<rect x="129" y="-1526.1" width="18.7" height="18.7"/>
				</g>
			</g>
			<g transform="translate(700,700) scale(0.35,0.35)">
				<g transform="">
					<rect x="-277.4" y="-1526.1" width="18.7" height="18.7"/>
				</g>
			</g>
			<g transform="translate(735,700) scale(0.35,0.35)">
				<g transform="">
					<rect x="-358.6" y="-1526.1" width="18.7" height="18.7"/>
				</g>
			</g>
			<g transform="translate(770,700) scale(0.35,0.35)">
				<g transform="">
					<rect x="-439.9" y="-1526.1" width="18.7" height="18.7"/>
				</g>
			</g>
			<g transform="translate(805,700) scale(0.35,0.35)">
				<g transform="">
					<rect x="-521.2" y="-1526.1" width="18.7" height="18.7"/>
				</g>
			</g>
			<g transform="translate(840,700) scale(0.35,0.35)">
				<g transform="">
					<rect x="-602.4" y="-1526.1" width="18.7" height="18.7"/>
				</g>
			</g>
			<g transform="translate(910,700) scale(0.35,0.35)">
				<g transform="">
					<rect x="-765" y="-1526.1" width="18.7" height="18.7"/>
				</g>
			</g>
			<g transform="translate(280,735) scale(0.35,0.35)">
				<g transform="">
					<rect x="697.9" y="-1607.4" width="18.7" height="18.7"/>
				</g>
			</g>
			<g transform="translate(315,735) scale(0.35,0.35)">
				<g transform="">
					<rect x="616.6" y="-1607.4" width="18.7" height="18.7"/>
				</g>
			</g>
			<g transform="translate(385,735) scale(0.35,0.35)">
				<g transform="">
					<rect x="454.1" y="-1607.4" width="18.7" height="18.7"/>
				</g>
			</g>
			<g transform="translate(420,735) scale(0.35,0.35)">
				<g transform="">
					<rect x="372.8" y="-1607.4" width="18.7" height="18.7"/>
				</g>
			</g>
			<g transform="translate(490,735) scale(0.35,0.35)">
				<g transform="">
					<rect x="210.3" y="-1607.4" width="18.7" height="18.7"/>
				</g>
			</g>
			<g transform="translate(525,735) scale(0.35,0.35)">
				<g transform="">
					<rect x="129" y="-1607.4" width="18.7" height="18.7"/>
				</g>
			</g>
			<g transform="translate(665,735) scale(0.35,0.35)">
				<g transform="">
					<rect x="-196.1" y="-1607.4" width="18.7" height="18.7"/>
				</g>
			</g>
			<g transform="translate(700,735) scale(0.35,0.35)">
				<g transform="">
					<rect x="-277.4" y="-1607.4" width="18.7" height="18.7"/>
				</g>
			</g>
			<g transform="translate(840,735) scale(0.35,0.35)">
				<g transform="">
					<rect x="-602.4" y="-1607.4" width="18.7" height="18.7"/>
				</g>
			</g>
			<g transform="translate(910,735) scale(0.35,0.35)">
				<g transform="">
					<rect x="-765" y="-1607.4" width="18.7" height="18.7"/>
				</g>
			</g>
			<g transform="translate(945,735) scale(0.35,0.35)">
				<g transform="">
					<rect x="-846.2" y="-1607.4" width="18.7" height="18.7"/>
				</g>
			</g>
			<g transform="translate(980,735) scale(0.35,0.35)">
				<g transform="">
					<rect x="-927.5" y="-1607.4" width="18.7" height="18.7"/>
				</g>
			</g>
			<g transform="translate(350,770) scale(0.35,0.35)">
				<g transform="">
					<rect x="535.3" y="-1688.6" width="18.7" height="18.7"/>
				</g>
			</g>
			<g transform="translate(385,770) scale(0.35,0.35)">
				<g transform="">
					<rect x="454.1" y="-1688.6" width="18.7" height="18.7"/>
				</g>
			</g>
			<g transform="translate(420,770) scale(0.35,0.35)">
				<g transform="">
					<rect x="372.8" y="-1688.6" width="18.7" height="18.7"/>
				</g>
			</g>
			<g transform="translate(560,770) scale(0.35,0.35)">
				<g transform="">
					<rect x="47.7" y="-1688.6" width="18.7" height="18.7"/>
				</g>
			</g>
			<g transform="translate(595,770) scale(0.35,0.35)">
				<g transform="">
					<rect x="-33.6" y="-1688.6" width="18.7" height="18.7"/>
				</g>
			</g>
			<g transform="translate(630,770) scale(0.35,0.35)">
				<g transform="">
					<rect x="-114.8" y="-1688.6" width="18.7" height="18.7"/>
				</g>
			</g>
			<g transform="translate(700,770) scale(0.35,0.35)">
				<g transform="">
					<rect x="-277.4" y="-1688.6" width="18.7" height="18.7"/>
				</g>
			</g>
			<g transform="translate(770,770) scale(0.35,0.35)">
				<g transform="">
					<rect x="-439.9" y="-1688.6" width="18.7" height="18.7"/>
				</g>
			</g>
			<g transform="translate(840,770) scale(0.35,0.35)">
				<g transform="">
					<rect x="-602.4" y="-1688.6" width="18.7" height="18.7"/>
				</g>
			</g>
			<g transform="translate(945,770) scale(0.35,0.35)">
				<g transform="">
					<rect x="-846.2" y="-1688.6" width="18.7" height="18.7"/>
				</g>
			</g>
			<g transform="translate(280,805) scale(0.35,0.35)">
				<g transform="">
					<rect x="697.9" y="-1769.9" width="18.7" height="18.7"/>
				</g>
			</g>
			<g transform="translate(315,805) scale(0.35,0.35)">
				<g transform="">
					<rect x="616.6" y="-1769.9" width="18.7" height="18.7"/>
				</g>
			</g>
			<g transform="translate(385,805) scale(0.35,0.35)">
				<g transform="">
					<rect x="454.1" y="-1769.9" width="18.7" height="18.7"/>
				</g>
			</g>
			<g transform="translate(490,805) scale(0.35,0.35)">
				<g transform="">
					<rect x="210.3" y="-1769.9" width="18.7" height="18.7"/>
				</g>
			</g>
			<g transform="translate(525,805) scale(0.35,0.35)">
				<g transform="">
					<rect x="129" y="-1769.9" width="18.7" height="18.7"/>
				</g>
			</g>
			<g transform="translate(630,805) scale(0.35,0.35)">
				<g transform="">
					<rect x="-114.8" y="-1769.9" width="18.7" height="18.7"/>
				</g>
			</g>
			<g transform="translate(700,805) scale(0.35,0.35)">
				<g transform="">
					<rect x="-277.4" y="-1769.9" width="18.7" height="18.7"/>
				</g>
			</g>
			<g transform="translate(840,805) scale(0.35,0.35)">
				<g transform="">
					<rect x="-602.4" y="-1769.9" width="18.7" height="18.7"/>
				</g>
			</g>
			<g transform="translate(875,805) scale(0.35,0.35)">
				<g transform="">
					<rect x="-683.7" y="-1769.9" width="18.7" height="18.7"/>
				</g>
			</g>
			<g transform="translate(910,805) scale(0.35,0.35)">
				<g transform="">
					<rect x="-765" y="-1769.9" width="18.7" height="18.7"/>
				</g>
			</g>
			<g transform="translate(315,840) scale(0.35,0.35)">
				<g transform="">
					<rect x="616.6" y="-1851.2" width="18.7" height="18.7"/>
				</g>
			</g>
			<g transform="translate(350,840) scale(0.35,0.35)">
				<g transform="">
					<rect x="535.3" y="-1851.2" width="18.7" height="18.7"/>
				</g>
			</g>
			<g transform="translate(385,840) scale(0.35,0.35)">
				<g transform="">
					<rect x="454.1" y="-1851.2" width="18.7" height="18.7"/>
				</g>
			</g>
			<g transform="translate(420,840) scale(0.35,0.35)">
				<g transform="">
					<rect x="372.8" y="-1851.2" width="18.7" height="18.7"/>
				</g>
			</g>
			<g transform="translate(560,840) scale(0.35,0.35)">
				<g transform="">
					<rect x="47.7" y="-1851.2" width="18.7" height="18.7"/>
				</g>
			</g>
			<g transform="translate(595,840) scale(0.35,0.35)">
				<g transform="">
					<rect x="-33.6" y="-1851.2" width="18.7" height="18.7"/>
				</g>
			</g>
			<g transform="translate(630,840) scale(0.35,0.35)">
				<g transform="">
					<rect x="-114.8" y="-1851.2" width="18.7" height="18.7"/>
				</g>
			</g>
			<g transform="translate(700,840) scale(0.35,0.35)">
				<g transform="">
					<rect x="-277.4" y="-1851.2" width="18.7" height="18.7"/>
				</g>
			</g>
			<g transform="translate(735,840) scale(0.35,0.35)">
				<g transform="">
					<rect x="-358.6" y="-1851.2" width="18.7" height="18.7"/>
				</g>
			</g>
			<g transform="translate(770,840) scale(0.35,0.35)">
				<g transform="">
					<rect x="-439.9" y="-1851.2" width="18.7" height="18.7"/>
				</g>
			</g>
			<g transform="translate(805,840) scale(0.35,0.35)">
				<g transform="">
					<rect x="-521.2" y="-1851.2" width="18.7" height="18.7"/>
				</g>
			</g>
			<g transform="translate(840,840) scale(0.35,0.35)">
				<g transform="">
					<rect x="-602.4" y="-1851.2" width="18.7" height="18.7"/>
				</g>
			</g>
			<g transform="translate(945,840) scale(0.35,0.35)">
				<g transform="">
					<rect x="-846.2" y="-1851.2" width="18.7" height="18.7"/>
				</g>
			</g>
			<g transform="translate(280,875) scale(0.35,0.35)">
				<g transform="">
					<rect x="697.9" y="-1932.5" width="18.7" height="18.7"/>
				</g>
			</g>
			<g transform="translate(315,875) scale(0.35,0.35)">
				<g transform="">
					<rect x="616.6" y="-1932.5" width="18.7" height="18.7"/>
				</g>
			</g>
			<g transform="translate(455,875) scale(0.35,0.35)">
				<g transform="">
					<rect x="291.5" y="-1932.5" width="18.7" height="18.7"/>
				</g>
			</g>
			<g transform="translate(525,875) scale(0.35,0.35)">
				<g transform="">
					<rect x="129" y="-1932.5" width="18.7" height="18.7"/>
				</g>
			</g>
			<g transform="translate(665,875) scale(0.35,0.35)">
				<g transform="">
					<rect x="-196.1" y="-1932.5" width="18.7" height="18.7"/>
				</g>
			</g>
			<g transform="translate(770,875) scale(0.35,0.35)">
				<g transform="">
					<rect x="-439.9" y="-1932.5" width="18.7" height="18.7"/>
				</g>
			</g>
			<g transform="translate(805,875) scale(0.35,0.35)">
				<g transform="">
					<rect x="-521.2" y="-1932.5" width="18.7" height="18.7"/>
				</g>
			</g>
			<g transform="translate(840,875) scale(0.35,0.35)">
				<g transform="">
					<rect x="-602.4" y="-1932.5" width="18.7" height="18.7"/>
				</g>
			</g>
			<g transform="translate(875,875) scale(0.35,0.35)">
				<g transform="">
					<rect x="-683.7" y="-1932.5" width="18.7" height="18.7"/>
				</g>
			</g>
			<g transform="translate(910,875) scale(0.35,0.35)">
				<g transform="">
					<rect x="-765" y="-1932.5" width="18.7" height="18.7"/>
				</g>
			</g>
			<g transform="translate(980,875) scale(0.35,0.35)">
				<g transform="">
					<rect x="-927.5" y="-1932.5" width="18.7" height="18.7"/>
				</g>
			</g>
			<g transform="translate(315,910) scale(0.35,0.35)">
				<g transform="">
					<rect x="616.6" y="-2013.7" width="18.7" height="18.7"/>
				</g>
			</g>
			<g transform="translate(350,910) scale(0.35,0.35)">
				<g transform="">
					<rect x="535.3" y="-2013.7" width="18.7" height="18.7"/>
				</g>
			</g>
			<g transform="translate(385,910) scale(0.35,0.35)">
				<g transform="">
					<rect x="454.1" y="-2013.7" width="18.7" height="18.7"/>
				</g>
			</g>
			<g transform="translate(420,910) scale(0.35,0.35)">
				<g transform="">
					<rect x="372.8" y="-2013.7" width="18.7" height="18.7"/>
				</g>
			</g>
			<g transform="translate(455,910) scale(0.35,0.35)">
				<g transform="">
					<rect x="291.5" y="-2013.7" width="18.7" height="18.7"/>
				</g>
			</g>
			<g transform="translate(525,910) scale(0.35,0.35)">
				<g transform="">
					<rect x="129" y="-2013.7" width="18.7" height="18.7"/>
				</g>
			</g>
			<g transform="translate(560,910) scale(0.35,0.35)">
				<g transform="">
					<rect x="47.7" y="-2013.7" width="18.7" height="18.7"/>
				</g>
			</g>
			<g transform="translate(665,910) scale(0.35,0.35)">
				<g transform="">
					<rect x="-196.1" y="-2013.7" width="18.7" height="18.7"/>
				</g>
			</g>
			<g transform="translate(700,910) scale(0.35,0.35)">
				<g transform="">
					<rect x="-277.4" y="-2013.7" width="18.7" height="18.7"/>
				</g>
			</g>
			<g transform="translate(735,910) scale(0.35,0.35)">
				<g transform="">
					<rect x="-358.6" y="-2013.7" width="18.7" height="18.7"/>
				</g>
			</g>
			<g transform="translate(840,910) scale(0.35,0.35)">
				<g transform="">
					<rect x="-602.4" y="-2013.7" width="18.7" height="18.7"/>
				</g>
			</g>
			<g transform="translate(875,910) scale(0.35,0.35)">
				<g transform="">
					<rect x="-683.7" y="-2013.7" width="18.7" height="18.7"/>
				</g>
			</g>
			<g transform="translate(910,910) scale(0.35,0.35)">
				<g transform="">
					<rect x="-765" y="-2013.7" width="18.7" height="18.7"/>
				</g>
			</g>
			<g transform="translate(980,910) scale(0.35,0.35)">
				<g transform="">
					<rect x="-927.5" y="-2013.7" width="18.7" height="18.7"/>
				</g>
			</g>
			<g transform="translate(350,945) scale(0.35,0.35)">
				<g transform="">
					<rect x="535.3" y="-2095" width="18.7" height="18.7"/>
				</g>
			</g>
			<g transform="translate(385,945) scale(0.35,0.35)">
				<g transform="">
					<rect x="454.1" y="-2095" width="18.7" height="18.7"/>
				</g>
			</g>
			<g transform="translate(420,945) scale(0.35,0.35)">
				<g transform="">
					<rect x="372.8" y="-2095" width="18.7" height="18.7"/>
				</g>
			</g>
			<g transform="translate(455,945) scale(0.35,0.35)">
				<g transform="">
					<rect x="291.5" y="-2095" width="18.7" height="18.7"/>
				</g>
			</g>
			<g transform="translate(560,945) scale(0.35,0.35)">
				<g transform="">
					<rect x="47.7" y="-2095" width="18.7" height="18.7"/>
				</g>
			</g>
			<g transform="translate(595,945) scale(0.35,0.35)">
				<g transform="">
					<rect x="-33.6" y="-2095" width="18.7" height="18.7"/>
				</g>
			</g>
			<g transform="translate(630,945) scale(0.35,0.35)">
				<g transform="">
					<rect x="-114.8" y="-2095" width="18.7" height="18.7"/>
				</g>
			</g>
			<g transform="translate(665,945) scale(0.35,0.35)">
				<g transform="">
					<rect x="-196.1" y="-2095" width="18.7" height="18.7"/>
				</g>
			</g>
			<g transform="translate(700,945) scale(0.35,0.35)">
				<g transform="">
					<rect x="-277.4" y="-2095" width="18.7" height="18.7"/>
				</g>
			</g>
			<g transform="translate(735,945) scale(0.35,0.35)">
				<g transform="">
					<rect x="-358.6" y="-2095" width="18.7" height="18.7"/>
				</g>
			</g>
			<g transform="translate(805,945) scale(0.35,0.35)">
				<g transform="">
					<rect x="-521.2" y="-2095" width="18.7" height="18.7"/>
				</g>
			</g>
			<g transform="translate(945,945) scale(0.35,0.35)">
				<g transform="">
					<rect x="-846.2" y="-2095" width="18.7" height="18.7"/>
				</g>
			</g>
			<g transform="translate(280,980) scale(0.35,0.35)">
				<g transform="">
					<rect x="697.9" y="-2176.3" width="18.7" height="18.7"/>
				</g>
			</g>
			<g transform="translate(350,980) scale(0.35,0.35)">
				<g transform="">
					<rect x="535.3" y="-2176.3" width="18.7" height="18.7"/>
				</g>
			</g>
			<g transform="translate(385,980) scale(0.35,0.35)">
				<g transform="">
					<rect x="454.1" y="-2176.3" width="18.7" height="18.7"/>
				</g>
			</g>
			<g transform="translate(420,980) scale(0.35,0.35)">
				<g transform="">
					<rect x="372.8" y="-2176.3" width="18.7" height="18.7"/>
				</g>
			</g>
			<g transform="translate(455,980) scale(0.35,0.35)">
				<g transform="">
					<rect x="291.5" y="-2176.3" width="18.7" height="18.7"/>
				</g>
			</g>
			<g transform="translate(490,980) scale(0.35,0.35)">
				<g transform="">
					<rect x="210.3" y="-2176.3" width="18.7" height="18.7"/>
				</g>
			</g>
			<g transform="translate(525,980) scale(0.35,0.35)">
				<g transform="">
					<rect x="129" y="-2176.3" width="18.7" height="18.7"/>
				</g>
			</g>
			<g transform="translate(630,980) scale(0.35,0.35)">
				<g transform="">
					<rect x="-114.8" y="-2176.3" width="18.7" height="18.7"/>
				</g>
			</g>
			<g transform="translate(700,980) scale(0.35,0.35)">
				<g transform="">
					<rect x="-277.4" y="-2176.3" width="18.7" height="18.7"/>
				</g>
			</g>
			<g transform="translate(805,980) scale(0.35,0.35)">
				<g transform="">
					<rect x="-521.2" y="-2176.3" width="18.7" height="18.7"/>
				</g>
			</g>
			<g transform="translate(840,980) scale(0.35,0.35)">
				<g transform="">
					<rect x="-602.4" y="-2176.3" width="18.7" height="18.7"/>
				</g>
			</g>
			<g transform="translate(875,980) scale(0.35,0.35)">
				<g transform="">
					<rect x="-683.7" y="-2176.3" width="18.7" height="18.7"/>
				</g>
			</g>
			<g transform="translate(945,980) scale(0.35,0.35)">
				<g transform="">
					<rect x="-846.2" y="-2176.3" width="18.7" height="18.7"/>
				</g>
			</g>
			<g transform="translate(0,0) scale(2.45, 2.45)">
				<g transform="">
					<g>
						<rect x="195.4" y="17" class="st12" width="13.1" height="13.1"/>
						<path d="M208.5,14.2h-13.1h-2.8V17v13.1v2.8h2.8h13.1h2.8v-2.8V17v-2.8H208.5z M208.5,30.1h-13.1V17h13.1V30.1z"/>
					</g>
				</g>
			</g>
			<g transform="translate(770,0) scale(2.45, 2.45)">
				<g transform="">
					<g>
						<rect x="-60" y="17" class="st12" width="13.1" height="13.1"/>
						<path d="M-46.9,14.2H-60h-2.8V17v13.1v2.8h2.8h13.1h2.8v-2.8V17v-2.8H-46.9z M-46.9,30.1H-60V17h13.1V30.1z"/>
					</g>
				</g>
			</g>
			<g transform="translate(0,770) scale(2.45, 2.45)">
				<g transform="">
					<g>
						<rect x="195.4" y="-238.4" class="st12" width="13.1" height="13.1"/>
						<path d="M208.5-241.2h-13.1h-2.8v2.8v13.1v2.8h2.8h13.1h2.8v-2.8v-13.1v-2.8H208.5z M208.5-225.3h-13.1v-13.1h13.1V-225.3z"/>
					</g>
				</g>
			</g>
			<g transform="translate(70,70) scale(1.05, 1.05)">
				<g transform="">
					<rect x="395.2" y="-21.1" width="18.7" height="18.7"/>
				</g>
			</g>
			<g transform="translate(840,70) scale(1.05, 1.05)">
				<g transform="">
					<rect x="-200.8" y="-21.1" width="18.7" height="18.7"/>
				</g>
			</g>
			<g transform="translate(70,840) scale(1.05, 1.05)">
				<g transform="">
					<rect x="395.2" y="-617.1" width="18.7" height="18.7"/>
				</g>
			</g>
		</g>
	</g>
	<path class="st13" d="M727.1,316.5H546.6c-14.6,0-26.5-11.9-26.5-26.5V109.6c0-14.6,11.9-26.5,26.5-26.5h180.5
		c14.6,0,26.5,11.9,26.5,26.5v180.5C753.6,304.7,741.8,316.5,727.1,316.5z"/>
</g>
<g>
	<rect x="0" y="464.9" class="st3" width="801.7" height="53.8"/>
	<polygon class="st8" points="456.8,518.8 801.7,518.8 801.7,429 412.7,429 	"/>
	<polygon class="st2" points="412.7,429 384,464.9 430.4,464.9 	"/>
	<polygon class="st8" points="355.3,518.8 295.8,518.8 251.7,429 311.2,429 	"/>
	<polygon class="st2" points="251.7,429 223,464.9 269.4,464.9 	"/>
</g>
<g>
	<polyline class="st14" points="627.7,351.7 636.9,342.5 646.1,351.7 	"/>
	<g>
		<rect x="611" y="378.9" class="st14" width="51.7" height="2.5"/>
	</g>
	<g>
		<polyline class="st13" points="657,388.7 657,399.5 646.1,399.5 		"/>
		<polyline class="st13" points="616.7,388.7 616.7,399.5 627.6,399.5 		"/>
	</g>
	<g>
		<polyline class="st13" points="657,371.8 657,361.1 646.1,361.1 		"/>
		<polyline class="st13" points="616.7,371.8 616.7,361.1 627.6,361.1 		"/>
	</g>
</g>
</svg>
