<?xml version="1.0" encoding="utf-8"?>
<!-- Generator: Adobe Illustrator 26.4.1, SVG Export Plug-In . SVG Version: 6.00 Build 0)  -->
<svg version="1.1" id="Layer_1" xmlns="http://www.w3.org/2000/svg" xmlns:xlink="http://www.w3.org/1999/xlink" x="0px" y="0px"
	 viewBox="0 0 801.7 518.8" style="enable-background:new 0 0 801.7 518.8;" xml:space="preserve">
<style type="text/css">
	.st0{fill:#FFFFFF;}
	.st1{fill:none;}
	.st2{fill:#1A1A36;}
	.st3{font-family:'Impact';}
	.st4{font-size:54.7896px;}
	.st5{fill:#555EA6;}
	.st6{opacity:0.7;}
	.st7{font-family:'Montserrat-Regular';}
	.st8{font-size:30.0888px;}
	.st9{fill:#FBBF1B;}
	.st10{fill:#555FA7;}
	.st11{opacity:0.3;clip-path:url(#SVGID_00000003103858756966837930000014740278198641513366_);}
	.st12{clip-path:url(#SVGID_00000137814560894499997610000004694054098348903044_);}
	.st13{fill:none;stroke:#FBBF1B;stroke-width:6.655;stroke-miterlimit:10;}
	.st14{fill:none;stroke:#FFFFFF;stroke-width:6.655;stroke-miterlimit:10;}
</style>
<rect class="st0" width="801.7" height="518.8"/>
<rect class="st1" width="801.7" height="518.8"/>
<text transform="matrix(1 0 0 1 523.0869 219.1143)"><tspan x="0" y="0" class="st2 st3 st4">Your </tspan><tspan x="111.8" y="0" class="st5 st3 st4">Name</tspan></text>
<g class="st6">
	<text transform="matrix(1 0 0 1 619.1074 254.9648)" class="st2 st7 st8">Manager</text>
</g>
<g>
	<g transform="translate(70,70)">
		<g transform="translate(350,0) scale(0.35,0.35)">
			<g transform="">
				<rect x="637.4" y="672.8" width="16.7" height="16.7"/>
			</g>
		</g>
		<g transform="translate(385,0) scale(0.35,0.35)">
			<g transform="">
				<rect x="554.2" y="672.8" width="16.7" height="16.7"/>
			</g>
		</g>
		<g transform="translate(490,0) scale(0.35,0.35)">
			<g transform="">
				<rect x="304.3" y="672.8" width="16.7" height="16.7"/>
			</g>
		</g>
		<g transform="translate(595,0) scale(0.35,0.35)">
			<g transform="">
				<rect x="54.5" y="672.8" width="16.7" height="16.7"/>
			</g>
		</g>
		<g transform="translate(630,0) scale(0.35,0.35)">
			<g transform="">
				<rect x="-28.7" y="672.8" width="16.7" height="16.7"/>
			</g>
		</g>
		<g transform="translate(665,0) scale(0.35,0.35)">
			<g transform="">
				<rect x="-112" y="672.8" width="16.7" height="16.7"/>
			</g>
		</g>
		<g transform="translate(700,0) scale(0.35,0.35)">
			<g transform="">
				<rect x="-195.3" y="672.8" width="16.7" height="16.7"/>
			</g>
		</g>
		<g transform="translate(315,35) scale(0.35,0.35)">
			<g transform="">
				<rect x="720.7" y="589.6" width="16.7" height="16.7"/>
			</g>
		</g>
		<g transform="translate(350,35) scale(0.35,0.35)">
			<g transform="">
				<rect x="637.4" y="589.6" width="16.7" height="16.7"/>
			</g>
		</g>
		<g transform="translate(385,35) scale(0.35,0.35)">
			<g transform="">
				<rect x="554.2" y="589.6" width="16.7" height="16.7"/>
			</g>
		</g>
		<g transform="translate(420,35) scale(0.35,0.35)">
			<g transform="">
				<rect x="470.9" y="589.6" width="16.7" height="16.7"/>
			</g>
		</g>
		<g transform="translate(560,35) scale(0.35,0.35)">
			<g transform="">
				<rect x="137.8" y="589.6" width="16.7" height="16.7"/>
			</g>
		</g>
		<g transform="translate(630,35) scale(0.35,0.35)">
			<g transform="">
				<rect x="-28.7" y="589.6" width="16.7" height="16.7"/>
			</g>
		</g>
		<g transform="translate(420,70) scale(0.35,0.35)">
			<g transform="">
				<rect x="470.9" y="506.3" width="16.7" height="16.7"/>
			</g>
		</g>
		<g transform="translate(490,70) scale(0.35,0.35)">
			<g transform="">
				<rect x="304.3" y="506.3" width="16.7" height="16.7"/>
			</g>
		</g>
		<g transform="translate(525,70) scale(0.35,0.35)">
			<g transform="">
				<rect x="221.1" y="506.3" width="16.7" height="16.7"/>
			</g>
		</g>
		<g transform="translate(595,70) scale(0.35,0.35)">
			<g transform="">
				<rect x="54.5" y="506.3" width="16.7" height="16.7"/>
			</g>
		</g>
		<g transform="translate(630,70) scale(0.35,0.35)">
			<g transform="">
				<rect x="-28.7" y="506.3" width="16.7" height="16.7"/>
			</g>
		</g>
		<g transform="translate(700,70) scale(0.35,0.35)">
			<g transform="">
				<rect x="-195.3" y="506.3" width="16.7" height="16.7"/>
			</g>
		</g>
		<g transform="translate(315,105) scale(0.35,0.35)">
			<g transform="">
				<rect x="720.7" y="423" width="16.7" height="16.7"/>
			</g>
		</g>
		<g transform="translate(350,105) scale(0.35,0.35)">
			<g transform="">
				<rect x="637.4" y="423" width="16.7" height="16.7"/>
			</g>
		</g>
		<g transform="translate(385,105) scale(0.35,0.35)">
			<g transform="">
				<rect x="554.2" y="423" width="16.7" height="16.7"/>
			</g>
		</g>
		<g transform="translate(420,105) scale(0.35,0.35)">
			<g transform="">
				<rect x="470.9" y="423" width="16.7" height="16.7"/>
			</g>
		</g>
		<g transform="translate(455,105) scale(0.35,0.35)">
			<g transform="">
				<rect x="387.6" y="423" width="16.7" height="16.7"/>
			</g>
		</g>
		<g transform="translate(560,105) scale(0.35,0.35)">
			<g transform="">
				<rect x="137.8" y="423" width="16.7" height="16.7"/>
			</g>
		</g>
		<g transform="translate(630,105) scale(0.35,0.35)">
			<g transform="">
				<rect x="-28.7" y="423" width="16.7" height="16.7"/>
			</g>
		</g>
		<g transform="translate(665,105) scale(0.35,0.35)">
			<g transform="">
				<rect x="-112" y="423" width="16.7" height="16.7"/>
			</g>
		</g>
		<g transform="translate(700,105) scale(0.35,0.35)">
			<g transform="">
				<rect x="-195.3" y="423" width="16.7" height="16.7"/>
			</g>
		</g>
		<g transform="translate(315,140) scale(0.35,0.35)">
			<g transform="">
				<rect x="720.7" y="339.7" width="16.7" height="16.7"/>
			</g>
		</g>
		<g transform="translate(350,140) scale(0.35,0.35)">
			<g transform="">
				<rect x="637.4" y="339.7" width="16.7" height="16.7"/>
			</g>
		</g>
		<g transform="translate(630,140) scale(0.35,0.35)">
			<g transform="">
				<rect x="-28.7" y="339.7" width="16.7" height="16.7"/>
			</g>
		</g>
		<g transform="translate(280,175) scale(0.35,0.35)">
			<g transform="">
				<rect x="804" y="256.5" width="16.7" height="16.7"/>
			</g>
		</g>
		<g transform="translate(315,175) scale(0.35,0.35)">
			<g transform="">
				<rect x="720.7" y="256.5" width="16.7" height="16.7"/>
			</g>
		</g>
		<g transform="translate(350,175) scale(0.35,0.35)">
			<g transform="">
				<rect x="637.4" y="256.5" width="16.7" height="16.7"/>
			</g>
		</g>
		<g transform="translate(525,175) scale(0.35,0.35)">
			<g transform="">
				<rect x="221.1" y="256.5" width="16.7" height="16.7"/>
			</g>
		</g>
		<g transform="translate(560,175) scale(0.35,0.35)">
			<g transform="">
				<rect x="137.8" y="256.5" width="16.7" height="16.7"/>
			</g>
		</g>
		<g transform="translate(595,175) scale(0.35,0.35)">
			<g transform="">
				<rect x="54.5" y="256.5" width="16.7" height="16.7"/>
			</g>
		</g>
		<g transform="translate(665,175) scale(0.35,0.35)">
			<g transform="">
				<rect x="-112" y="256.5" width="16.7" height="16.7"/>
			</g>
		</g>
		<g transform="translate(280,210) scale(0.35,0.35)">
			<g transform="">
				<rect x="804" y="173.2" width="16.7" height="16.7"/>
			</g>
		</g>
		<g transform="translate(350,210) scale(0.35,0.35)">
			<g transform="">
				<rect x="637.4" y="173.2" width="16.7" height="16.7"/>
			</g>
		</g>
		<g transform="translate(420,210) scale(0.35,0.35)">
			<g transform="">
				<rect x="470.9" y="173.2" width="16.7" height="16.7"/>
			</g>
		</g>
		<g transform="translate(490,210) scale(0.35,0.35)">
			<g transform="">
				<rect x="304.3" y="173.2" width="16.7" height="16.7"/>
			</g>
		</g>
		<g transform="translate(560,210) scale(0.35,0.35)">
			<g transform="">
				<rect x="137.8" y="173.2" width="16.7" height="16.7"/>
			</g>
		</g>
		<g transform="translate(630,210) scale(0.35,0.35)">
			<g transform="">
				<rect x="-28.7" y="173.2" width="16.7" height="16.7"/>
			</g>
		</g>
		<g transform="translate(700,210) scale(0.35,0.35)">
			<g transform="">
				<rect x="-195.3" y="173.2" width="16.7" height="16.7"/>
			</g>
		</g>
		<g transform="translate(455,245) scale(0.35,0.35)">
			<g transform="">
				<rect x="387.6" y="89.9" width="16.7" height="16.7"/>
			</g>
		</g>
		<g transform="translate(525,245) scale(0.35,0.35)">
			<g transform="">
				<rect x="221.1" y="89.9" width="16.7" height="16.7"/>
			</g>
		</g>
		<g transform="translate(560,245) scale(0.35,0.35)">
			<g transform="">
				<rect x="137.8" y="89.9" width="16.7" height="16.7"/>
			</g>
		</g>
		<g transform="translate(595,245) scale(0.35,0.35)">
			<g transform="">
				<rect x="54.5" y="89.9" width="16.7" height="16.7"/>
			</g>
		</g>
		<g transform="translate(630,245) scale(0.35,0.35)">
			<g transform="">
				<rect x="-28.7" y="89.9" width="16.7" height="16.7"/>
			</g>
		</g>
		<g transform="translate(700,245) scale(0.35,0.35)">
			<g transform="">
				<rect x="-195.3" y="89.9" width="16.7" height="16.7"/>
			</g>
		</g>
		<g transform="translate(0,280) scale(0.35,0.35)">
			<g transform="">
				<rect x="1470.2" y="6.6" width="16.7" height="16.7"/>
			</g>
		</g>
		<g transform="translate(105,280) scale(0.35,0.35)">
			<g transform="">
				<rect x="1220.3" y="6.6" width="16.7" height="16.7"/>
			</g>
		</g>
		<g transform="translate(175,280) scale(0.35,0.35)">
			<g transform="">
				<rect x="1053.8" y="6.6" width="16.7" height="16.7"/>
			</g>
		</g>
		<g transform="translate(210,280) scale(0.35,0.35)">
			<g transform="">
				<rect x="970.5" y="6.6" width="16.7" height="16.7"/>
			</g>
		</g>
		<g transform="translate(280,280) scale(0.35,0.35)">
			<g transform="">
				<rect x="804" y="6.6" width="16.7" height="16.7"/>
			</g>
		</g>
		<g transform="translate(315,280) scale(0.35,0.35)">
			<g transform="">
				<rect x="720.7" y="6.6" width="16.7" height="16.7"/>
			</g>
		</g>
		<g transform="translate(420,280) scale(0.35,0.35)">
			<g transform="">
				<rect x="470.9" y="6.6" width="16.7" height="16.7"/>
			</g>
		</g>
		<g transform="translate(490,280) scale(0.35,0.35)">
			<g transform="">
				<rect x="304.3" y="6.6" width="16.7" height="16.7"/>
			</g>
		</g>
		<g transform="translate(560,280) scale(0.35,0.35)">
			<g transform="">
				<rect x="137.8" y="6.6" width="16.7" height="16.7"/>
			</g>
		</g>
		<g transform="translate(735,280) scale(0.35,0.35)">
			<g transform="">
				<rect x="-278.6" y="6.6" width="16.7" height="16.7"/>
			</g>
		</g>
		<g transform="translate(805,280) scale(0.35,0.35)">
			<g transform="">
				<rect x="-445.1" y="6.6" width="16.7" height="16.7"/>
			</g>
		</g>
		<g transform="translate(0,315) scale(0.35,0.35)">
			<g transform="">
				<rect x="1470.2" y="-76.6" width="16.7" height="16.7"/>
			</g>
		</g>
		<g transform="translate(35,315) scale(0.35,0.35)">
			<g transform="">
				<rect x="1386.9" y="-76.6" width="16.7" height="16.7"/>
			</g>
		</g>
		<g transform="translate(70,315) scale(0.35,0.35)">
			<g transform="">
				<rect x="1303.6" y="-76.6" width="16.7" height="16.7"/>
			</g>
		</g>
		<g transform="translate(315,315) scale(0.35,0.35)">
			<g transform="">
				<rect x="720.7" y="-76.6" width="16.7" height="16.7"/>
			</g>
		</g>
		<g transform="translate(455,315) scale(0.35,0.35)">
			<g transform="">
				<rect x="387.6" y="-76.6" width="16.7" height="16.7"/>
			</g>
		</g>
		<g transform="translate(525,315) scale(0.35,0.35)">
			<g transform="">
				<rect x="221.1" y="-76.6" width="16.7" height="16.7"/>
			</g>
		</g>
		<g transform="translate(560,315) scale(0.35,0.35)">
			<g transform="">
				<rect x="137.8" y="-76.6" width="16.7" height="16.7"/>
			</g>
		</g>
		<g transform="translate(700,315) scale(0.35,0.35)">
			<g transform="">
				<rect x="-195.3" y="-76.6" width="16.7" height="16.7"/>
			</g>
		</g>
		<g transform="translate(735,315) scale(0.35,0.35)">
			<g transform="">
				<rect x="-278.6" y="-76.6" width="16.7" height="16.7"/>
			</g>
		</g>
		<g transform="translate(770,315) scale(0.35,0.35)">
			<g transform="">
				<rect x="-361.8" y="-76.6" width="16.7" height="16.7"/>
			</g>
		</g>
		<g transform="translate(875,315) scale(0.35,0.35)">
			<g transform="">
				<rect x="-611.7" y="-76.6" width="16.7" height="16.7"/>
			</g>
		</g>
		<g transform="translate(980,315) scale(0.35,0.35)">
			<g transform="">
				<rect x="-861.5" y="-76.6" width="16.7" height="16.7"/>
			</g>
		</g>
		<g transform="translate(0,350) scale(0.35,0.35)">
			<g transform="">
				<rect x="1470.2" y="-159.9" width="16.7" height="16.7"/>
			</g>
		</g>
		<g transform="translate(105,350) scale(0.35,0.35)">
			<g transform="">
				<rect x="1220.3" y="-159.9" width="16.7" height="16.7"/>
			</g>
		</g>
		<g transform="translate(210,350) scale(0.35,0.35)">
			<g transform="">
				<rect x="970.5" y="-159.9" width="16.7" height="16.7"/>
			</g>
		</g>
		<g transform="translate(280,350) scale(0.35,0.35)">
			<g transform="">
				<rect x="804" y="-159.9" width="16.7" height="16.7"/>
			</g>
		</g>
		<g transform="translate(385,350) scale(0.35,0.35)">
			<g transform="">
				<rect x="554.2" y="-159.9" width="16.7" height="16.7"/>
			</g>
		</g>
		<g transform="translate(455,350) scale(0.35,0.35)">
			<g transform="">
				<rect x="387.6" y="-159.9" width="16.7" height="16.7"/>
			</g>
		</g>
		<g transform="translate(490,350) scale(0.35,0.35)">
			<g transform="">
				<rect x="304.3" y="-159.9" width="16.7" height="16.7"/>
			</g>
		</g>
		<g transform="translate(525,350) scale(0.35,0.35)">
			<g transform="">
				<rect x="221.1" y="-159.9" width="16.7" height="16.7"/>
			</g>
		</g>
		<g transform="translate(630,350) scale(0.35,0.35)">
			<g transform="">
				<rect x="-28.7" y="-159.9" width="16.7" height="16.7"/>
			</g>
		</g>
		<g transform="translate(665,350) scale(0.35,0.35)">
			<g transform="">
				<rect x="-112" y="-159.9" width="16.7" height="16.7"/>
			</g>
		</g>
		<g transform="translate(770,350) scale(0.35,0.35)">
			<g transform="">
				<rect x="-361.8" y="-159.9" width="16.7" height="16.7"/>
			</g>
		</g>
		<g transform="translate(875,350) scale(0.35,0.35)">
			<g transform="">
				<rect x="-611.7" y="-159.9" width="16.7" height="16.7"/>
			</g>
		</g>
		<g transform="translate(910,350) scale(0.35,0.35)">
			<g transform="">
				<rect x="-694.9" y="-159.9" width="16.7" height="16.7"/>
			</g>
		</g>
		<g transform="translate(945,350) scale(0.35,0.35)">
			<g transform="">
				<rect x="-778.2" y="-159.9" width="16.7" height="16.7"/>
			</g>
		</g>
		<g transform="translate(70,385) scale(0.35,0.35)">
			<g transform="">
				<rect x="1303.6" y="-243.2" width="16.7" height="16.7"/>
			</g>
		</g>
		<g transform="translate(105,385) scale(0.35,0.35)">
			<g transform="">
				<rect x="1220.3" y="-243.2" width="16.7" height="16.7"/>
			</g>
		</g>
		<g transform="translate(140,385) scale(0.35,0.35)">
			<g transform="">
				<rect x="1137.1" y="-243.2" width="16.7" height="16.7"/>
			</g>
		</g>
		<g transform="translate(245,385) scale(0.35,0.35)">
			<g transform="">
				<rect x="887.3" y="-243.2" width="16.7" height="16.7"/>
			</g>
		</g>
		<g transform="translate(280,385) scale(0.35,0.35)">
			<g transform="">
				<rect x="804" y="-243.2" width="16.7" height="16.7"/>
			</g>
		</g>
		<g transform="translate(315,385) scale(0.35,0.35)">
			<g transform="">
				<rect x="720.7" y="-243.2" width="16.7" height="16.7"/>
			</g>
		</g>
		<g transform="translate(350,385) scale(0.35,0.35)">
			<g transform="">
				<rect x="637.4" y="-243.2" width="16.7" height="16.7"/>
			</g>
		</g>
		<g transform="translate(420,385) scale(0.35,0.35)">
			<g transform="">
				<rect x="470.9" y="-243.2" width="16.7" height="16.7"/>
			</g>
		</g>
		<g transform="translate(455,385) scale(0.35,0.35)">
			<g transform="">
				<rect x="387.6" y="-243.2" width="16.7" height="16.7"/>
			</g>
		</g>
		<g transform="translate(560,385) scale(0.35,0.35)">
			<g transform="">
				<rect x="137.8" y="-243.2" width="16.7" height="16.7"/>
			</g>
		</g>
		<g transform="translate(700,385) scale(0.35,0.35)">
			<g transform="">
				<rect x="-195.3" y="-243.2" width="16.7" height="16.7"/>
			</g>
		</g>
		<g transform="translate(735,385) scale(0.35,0.35)">
			<g transform="">
				<rect x="-278.6" y="-243.2" width="16.7" height="16.7"/>
			</g>
		</g>
		<g transform="translate(805,385) scale(0.35,0.35)">
			<g transform="">
				<rect x="-445.1" y="-243.2" width="16.7" height="16.7"/>
			</g>
		</g>
		<g transform="translate(840,385) scale(0.35,0.35)">
			<g transform="">
				<rect x="-528.4" y="-243.2" width="16.7" height="16.7"/>
			</g>
		</g>
		<g transform="translate(910,385) scale(0.35,0.35)">
			<g transform="">
				<rect x="-694.9" y="-243.2" width="16.7" height="16.7"/>
			</g>
		</g>
		<g transform="translate(945,385) scale(0.35,0.35)">
			<g transform="">
				<rect x="-778.2" y="-243.2" width="16.7" height="16.7"/>
			</g>
		</g>
		<g transform="translate(35,420) scale(0.35,0.35)">
			<g transform="">
				<rect x="1386.9" y="-326.4" width="16.7" height="16.7"/>
			</g>
		</g>
		<g transform="translate(105,420) scale(0.35,0.35)">
			<g transform="">
				<rect x="1220.3" y="-326.4" width="16.7" height="16.7"/>
			</g>
		</g>
		<g transform="translate(175,420) scale(0.35,0.35)">
			<g transform="">
				<rect x="1053.8" y="-326.4" width="16.7" height="16.7"/>
			</g>
		</g>
		<g transform="translate(210,420) scale(0.35,0.35)">
			<g transform="">
				<rect x="970.5" y="-326.4" width="16.7" height="16.7"/>
			</g>
		</g>
		<g transform="translate(245,420) scale(0.35,0.35)">
			<g transform="">
				<rect x="887.3" y="-326.4" width="16.7" height="16.7"/>
			</g>
		</g>
		<g transform="translate(385,420) scale(0.35,0.35)">
			<g transform="">
				<rect x="554.2" y="-326.4" width="16.7" height="16.7"/>
			</g>
		</g>
		<g transform="translate(490,420) scale(0.35,0.35)">
			<g transform="">
				<rect x="304.3" y="-326.4" width="16.7" height="16.7"/>
			</g>
		</g>
		<g transform="translate(525,420) scale(0.35,0.35)">
			<g transform="">
				<rect x="221.1" y="-326.4" width="16.7" height="16.7"/>
			</g>
		</g>
		<g transform="translate(595,420) scale(0.35,0.35)">
			<g transform="">
				<rect x="54.5" y="-326.4" width="16.7" height="16.7"/>
			</g>
		</g>
		<g transform="translate(630,420) scale(0.35,0.35)">
			<g transform="">
				<rect x="-28.7" y="-326.4" width="16.7" height="16.7"/>
			</g>
		</g>
		<g transform="translate(665,420) scale(0.35,0.35)">
			<g transform="">
				<rect x="-112" y="-326.4" width="16.7" height="16.7"/>
			</g>
		</g>
		<g transform="translate(700,420) scale(0.35,0.35)">
			<g transform="">
				<rect x="-195.3" y="-326.4" width="16.7" height="16.7"/>
			</g>
		</g>
		<g transform="translate(735,420) scale(0.35,0.35)">
			<g transform="">
				<rect x="-278.6" y="-326.4" width="16.7" height="16.7"/>
			</g>
		</g>
		<g transform="translate(770,420) scale(0.35,0.35)">
			<g transform="">
				<rect x="-361.8" y="-326.4" width="16.7" height="16.7"/>
			</g>
		</g>
		<g transform="translate(875,420) scale(0.35,0.35)">
			<g transform="">
				<rect x="-611.7" y="-326.4" width="16.7" height="16.7"/>
			</g>
		</g>
		<g transform="translate(945,420) scale(0.35,0.35)">
			<g transform="">
				<rect x="-778.2" y="-326.4" width="16.7" height="16.7"/>
			</g>
		</g>
		<g transform="translate(980,420) scale(0.35,0.35)">
			<g transform="">
				<rect x="-861.5" y="-326.4" width="16.7" height="16.7"/>
			</g>
		</g>
		<g transform="translate(0,455) scale(0.35,0.35)">
			<g transform="">
				<rect x="1470.2" y="-409.7" width="16.7" height="16.7"/>
			</g>
		</g>
		<g transform="translate(35,455) scale(0.35,0.35)">
			<g transform="">
				<rect x="1386.9" y="-409.7" width="16.7" height="16.7"/>
			</g>
		</g>
		<g transform="translate(70,455) scale(0.35,0.35)">
			<g transform="">
				<rect x="1303.6" y="-409.7" width="16.7" height="16.7"/>
			</g>
		</g>
		<g transform="translate(140,455) scale(0.35,0.35)">
			<g transform="">
				<rect x="1137.1" y="-409.7" width="16.7" height="16.7"/>
			</g>
		</g>
		<g transform="translate(175,455) scale(0.35,0.35)">
			<g transform="">
				<rect x="1053.8" y="-409.7" width="16.7" height="16.7"/>
			</g>
		</g>
		<g transform="translate(245,455) scale(0.35,0.35)">
			<g transform="">
				<rect x="887.3" y="-409.7" width="16.7" height="16.7"/>
			</g>
		</g>
		<g transform="translate(280,455) scale(0.35,0.35)">
			<g transform="">
				<rect x="804" y="-409.7" width="16.7" height="16.7"/>
			</g>
		</g>
		<g transform="translate(420,455) scale(0.35,0.35)">
			<g transform="">
				<rect x="470.9" y="-409.7" width="16.7" height="16.7"/>
			</g>
		</g>
		<g transform="translate(455,455) scale(0.35,0.35)">
			<g transform="">
				<rect x="387.6" y="-409.7" width="16.7" height="16.7"/>
			</g>
		</g>
		<g transform="translate(490,455) scale(0.35,0.35)">
			<g transform="">
				<rect x="304.3" y="-409.7" width="16.7" height="16.7"/>
			</g>
		</g>
		<g transform="translate(525,455) scale(0.35,0.35)">
			<g transform="">
				<rect x="221.1" y="-409.7" width="16.7" height="16.7"/>
			</g>
		</g>
		<g transform="translate(560,455) scale(0.35,0.35)">
			<g transform="">
				<rect x="137.8" y="-409.7" width="16.7" height="16.7"/>
			</g>
		</g>
		<g transform="translate(665,455) scale(0.35,0.35)">
			<g transform="">
				<rect x="-112" y="-409.7" width="16.7" height="16.7"/>
			</g>
		</g>
		<g transform="translate(700,455) scale(0.35,0.35)">
			<g transform="">
				<rect x="-195.3" y="-409.7" width="16.7" height="16.7"/>
			</g>
		</g>
		<g transform="translate(735,455) scale(0.35,0.35)">
			<g transform="">
				<rect x="-278.6" y="-409.7" width="16.7" height="16.7"/>
			</g>
		</g>
		<g transform="translate(805,455) scale(0.35,0.35)">
			<g transform="">
				<rect x="-445.1" y="-409.7" width="16.7" height="16.7"/>
			</g>
		</g>
		<g transform="translate(70,490) scale(0.35,0.35)">
			<g transform="">
				<rect x="1303.6" y="-493" width="16.7" height="16.7"/>
			</g>
		</g>
		<g transform="translate(105,490) scale(0.35,0.35)">
			<g transform="">
				<rect x="1220.3" y="-493" width="16.7" height="16.7"/>
			</g>
		</g>
		<g transform="translate(175,490) scale(0.35,0.35)">
			<g transform="">
				<rect x="1053.8" y="-493" width="16.7" height="16.7"/>
			</g>
		</g>
		<g transform="translate(210,490) scale(0.35,0.35)">
			<g transform="">
				<rect x="970.5" y="-493" width="16.7" height="16.7"/>
			</g>
		</g>
		<g transform="translate(280,490) scale(0.35,0.35)">
			<g transform="">
				<rect x="804" y="-493" width="16.7" height="16.7"/>
			</g>
		</g>
		<g transform="translate(350,490) scale(0.35,0.35)">
			<g transform="">
				<rect x="637.4" y="-493" width="16.7" height="16.7"/>
			</g>
		</g>
		<g transform="translate(385,490) scale(0.35,0.35)">
			<g transform="">
				<rect x="554.2" y="-493" width="16.7" height="16.7"/>
			</g>
		</g>
		<g transform="translate(455,490) scale(0.35,0.35)">
			<g transform="">
				<rect x="387.6" y="-493" width="16.7" height="16.7"/>
			</g>
		</g>
		<g transform="translate(490,490) scale(0.35,0.35)">
			<g transform="">
				<rect x="304.3" y="-493" width="16.7" height="16.7"/>
			</g>
		</g>
		<g transform="translate(735,490) scale(0.35,0.35)">
			<g transform="">
				<rect x="-278.6" y="-493" width="16.7" height="16.7"/>
			</g>
		</g>
		<g transform="translate(770,490) scale(0.35,0.35)">
			<g transform="">
				<rect x="-361.8" y="-493" width="16.7" height="16.7"/>
			</g>
		</g>
		<g transform="translate(805,490) scale(0.35,0.35)">
			<g transform="">
				<rect x="-445.1" y="-493" width="16.7" height="16.7"/>
			</g>
		</g>
		<g transform="translate(875,490) scale(0.35,0.35)">
			<g transform="">
				<rect x="-611.7" y="-493" width="16.7" height="16.7"/>
			</g>
		</g>
		<g transform="translate(910,490) scale(0.35,0.35)">
			<g transform="">
				<rect x="-694.9" y="-493" width="16.7" height="16.7"/>
			</g>
		</g>
		<g transform="translate(945,490) scale(0.35,0.35)">
			<g transform="">
				<rect x="-778.2" y="-493" width="16.7" height="16.7"/>
			</g>
		</g>
		<g transform="translate(980,490) scale(0.35,0.35)">
			<g transform="">
				<rect x="-861.5" y="-493" width="16.7" height="16.7"/>
			</g>
		</g>
		<g transform="translate(35,525) scale(0.35,0.35)">
			<g transform="">
				<rect x="1386.9" y="-576.3" width="16.7" height="16.7"/>
			</g>
		</g>
		<g transform="translate(70,525) scale(0.35,0.35)">
			<g transform="">
				<rect x="1303.6" y="-576.3" width="16.7" height="16.7"/>
			</g>
		</g>
		<g transform="translate(175,525) scale(0.35,0.35)">
			<g transform="">
				<rect x="1053.8" y="-576.3" width="16.7" height="16.7"/>
			</g>
		</g>
		<g transform="translate(280,525) scale(0.35,0.35)">
			<g transform="">
				<rect x="804" y="-576.3" width="16.7" height="16.7"/>
			</g>
		</g>
		<g transform="translate(350,525) scale(0.35,0.35)">
			<g transform="">
				<rect x="637.4" y="-576.3" width="16.7" height="16.7"/>
			</g>
		</g>
		<g transform="translate(525,525) scale(0.35,0.35)">
			<g transform="">
				<rect x="221.1" y="-576.3" width="16.7" height="16.7"/>
			</g>
		</g>
		<g transform="translate(595,525) scale(0.35,0.35)">
			<g transform="">
				<rect x="54.5" y="-576.3" width="16.7" height="16.7"/>
			</g>
		</g>
		<g transform="translate(630,525) scale(0.35,0.35)">
			<g transform="">
				<rect x="-28.7" y="-576.3" width="16.7" height="16.7"/>
			</g>
		</g>
		<g transform="translate(875,525) scale(0.35,0.35)">
			<g transform="">
				<rect x="-611.7" y="-576.3" width="16.7" height="16.7"/>
			</g>
		</g>
		<g transform="translate(945,525) scale(0.35,0.35)">
			<g transform="">
				<rect x="-778.2" y="-576.3" width="16.7" height="16.7"/>
			</g>
		</g>
		<g transform="translate(0,560) scale(0.35,0.35)">
			<g transform="">
				<rect x="1470.2" y="-659.5" width="16.7" height="16.7"/>
			</g>
		</g>
		<g transform="translate(35,560) scale(0.35,0.35)">
			<g transform="">
				<rect x="1386.9" y="-659.5" width="16.7" height="16.7"/>
			</g>
		</g>
		<g transform="translate(70,560) scale(0.35,0.35)">
			<g transform="">
				<rect x="1303.6" y="-659.5" width="16.7" height="16.7"/>
			</g>
		</g>
		<g transform="translate(175,560) scale(0.35,0.35)">
			<g transform="">
				<rect x="1053.8" y="-659.5" width="16.7" height="16.7"/>
			</g>
		</g>
		<g transform="translate(210,560) scale(0.35,0.35)">
			<g transform="">
				<rect x="970.5" y="-659.5" width="16.7" height="16.7"/>
			</g>
		</g>
		<g transform="translate(245,560) scale(0.35,0.35)">
			<g transform="">
				<rect x="887.3" y="-659.5" width="16.7" height="16.7"/>
			</g>
		</g>
		<g transform="translate(280,560) scale(0.35,0.35)">
			<g transform="">
				<rect x="804" y="-659.5" width="16.7" height="16.7"/>
			</g>
		</g>
		<g transform="translate(455,560) scale(0.35,0.35)">
			<g transform="">
				<rect x="387.6" y="-659.5" width="16.7" height="16.7"/>
			</g>
		</g>
		<g transform="translate(595,560) scale(0.35,0.35)">
			<g transform="">
				<rect x="54.5" y="-659.5" width="16.7" height="16.7"/>
			</g>
		</g>
		<g transform="translate(665,560) scale(0.35,0.35)">
			<g transform="">
				<rect x="-112" y="-659.5" width="16.7" height="16.7"/>
			</g>
		</g>
		<g transform="translate(735,560) scale(0.35,0.35)">
			<g transform="">
				<rect x="-278.6" y="-659.5" width="16.7" height="16.7"/>
			</g>
		</g>
		<g transform="translate(805,560) scale(0.35,0.35)">
			<g transform="">
				<rect x="-445.1" y="-659.5" width="16.7" height="16.7"/>
			</g>
		</g>
		<g transform="translate(945,560) scale(0.35,0.35)">
			<g transform="">
				<rect x="-778.2" y="-659.5" width="16.7" height="16.7"/>
			</g>
		</g>
		<g transform="translate(35,595) scale(0.35,0.35)">
			<g transform="">
				<rect x="1386.9" y="-742.8" width="16.7" height="16.7"/>
			</g>
		</g>
		<g transform="translate(70,595) scale(0.35,0.35)">
			<g transform="">
				<rect x="1303.6" y="-742.8" width="16.7" height="16.7"/>
			</g>
		</g>
		<g transform="translate(140,595) scale(0.35,0.35)">
			<g transform="">
				<rect x="1137.1" y="-742.8" width="16.7" height="16.7"/>
			</g>
		</g>
		<g transform="translate(315,595) scale(0.35,0.35)">
			<g transform="">
				<rect x="720.7" y="-742.8" width="16.7" height="16.7"/>
			</g>
		</g>
		<g transform="translate(350,595) scale(0.35,0.35)">
			<g transform="">
				<rect x="637.4" y="-742.8" width="16.7" height="16.7"/>
			</g>
		</g>
		<g transform="translate(455,595) scale(0.35,0.35)">
			<g transform="">
				<rect x="387.6" y="-742.8" width="16.7" height="16.7"/>
			</g>
		</g>
		<g transform="translate(490,595) scale(0.35,0.35)">
			<g transform="">
				<rect x="304.3" y="-742.8" width="16.7" height="16.7"/>
			</g>
		</g>
		<g transform="translate(525,595) scale(0.35,0.35)">
			<g transform="">
				<rect x="221.1" y="-742.8" width="16.7" height="16.7"/>
			</g>
		</g>
		<g transform="translate(560,595) scale(0.35,0.35)">
			<g transform="">
				<rect x="137.8" y="-742.8" width="16.7" height="16.7"/>
			</g>
		</g>
		<g transform="translate(630,595) scale(0.35,0.35)">
			<g transform="">
				<rect x="-28.7" y="-742.8" width="16.7" height="16.7"/>
			</g>
		</g>
		<g transform="translate(735,595) scale(0.35,0.35)">
			<g transform="">
				<rect x="-278.6" y="-742.8" width="16.7" height="16.7"/>
			</g>
		</g>
		<g transform="translate(770,595) scale(0.35,0.35)">
			<g transform="">
				<rect x="-361.8" y="-742.8" width="16.7" height="16.7"/>
			</g>
		</g>
		<g transform="translate(805,595) scale(0.35,0.35)">
			<g transform="">
				<rect x="-445.1" y="-742.8" width="16.7" height="16.7"/>
			</g>
		</g>
		<g transform="translate(875,595) scale(0.35,0.35)">
			<g transform="">
				<rect x="-611.7" y="-742.8" width="16.7" height="16.7"/>
			</g>
		</g>
		<g transform="translate(980,595) scale(0.35,0.35)">
			<g transform="">
				<rect x="-861.5" y="-742.8" width="16.7" height="16.7"/>
			</g>
		</g>
		<g transform="translate(0,630) scale(0.35,0.35)">
			<g transform="">
				<rect x="1470.2" y="-826.1" width="16.7" height="16.7"/>
			</g>
		</g>
		<g transform="translate(70,630) scale(0.35,0.35)">
			<g transform="">
				<rect x="1303.6" y="-826.1" width="16.7" height="16.7"/>
			</g>
		</g>
		<g transform="translate(140,630) scale(0.35,0.35)">
			<g transform="">
				<rect x="1137.1" y="-826.1" width="16.7" height="16.7"/>
			</g>
		</g>
		<g transform="translate(210,630) scale(0.35,0.35)">
			<g transform="">
				<rect x="970.5" y="-826.1" width="16.7" height="16.7"/>
			</g>
		</g>
		<g transform="translate(245,630) scale(0.35,0.35)">
			<g transform="">
				<rect x="887.3" y="-826.1" width="16.7" height="16.7"/>
			</g>
		</g>
		<g transform="translate(280,630) scale(0.35,0.35)">
			<g transform="">
				<rect x="804" y="-826.1" width="16.7" height="16.7"/>
			</g>
		</g>
		<g transform="translate(350,630) scale(0.35,0.35)">
			<g transform="">
				<rect x="637.4" y="-826.1" width="16.7" height="16.7"/>
			</g>
		</g>
		<g transform="translate(385,630) scale(0.35,0.35)">
			<g transform="">
				<rect x="554.2" y="-826.1" width="16.7" height="16.7"/>
			</g>
		</g>
		<g transform="translate(490,630) scale(0.35,0.35)">
			<g transform="">
				<rect x="304.3" y="-826.1" width="16.7" height="16.7"/>
			</g>
		</g>
		<g transform="translate(525,630) scale(0.35,0.35)">
			<g transform="">
				<rect x="221.1" y="-826.1" width="16.7" height="16.7"/>
			</g>
		</g>
		<g transform="translate(560,630) scale(0.35,0.35)">
			<g transform="">
				<rect x="137.8" y="-826.1" width="16.7" height="16.7"/>
			</g>
		</g>
		<g transform="translate(735,630) scale(0.35,0.35)">
			<g transform="">
				<rect x="-278.6" y="-826.1" width="16.7" height="16.7"/>
			</g>
		</g>
		<g transform="translate(805,630) scale(0.35,0.35)">
			<g transform="">
				<rect x="-445.1" y="-826.1" width="16.7" height="16.7"/>
			</g>
		</g>
		<g transform="translate(840,630) scale(0.35,0.35)">
			<g transform="">
				<rect x="-528.4" y="-826.1" width="16.7" height="16.7"/>
			</g>
		</g>
		<g transform="translate(945,630) scale(0.35,0.35)">
			<g transform="">
				<rect x="-778.2" y="-826.1" width="16.7" height="16.7"/>
			</g>
		</g>
		<g transform="translate(980,630) scale(0.35,0.35)">
			<g transform="">
				<rect x="-861.5" y="-826.1" width="16.7" height="16.7"/>
			</g>
		</g>
		<g transform="translate(245,665) scale(0.35,0.35)">
			<g transform="">
				<rect x="887.3" y="-909.4" width="16.7" height="16.7"/>
			</g>
		</g>
		<g transform="translate(490,665) scale(0.35,0.35)">
			<g transform="">
				<rect x="304.3" y="-909.4" width="16.7" height="16.7"/>
			</g>
		</g>
		<g transform="translate(595,665) scale(0.35,0.35)">
			<g transform="">
				<rect x="54.5" y="-909.4" width="16.7" height="16.7"/>
			</g>
		</g>
		<g transform="translate(630,665) scale(0.35,0.35)">
			<g transform="">
				<rect x="-28.7" y="-909.4" width="16.7" height="16.7"/>
			</g>
		</g>
		<g transform="translate(735,665) scale(0.35,0.35)">
			<g transform="">
				<rect x="-278.6" y="-909.4" width="16.7" height="16.7"/>
			</g>
		</g>
		<g transform="translate(770,665) scale(0.35,0.35)">
			<g transform="">
				<rect x="-361.8" y="-909.4" width="16.7" height="16.7"/>
			</g>
		</g>
		<g transform="translate(945,665) scale(0.35,0.35)">
			<g transform="">
				<rect x="-778.2" y="-909.4" width="16.7" height="16.7"/>
			</g>
		</g>
		<g transform="translate(980,665) scale(0.35,0.35)">
			<g transform="">
				<rect x="-861.5" y="-909.4" width="16.7" height="16.7"/>
			</g>
		</g>
		<g transform="translate(0,700) scale(0.35,0.35)">
			<g transform="">
				<rect x="1470.2" y="-992.6" width="16.7" height="16.7"/>
			</g>
		</g>
		<g transform="translate(210,700) scale(0.35,0.35)">
			<g transform="">
				<rect x="970.5" y="-992.6" width="16.7" height="16.7"/>
			</g>
		</g>
		<g transform="translate(245,700) scale(0.35,0.35)">
			<g transform="">
				<rect x="887.3" y="-992.6" width="16.7" height="16.7"/>
			</g>
		</g>
		<g transform="translate(315,700) scale(0.35,0.35)">
			<g transform="">
				<rect x="720.7" y="-992.6" width="16.7" height="16.7"/>
			</g>
		</g>
		<g transform="translate(350,700) scale(0.35,0.35)">
			<g transform="">
				<rect x="637.4" y="-992.6" width="16.7" height="16.7"/>
			</g>
		</g>
		<g transform="translate(420,700) scale(0.35,0.35)">
			<g transform="">
				<rect x="470.9" y="-992.6" width="16.7" height="16.7"/>
			</g>
		</g>
		<g transform="translate(525,700) scale(0.35,0.35)">
			<g transform="">
				<rect x="221.1" y="-992.6" width="16.7" height="16.7"/>
			</g>
		</g>
		<g transform="translate(700,700) scale(0.35,0.35)">
			<g transform="">
				<rect x="-195.3" y="-992.6" width="16.7" height="16.7"/>
			</g>
		</g>
		<g transform="translate(735,700) scale(0.35,0.35)">
			<g transform="">
				<rect x="-278.6" y="-992.6" width="16.7" height="16.7"/>
			</g>
		</g>
		<g transform="translate(770,700) scale(0.35,0.35)">
			<g transform="">
				<rect x="-361.8" y="-992.6" width="16.7" height="16.7"/>
			</g>
		</g>
		<g transform="translate(805,700) scale(0.35,0.35)">
			<g transform="">
				<rect x="-445.1" y="-992.6" width="16.7" height="16.7"/>
			</g>
		</g>
		<g transform="translate(840,700) scale(0.35,0.35)">
			<g transform="">
				<rect x="-528.4" y="-992.6" width="16.7" height="16.7"/>
			</g>
		</g>
		<g transform="translate(910,700) scale(0.35,0.35)">
			<g transform="">
				<rect x="-694.9" y="-992.6" width="16.7" height="16.7"/>
			</g>
		</g>
		<g transform="translate(280,735) scale(0.35,0.35)">
			<g transform="">
				<rect x="804" y="-1075.9" width="16.7" height="16.7"/>
			</g>
		</g>
		<g transform="translate(315,735) scale(0.35,0.35)">
			<g transform="">
				<rect x="720.7" y="-1075.9" width="16.7" height="16.7"/>
			</g>
		</g>
		<g transform="translate(385,735) scale(0.35,0.35)">
			<g transform="">
				<rect x="554.2" y="-1075.9" width="16.7" height="16.7"/>
			</g>
		</g>
		<g transform="translate(420,735) scale(0.35,0.35)">
			<g transform="">
				<rect x="470.9" y="-1075.9" width="16.7" height="16.7"/>
			</g>
		</g>
		<g transform="translate(490,735) scale(0.35,0.35)">
			<g transform="">
				<rect x="304.3" y="-1075.9" width="16.7" height="16.7"/>
			</g>
		</g>
		<g transform="translate(525,735) scale(0.35,0.35)">
			<g transform="">
				<rect x="221.1" y="-1075.9" width="16.7" height="16.7"/>
			</g>
		</g>
		<g transform="translate(665,735) scale(0.35,0.35)">
			<g transform="">
				<rect x="-112" y="-1075.9" width="16.7" height="16.7"/>
			</g>
		</g>
		<g transform="translate(700,735) scale(0.35,0.35)">
			<g transform="">
				<rect x="-195.3" y="-1075.9" width="16.7" height="16.7"/>
			</g>
		</g>
		<g transform="translate(840,735) scale(0.35,0.35)">
			<g transform="">
				<rect x="-528.4" y="-1075.9" width="16.7" height="16.7"/>
			</g>
		</g>
		<g transform="translate(910,735) scale(0.35,0.35)">
			<g transform="">
				<rect x="-694.9" y="-1075.9" width="16.7" height="16.7"/>
			</g>
		</g>
		<g transform="translate(945,735) scale(0.35,0.35)">
			<g transform="">
				<rect x="-778.2" y="-1075.9" width="16.7" height="16.7"/>
			</g>
		</g>
		<g transform="translate(980,735) scale(0.35,0.35)">
			<g transform="">
				<rect x="-861.5" y="-1075.9" width="16.7" height="16.7"/>
			</g>
		</g>
		<g transform="translate(350,770) scale(0.35,0.35)">
			<g transform="">
				<rect x="637.4" y="-1159.2" width="16.7" height="16.7"/>
			</g>
		</g>
		<g transform="translate(385,770) scale(0.35,0.35)">
			<g transform="">
				<rect x="554.2" y="-1159.2" width="16.7" height="16.7"/>
			</g>
		</g>
		<g transform="translate(420,770) scale(0.35,0.35)">
			<g transform="">
				<rect x="470.9" y="-1159.2" width="16.7" height="16.7"/>
			</g>
		</g>
		<g transform="translate(560,770) scale(0.35,0.35)">
			<g transform="">
				<rect x="137.8" y="-1159.2" width="16.7" height="16.7"/>
			</g>
		</g>
		<g transform="translate(595,770) scale(0.35,0.35)">
			<g transform="">
				<rect x="54.5" y="-1159.2" width="16.7" height="16.7"/>
			</g>
		</g>
		<g transform="translate(630,770) scale(0.35,0.35)">
			<g transform="">
				<rect x="-28.7" y="-1159.2" width="16.7" height="16.7"/>
			</g>
		</g>
		<g transform="translate(700,770) scale(0.35,0.35)">
			<g transform="">
				<rect x="-195.3" y="-1159.2" width="16.7" height="16.7"/>
			</g>
		</g>
		<g transform="translate(770,770) scale(0.35,0.35)">
			<g transform="">
				<rect x="-361.8" y="-1159.2" width="16.7" height="16.7"/>
			</g>
		</g>
		<g transform="translate(840,770) scale(0.35,0.35)">
			<g transform="">
				<rect x="-528.4" y="-1159.2" width="16.7" height="16.7"/>
			</g>
		</g>
		<g transform="translate(945,770) scale(0.35,0.35)">
			<g transform="">
				<rect x="-778.2" y="-1159.2" width="16.7" height="16.7"/>
			</g>
		</g>
		<g transform="translate(280,805) scale(0.35,0.35)">
			<g transform="">
				<rect x="804" y="-1242.4" width="16.7" height="16.7"/>
			</g>
		</g>
		<g transform="translate(315,805) scale(0.35,0.35)">
			<g transform="">
				<rect x="720.7" y="-1242.4" width="16.7" height="16.7"/>
			</g>
		</g>
		<g transform="translate(385,805) scale(0.35,0.35)">
			<g transform="">
				<rect x="554.2" y="-1242.4" width="16.7" height="16.7"/>
			</g>
		</g>
		<g transform="translate(490,805) scale(0.35,0.35)">
			<g transform="">
				<rect x="304.3" y="-1242.4" width="16.7" height="16.7"/>
			</g>
		</g>
		<g transform="translate(525,805) scale(0.35,0.35)">
			<g transform="">
				<rect x="221.1" y="-1242.4" width="16.7" height="16.7"/>
			</g>
		</g>
		<g transform="translate(630,805) scale(0.35,0.35)">
			<g transform="">
				<rect x="-28.7" y="-1242.4" width="16.7" height="16.7"/>
			</g>
		</g>
		<g transform="translate(700,805) scale(0.35,0.35)">
			<g transform="">
				<rect x="-195.3" y="-1242.4" width="16.7" height="16.7"/>
			</g>
		</g>
		<g transform="translate(840,805) scale(0.35,0.35)">
			<g transform="">
				<rect x="-528.4" y="-1242.4" width="16.7" height="16.7"/>
			</g>
		</g>
		<g transform="translate(875,805) scale(0.35,0.35)">
			<g transform="">
				<rect x="-611.7" y="-1242.4" width="16.7" height="16.7"/>
			</g>
		</g>
		<g transform="translate(910,805) scale(0.35,0.35)">
			<g transform="">
				<rect x="-694.9" y="-1242.4" width="16.7" height="16.7"/>
			</g>
		</g>
		<g transform="translate(315,840) scale(0.35,0.35)">
			<g transform="">
				<rect x="720.7" y="-1325.7" width="16.7" height="16.7"/>
			</g>
		</g>
		<g transform="translate(350,840) scale(0.35,0.35)">
			<g transform="">
				<rect x="637.4" y="-1325.7" width="16.7" height="16.7"/>
			</g>
		</g>
		<g transform="translate(385,840) scale(0.35,0.35)">
			<g transform="">
				<rect x="554.2" y="-1325.7" width="16.7" height="16.7"/>
			</g>
		</g>
		<g transform="translate(420,840) scale(0.35,0.35)">
			<g transform="">
				<rect x="470.9" y="-1325.7" width="16.7" height="16.7"/>
			</g>
		</g>
		<g transform="translate(560,840) scale(0.35,0.35)">
			<g transform="">
				<rect x="137.8" y="-1325.7" width="16.7" height="16.7"/>
			</g>
		</g>
		<g transform="translate(595,840) scale(0.35,0.35)">
			<g transform="">
				<rect x="54.5" y="-1325.7" width="16.7" height="16.7"/>
			</g>
		</g>
		<g transform="translate(630,840) scale(0.35,0.35)">
			<g transform="">
				<rect x="-28.7" y="-1325.7" width="16.7" height="16.7"/>
			</g>
		</g>
		<g transform="translate(700,840) scale(0.35,0.35)">
			<g transform="">
				<rect x="-195.3" y="-1325.7" width="16.7" height="16.7"/>
			</g>
		</g>
		<g transform="translate(735,840) scale(0.35,0.35)">
			<g transform="">
				<rect x="-278.6" y="-1325.7" width="16.7" height="16.7"/>
			</g>
		</g>
		<g transform="translate(770,840) scale(0.35,0.35)">
			<g transform="">
				<rect x="-361.8" y="-1325.7" width="16.7" height="16.7"/>
			</g>
		</g>
		<g transform="translate(805,840) scale(0.35,0.35)">
			<g transform="">
				<rect x="-445.1" y="-1325.7" width="16.7" height="16.7"/>
			</g>
		</g>
		<g transform="translate(840,840) scale(0.35,0.35)">
			<g transform="">
				<rect x="-528.4" y="-1325.7" width="16.7" height="16.7"/>
			</g>
		</g>
		<g transform="translate(945,840) scale(0.35,0.35)">
			<g transform="">
				<rect x="-778.2" y="-1325.7" width="16.7" height="16.7"/>
			</g>
		</g>
		<g transform="translate(280,875) scale(0.35,0.35)">
			<g transform="">
				<rect x="804" y="-1409" width="16.7" height="16.7"/>
			</g>
		</g>
		<g transform="translate(315,875) scale(0.35,0.35)">
			<g transform="">
				<rect x="720.7" y="-1409" width="16.7" height="16.7"/>
			</g>
		</g>
		<g transform="translate(455,875) scale(0.35,0.35)">
			<g transform="">
				<rect x="387.6" y="-1409" width="16.7" height="16.7"/>
			</g>
		</g>
		<g transform="translate(525,875) scale(0.35,0.35)">
			<g transform="">
				<rect x="221.1" y="-1409" width="16.7" height="16.7"/>
			</g>
		</g>
		<g transform="translate(665,875) scale(0.35,0.35)">
			<g transform="">
				<rect x="-112" y="-1409" width="16.7" height="16.7"/>
			</g>
		</g>
		<g transform="translate(770,875) scale(0.35,0.35)">
			<g transform="">
				<rect x="-361.8" y="-1409" width="16.7" height="16.7"/>
			</g>
		</g>
		<g transform="translate(805,875) scale(0.35,0.35)">
			<g transform="">
				<rect x="-445.1" y="-1409" width="16.7" height="16.7"/>
			</g>
		</g>
		<g transform="translate(840,875) scale(0.35,0.35)">
			<g transform="">
				<rect x="-528.4" y="-1409" width="16.7" height="16.7"/>
			</g>
		</g>
		<g transform="translate(875,875) scale(0.35,0.35)">
			<g transform="">
				<rect x="-611.7" y="-1409" width="16.7" height="16.7"/>
			</g>
		</g>
		<g transform="translate(910,875) scale(0.35,0.35)">
			<g transform="">
				<rect x="-694.9" y="-1409" width="16.7" height="16.7"/>
			</g>
		</g>
		<g transform="translate(980,875) scale(0.35,0.35)">
			<g transform="">
				<rect x="-861.5" y="-1409" width="16.7" height="16.7"/>
			</g>
		</g>
		<g transform="translate(315,910) scale(0.35,0.35)">
			<g transform="">
				<rect x="720.7" y="-1492.3" width="16.7" height="16.7"/>
			</g>
		</g>
		<g transform="translate(350,910) scale(0.35,0.35)">
			<g transform="">
				<rect x="637.4" y="-1492.3" width="16.7" height="16.7"/>
			</g>
		</g>
		<g transform="translate(385,910) scale(0.35,0.35)">
			<g transform="">
				<rect x="554.2" y="-1492.3" width="16.7" height="16.7"/>
			</g>
		</g>
		<g transform="translate(420,910) scale(0.35,0.35)">
			<g transform="">
				<rect x="470.9" y="-1492.3" width="16.7" height="16.7"/>
			</g>
		</g>
		<g transform="translate(455,910) scale(0.35,0.35)">
			<g transform="">
				<rect x="387.6" y="-1492.3" width="16.7" height="16.7"/>
			</g>
		</g>
		<g transform="translate(525,910) scale(0.35,0.35)">
			<g transform="">
				<rect x="221.1" y="-1492.3" width="16.7" height="16.7"/>
			</g>
		</g>
		<g transform="translate(560,910) scale(0.35,0.35)">
			<g transform="">
				<rect x="137.8" y="-1492.3" width="16.7" height="16.7"/>
			</g>
		</g>
		<g transform="translate(665,910) scale(0.35,0.35)">
			<g transform="">
				<rect x="-112" y="-1492.3" width="16.7" height="16.7"/>
			</g>
		</g>
		<g transform="translate(700,910) scale(0.35,0.35)">
			<g transform="">
				<rect x="-195.3" y="-1492.3" width="16.7" height="16.7"/>
			</g>
		</g>
		<g transform="translate(735,910) scale(0.35,0.35)">
			<g transform="">
				<rect x="-278.6" y="-1492.3" width="16.7" height="16.7"/>
			</g>
		</g>
		<g transform="translate(840,910) scale(0.35,0.35)">
			<g transform="">
				<rect x="-528.4" y="-1492.3" width="16.7" height="16.7"/>
			</g>
		</g>
		<g transform="translate(875,910) scale(0.35,0.35)">
			<g transform="">
				<rect x="-611.7" y="-1492.3" width="16.7" height="16.7"/>
			</g>
		</g>
		<g transform="translate(910,910) scale(0.35,0.35)">
			<g transform="">
				<rect x="-694.9" y="-1492.3" width="16.7" height="16.7"/>
			</g>
		</g>
		<g transform="translate(980,910) scale(0.35,0.35)">
			<g transform="">
				<rect x="-861.5" y="-1492.3" width="16.7" height="16.7"/>
			</g>
		</g>
		<g transform="translate(350,945) scale(0.35,0.35)">
			<g transform="">
				<rect x="637.4" y="-1575.5" width="16.7" height="16.7"/>
			</g>
		</g>
		<g transform="translate(385,945) scale(0.35,0.35)">
			<g transform="">
				<rect x="554.2" y="-1575.5" width="16.7" height="16.7"/>
			</g>
		</g>
		<g transform="translate(420,945) scale(0.35,0.35)">
			<g transform="">
				<rect x="470.9" y="-1575.5" width="16.7" height="16.7"/>
			</g>
		</g>
		<g transform="translate(455,945) scale(0.35,0.35)">
			<g transform="">
				<rect x="387.6" y="-1575.5" width="16.7" height="16.7"/>
			</g>
		</g>
		<g transform="translate(560,945) scale(0.35,0.35)">
			<g transform="">
				<rect x="137.8" y="-1575.5" width="16.7" height="16.7"/>
			</g>
		</g>
		<g transform="translate(595,945) scale(0.35,0.35)">
			<g transform="">
				<rect x="54.5" y="-1575.5" width="16.7" height="16.7"/>
			</g>
		</g>
		<g transform="translate(630,945) scale(0.35,0.35)">
			<g transform="">
				<rect x="-28.7" y="-1575.5" width="16.7" height="16.7"/>
			</g>
		</g>
		<g transform="translate(665,945) scale(0.35,0.35)">
			<g transform="">
				<rect x="-112" y="-1575.5" width="16.7" height="16.7"/>
			</g>
		</g>
		<g transform="translate(700,945) scale(0.35,0.35)">
			<g transform="">
				<rect x="-195.3" y="-1575.5" width="16.7" height="16.7"/>
			</g>
		</g>
		<g transform="translate(735,945) scale(0.35,0.35)">
			<g transform="">
				<rect x="-278.6" y="-1575.5" width="16.7" height="16.7"/>
			</g>
		</g>
		<g transform="translate(805,945) scale(0.35,0.35)">
			<g transform="">
				<rect x="-445.1" y="-1575.5" width="16.7" height="16.7"/>
			</g>
		</g>
		<g transform="translate(945,945) scale(0.35,0.35)">
			<g transform="">
				<rect x="-778.2" y="-1575.5" width="16.7" height="16.7"/>
			</g>
		</g>
		<g transform="translate(280,980) scale(0.35,0.35)">
			<g transform="">
				<rect x="804" y="-1658.8" width="16.7" height="16.7"/>
			</g>
		</g>
		<g transform="translate(350,980) scale(0.35,0.35)">
			<g transform="">
				<rect x="637.4" y="-1658.8" width="16.7" height="16.7"/>
			</g>
		</g>
		<g transform="translate(385,980) scale(0.35,0.35)">
			<g transform="">
				<rect x="554.2" y="-1658.8" width="16.7" height="16.7"/>
			</g>
		</g>
		<g transform="translate(420,980) scale(0.35,0.35)">
			<g transform="">
				<rect x="470.9" y="-1658.8" width="16.7" height="16.7"/>
			</g>
		</g>
		<g transform="translate(455,980) scale(0.35,0.35)">
			<g transform="">
				<rect x="387.6" y="-1658.8" width="16.7" height="16.7"/>
			</g>
		</g>
		<g transform="translate(490,980) scale(0.35,0.35)">
			<g transform="">
				<rect x="304.3" y="-1658.8" width="16.7" height="16.7"/>
			</g>
		</g>
		<g transform="translate(525,980) scale(0.35,0.35)">
			<g transform="">
				<rect x="221.1" y="-1658.8" width="16.7" height="16.7"/>
			</g>
		</g>
		<g transform="translate(630,980) scale(0.35,0.35)">
			<g transform="">
				<rect x="-28.7" y="-1658.8" width="16.7" height="16.7"/>
			</g>
		</g>
		<g transform="translate(700,980) scale(0.35,0.35)">
			<g transform="">
				<rect x="-195.3" y="-1658.8" width="16.7" height="16.7"/>
			</g>
		</g>
		<g transform="translate(805,980) scale(0.35,0.35)">
			<g transform="">
				<rect x="-445.1" y="-1658.8" width="16.7" height="16.7"/>
			</g>
		</g>
		<g transform="translate(840,980) scale(0.35,0.35)">
			<g transform="">
				<rect x="-528.4" y="-1658.8" width="16.7" height="16.7"/>
			</g>
		</g>
		<g transform="translate(875,980) scale(0.35,0.35)">
			<g transform="">
				<rect x="-611.7" y="-1658.8" width="16.7" height="16.7"/>
			</g>
		</g>
		<g transform="translate(945,980) scale(0.35,0.35)">
			<g transform="">
				<rect x="-778.2" y="-1658.8" width="16.7" height="16.7"/>
			</g>
		</g>
		<g transform="translate(0,0) scale(2.45, 2.45)">
			<g transform="">
				<g>
					<rect x="212.5" y="98.6" class="st1" width="11.7" height="11.7"/>
					<path d="M224.2,96.1h-11.7H210v2.5v11.7v2.5h2.5h11.7h2.5v-2.5V98.6v-2.5H224.2z M224.2,110.3h-11.7V98.6h11.7V110.3z"/>
				</g>
			</g>
		</g>
		<g transform="translate(770,0) scale(2.45, 2.45)">
			<g transform="">
				<g>
					<rect x="-49.2" y="98.6" class="st1" width="11.7" height="11.7"/>
					<path d="M-37.5,96.1h-11.7h-2.5v2.5v11.7v2.5h2.5h11.7h2.5v-2.5V98.6v-2.5H-37.5z M-37.5,110.3h-11.7V98.6h11.7V110.3z"/>
				</g>
			</g>
		</g>
		<g transform="translate(0,770) scale(2.45, 2.45)">
			<g transform="">
				<g>
					<rect x="212.5" y="-163.1" class="st1" width="11.7" height="11.7"/>
					<path d="M224.2-165.6h-11.7H210v2.5v11.7v2.5h2.5h11.7h2.5v-2.5v-11.7v-2.5H224.2z M224.2-151.4h-11.7v-11.7h11.7V-151.4z"/>
				</g>
			</g>
		</g>
		<g transform="translate(70,70) scale(1.05, 1.05)">
			<g transform="">
				<rect x="434.5" y="168.8" width="16.7" height="16.7"/>
			</g>
		</g>
		<g transform="translate(840,70) scale(1.05, 1.05)">
			<g transform="">
				<rect x="-176.1" y="168.8" width="16.7" height="16.7"/>
			</g>
		</g>
		<g transform="translate(70,840) scale(1.05, 1.05)">
			<g transform="">
				<rect x="434.5" y="-441.9" width="16.7" height="16.7"/>
			</g>
		</g>
	</g>
</g>
<g id="__1_00000039832149917014532140000015278209904281697925_">
	<g>
		<path class="st2" d="M466.5,69.4v-15h7.4v37.8h-7.4V76.6H451v15.7h-7.5V54.4h7.5v15H466.5z"/>
		<path class="st2" d="M505.8,81.6h-20.4c0.9,3.4,3.4,5.1,7.6,5.1c2.7,0,4.7-0.9,6.1-2.7l5.6,3.2c-2.7,3.9-6.6,5.8-11.8,5.8
			c-4.5,0-8.1-1.4-10.8-4.1c-2.7-2.7-4.1-6.1-4.1-10.2c0-4.1,1.3-7.4,4-10.2c2.6-2.7,6.1-4.1,10.3-4.1c4,0,7.3,1.4,9.8,4.1
			c2.6,2.7,3.9,6.1,3.9,10.2C506.1,79.5,506,80.5,505.8,81.6L505.8,81.6z M485.3,76.2h13.8c-0.4-1.8-1.2-3.1-2.4-4.1
			s-2.6-1.4-4.3-1.4c-1.9,0-3.4,0.5-4.6,1.4C486.5,73.1,485.7,74.5,485.3,76.2L485.3,76.2z"/>
		<path class="st2" d="M516.8,92.3h-7V54.4h7V92.3z"/>
		<path class="st2" d="M537.8,64.5c3.6,0,6.7,1.4,9.3,4.2c2.6,2.8,3.9,6.1,3.9,10.1c0,4-1.3,7.4-3.9,10.2c-2.5,2.7-5.6,4.1-9.3,4.1
			s-6.7-1.3-8.8-3.9v14h-7V65.2h7v3.2C531.1,65.8,534,64.5,537.8,64.5z M531.2,84.3c1.4,1.4,3.2,2.1,5.4,2.1s3.9-0.7,5.4-2.1
			c1.4-1.4,2.2-3.3,2.2-5.5c0-2.2-0.7-4.1-2.2-5.5c-1.4-1.4-3.2-2.2-5.4-2.2s-3.9,0.7-5.4,2.2c-1.4,1.4-2.1,3.2-2.1,5.5
			C529.1,81,529.8,82.8,531.2,84.3z"/>
		<path class="st2" d="M584.7,64.5c3.1,0,5.6,1,7.4,3c1.9,2,2.8,4.7,2.8,8.1v16.6h-7V76.1c0-1.6-0.4-2.9-1.2-3.8s-1.9-1.4-3.4-1.4
			c-1.6,0-2.8,0.5-3.7,1.6c-0.9,1-1.3,2.6-1.3,4.5v15.2h-7V76.1c0-1.6-0.4-2.9-1.2-3.8s-1.9-1.4-3.4-1.4c-1.6,0-2.8,0.5-3.7,1.6
			c-0.9,1.1-1.4,2.6-1.4,4.5v15.2h-7v-27h7v2.9c1.6-2.4,4.1-3.6,7.5-3.6s5.8,1.3,7.4,3.9C578.4,65.8,581.1,64.5,584.7,64.5
			L584.7,64.5z"/>
		<path class="st2" d="M620.4,68.4v-3.2h7v27h-7v-3.2c-2.1,2.6-5,3.9-8.8,3.9c-3.8,0-6.7-1.4-9.3-4.1c-2.6-2.8-3.8-6.2-3.8-10.2
			s1.3-7.3,3.8-10.1c2.6-2.8,5.7-4.2,9.3-4.2C615.3,64.5,618.3,65.8,620.4,68.4L620.4,68.4z M607.5,84.3c1.4,1.4,3.2,2.1,5.4,2.1
			c2.2,0,3.9-0.7,5.4-2.1c1.4-1.4,2.2-3.3,2.2-5.5c0-2.2-0.7-4.1-2.2-5.5c-1.4-1.4-3.2-2.2-5.4-2.2c-2.2,0-3.9,0.7-5.4,2.2
			c-1.4,1.4-2.1,3.2-2.1,5.5C605.4,81,606.1,82.8,607.5,84.3z"/>
		<path class="st2" d="M639.1,65.2v4.6c0.6-1.7,1.7-3,3.1-3.9c1.5-0.9,3.2-0.8,5.1-0.8v7.2c-2.1,0-4,0.1-5.7,1.3
			c-1.7,1.1-2.5,3-2.5,5.6v12.9h-7v-27H639.1L639.1,65.2z"/>
		<path class="st2" d="M664.5,78.6l11.2,13.7h-8.1L657.7,80v12.3h-7V54.4h7v22.7l9.3-11.9h8.3L664.5,78.6L664.5,78.6z"/>
		<path class="st2" d="M702.3,81.6H682c0.9,3.4,3.4,5.1,7.6,5.1c2.7,0,4.7-0.9,6.1-2.7l5.6,3.2c-2.7,3.9-6.6,5.8-11.8,5.8
			c-4.5,0-8.1-1.4-10.8-4.1c-2.7-2.7-4.1-6.1-4.1-10.2c0-4.1,1.3-7.4,4-10.2c2.6-2.7,6.1-4.1,10.3-4.1c4.2,0,7.3,1.4,9.8,4.1
			c2.6,2.7,3.9,6.1,3.9,10.2C702.6,79.5,702.5,80.5,702.3,81.6L702.3,81.6z M681.9,76.2h13.8c-0.4-1.8-1.2-3.1-2.4-4.1
			s-2.6-1.4-4.3-1.4c-1.9,0-3.4,0.5-4.6,1.4C683.1,73.1,682.3,74.5,681.9,76.2L681.9,76.2z"/>
		<path class="st2" d="M719.2,65.2v6.7H713v11.2c0,0.9,0.2,1.6,0.7,2.1c0.5,0.4,1.2,0.7,2.1,0.7s2,0,3.4,0v6.3
			c-4.7,0.5-8.1,0.1-10.1-1.3c-2-1.4-3-4-3-7.8V59.8l7-2.1v7.6H719.2L719.2,65.2z"/>
		<g>
			<g>
				<path class="st9" d="M394.5,54.9v13.8c2-2.8,5.2-4.7,8.9-4.7h1.4v-9.1c0-0.3-0.2-0.5-0.5-0.5H395
					C394.7,54.4,394.5,54.6,394.5,54.9z"/>
				<path class="st9" d="M434.6,54.4c0.3,0,0.5,0.2,0.5,0.5v16.9c0,0.5,0,1-0.1,1.5c-0.7,4.2-4.4,7.4-8.8,7.4h-19
					c-0.3,0-0.5-0.2-0.5-0.5v-5.6c0-0.3,0.2-0.5,0.5-0.5h16.9c0.4,0,0.6-0.3,0.6-0.6V54.9c0-0.3,0.2-0.5,0.5-0.5H434.6L434.6,54.4z"
					/>
			</g>
			<g>
				<path class="st10" d="M422.9,66.4V72c0,0.3-0.2,0.5-0.5,0.5h-16.9c-0.4,0-0.6,0.3-0.6,0.6v18.6c0,0.3-0.2,0.5-0.5,0.5H395
					c-0.3,0-0.5-0.2-0.5-0.5V74.8c0-0.5,0-1,0.1-1.5c0.7-4.2,4.4-7.4,8.8-7.4h19C422.7,65.9,422.9,66.1,422.9,66.4L422.9,66.4z"/>
				<path class="st10" d="M435.1,78v13.8c0,0.3-0.2,0.5-0.5,0.5h-9.3c-0.3,0-0.5-0.2-0.5-0.5v-9.1h1.4
					C429.9,82.7,433.2,80.8,435.1,78L435.1,78z"/>
			</g>
		</g>
		<g>
			<path class="st2" d="M727.9,92.3c-0.5,0.4-1,0.7-1.6,0.7c-0.6,0-1.2-0.2-1.6-0.7c-0.5-0.4-0.7-1-0.7-1.6s0.2-1.2,0.7-1.6
				c0.4-0.4,1-0.7,1.6-0.7s1.2,0.2,1.6,0.7c0.4,0.5,0.7,1,0.7,1.6S728.4,91.9,727.9,92.3L727.9,92.3z"/>
			<path class="st2" d="M738.2,93c-2.3,0-4.2-0.8-5.8-2.3c-1.5-1.6-2.3-3.5-2.3-5.7c0-2.3,0.8-4.2,2.3-5.8c1.5-1.5,3.5-2.3,5.8-2.3
				c1.5,0,2.9,0.4,4.1,1.1c1.2,0.7,2.1,1.7,2.8,2.9l-2.9,1.7c-0.3-0.7-0.9-1.3-1.6-1.7c-0.7-0.4-1.5-0.6-2.4-0.6
				c-1.4,0-2.5,0.5-3.4,1.4s-1.4,2.1-1.4,3.4s0.5,2.5,1.4,3.4s2,1.4,3.4,1.4c0.9,0,1.7-0.2,2.4-0.6c0.7-0.4,1.3-1,1.6-1.7l2.9,1.6
				c-0.7,1.2-1.6,2.2-2.8,2.9C741,92.6,739.7,93,738.2,93L738.2,93z"/>
			<path class="st2" d="M755.5,76.9c1.8,0,3.2,0.6,4.3,1.7c1.1,1.1,1.6,2.7,1.6,4.6v9.4h-3.3v-9.1c0-1.1-0.3-2-0.9-2.6
				c-0.6-0.6-1.5-0.9-2.5-0.9c-1.2,0-2.1,0.4-2.8,1.1c-0.7,0.7-1.1,1.8-1.1,3.3v8.2h-3.3V71.1h3.3v8.1
				C751.8,77.6,753.4,76.9,755.5,76.9L755.5,76.9z"/>
		</g>
	</g>
</g>
<g>
	<defs>
		<rect id="SVGID_1_" x="0" y="0" width="801.7" height="518.8"/>
	</defs>
	<clipPath id="SVGID_00000005253457841975742650000006774560227385439130_">
		<use xlink:href="#SVGID_1_"  style="overflow:visible;"/>
	</clipPath>
	<g style="opacity:0.3;clip-path:url(#SVGID_00000005253457841975742650000006774560227385439130_);">
		<g>
			
				<rect x="238.6" y="263.6" transform="matrix(0.7071 -0.7071 0.7071 0.7071 -128.235 274.1103)" class="st2" width="56.4" height="56.4"/>
			
				<rect x="295.1" y="320.2" transform="matrix(0.7071 -0.7071 0.7071 0.7071 -151.6729 330.6945)" class="st2" width="56.4" height="56.4"/>
			
				<rect x="351.7" y="376.8" transform="matrix(0.7071 -0.7071 0.7071 0.7071 -175.1109 387.2788)" class="st2" width="56.4" height="56.4"/>
			
				<rect x="408.3" y="433.4" transform="matrix(0.7071 -0.7071 0.7071 0.7071 -198.5489 443.863)" class="st2" width="56.4" height="56.4"/>
			
				<rect x="464.9" y="490" transform="matrix(0.7071 -0.7071 0.7071 0.7071 -221.9868 500.4473)" class="st2" width="56.4" height="56.4"/>
			
				<rect x="182" y="320.2" transform="matrix(0.7071 -0.7071 0.7071 0.7071 -184.8192 250.6723)" class="st2" width="56.4" height="56.4"/>
			
				<rect x="238.6" y="376.8" transform="matrix(0.7071 -0.7071 0.7071 0.7071 -208.2572 307.2566)" class="st2" width="56.4" height="56.4"/>
			
				<rect x="295.1" y="433.4" transform="matrix(0.7071 -0.7071 0.7071 0.7071 -231.6952 363.8409)" class="st2" width="56.4" height="56.4"/>
			
				<rect x="351.7" y="490" transform="matrix(0.7071 -0.7071 0.7071 0.7071 -255.1331 420.4251)" class="st2" width="56.4" height="56.4"/>
			
				<rect x="125.4" y="376.8" transform="matrix(0.7071 -0.7071 0.7071 0.7071 -241.4035 227.2344)" class="st2" width="56.4" height="56.4"/>
			
				<rect x="182" y="433.4" transform="matrix(0.7071 -0.7071 0.7071 0.7071 -264.8414 283.8186)" class="st2" width="56.4" height="56.4"/>
			
				<rect x="238.6" y="490" transform="matrix(0.7071 -0.7071 0.7071 0.7071 -288.2794 340.4029)" class="st2" width="56.4" height="56.4"/>
			
				<rect x="68.8" y="433.4" transform="matrix(0.7071 -0.7071 0.7071 0.7071 -297.9877 203.7964)" class="st2" width="56.4" height="56.4"/>
			
				<rect x="12.2" y="490" transform="matrix(0.7071 -0.7071 0.7071 0.7071 -354.572 180.3584)" class="st2" width="56.4" height="56.4"/>
			
				<rect x="125.4" y="490" transform="matrix(0.7071 -0.7071 0.7071 0.7071 -321.4257 260.3806)" class="st2" width="56.4" height="56.4"/>
		</g>
	</g>
</g>
<g>
	<defs>
		<rect id="SVGID_00000163052269156674710480000009206857245598170035_" x="0" y="0" width="801.7" height="518.8"/>
	</defs>
	<clipPath id="SVGID_00000165928183612872351510000002638799927137658513_">
		<use xlink:href="#SVGID_00000163052269156674710480000009206857245598170035_"  style="overflow:visible;"/>
	</clipPath>
	<g style="clip-path:url(#SVGID_00000165928183612872351510000002638799927137658513_);">
		<polygon class="st9" points="-86,491.2 449,-43.9 294.9,-198 -225.2,322.1 		"/>
		<g>
			<line class="st13" x1="-16.1" y1="468.2" x2="221.6" y2="230.6"/>
			<line class="st14" x1="150" y1="176.5" x2="336.3" y2="-9.8"/>
		</g>
	</g>
</g>
</svg>
