<?xml version="1.0" encoding="utf-8"?>
<!-- Generator: Adobe Illustrator 26.4.1, SVG Export Plug-In . SVG Version: 6.00 Build 0)  -->
<svg version="1.1" id="Layer_1" xmlns="http://www.w3.org/2000/svg" xmlns:xlink="http://www.w3.org/1999/xlink" x="0px" y="0px"
	 viewBox="0 0 801.7 518.8" style="enable-background:new 0 0 801.7 518.8;" xml:space="preserve">
<style type="text/css">
	.st0{fill:#1A1A36;}
	.st1{fill:#FBBF1B;}
	.st2{fill:#555FA7;}
	.st3{fill:#FFFFFF;}
	.st4{fill:none;}
	.st5{fill:#010100;}
	.st6{font-family:'Gilroy-SemiBold';}
	.st7{font-size:22.0945px;}
	.st8{fill:none;stroke:#1D1D1B;stroke-width:2.8857;stroke-miterlimit:10;}
	.st9{clip-path:url(#SVGID_00000174591811217908038310000008329319541743062177_);}
	.st10{fill:none;stroke:#FBBF1B;stroke-width:3.3266;stroke-miterlimit:10;}
	.st11{font-family:'CarosSoftLight';}
	.st12{font-size:54.7748px;}
	.st13{opacity:0.7;}
	.st14{font-family:'Montserrat-Regular';}
	.st15{font-size:30.0807px;}
</style>
<rect y="0.1" class="st0" width="801.5" height="518.6"/>
<g id="_Слой_1_00000152984022999628633360000006034821787041959330_">
	<g>
		<g>
			<g>
				<path class="st1" d="M150.7,48.5v34.3c4.9-7.1,13-11.7,22.2-11.7h3.5V48.5c0-0.7-0.6-1.3-1.3-1.3h-23.2
					C151.2,47.2,150.7,47.8,150.7,48.5z"/>
				<path class="st1" d="M250.7,47.2c0.7,0,1.3,0.6,1.3,1.3v42.2c0,1.3-0.1,2.5-0.3,3.7c-1.8,10.5-10.9,18.5-21.9,18.5h-47.3
					c-0.7,0-1.3-0.6-1.3-1.3v-14c0-0.7,0.6-1.3,1.3-1.3h42.2c0.9,0,1.6-0.7,1.6-1.6V48.5c0-0.7,0.6-1.3,1.3-1.3H250.7L250.7,47.2z"
					/>
			</g>
			<g>
				<path class="st2" d="M221.5,77.2v14c0,0.7-0.6,1.3-1.3,1.3H178c-0.9,0-1.6,0.7-1.6,1.6v46.3c0,0.7-0.6,1.3-1.3,1.3h-23.2
					c-0.7,0-1.3-0.6-1.3-1.3V98.1c0-1.3,0.1-2.5,0.3-3.7c1.8-10.5,10.9-18.5,21.9-18.5h47.3C220.9,75.9,221.5,76.5,221.5,77.2
					L221.5,77.2z"/>
				<path class="st2" d="M252,106v34.3c0,0.7-0.6,1.3-1.3,1.3h-23.2c-0.7,0-1.3-0.6-1.3-1.3v-22.6h3.5C239,117.7,247.1,113,252,106
					L252,106z"/>
			</g>
		</g>
		<g>
			<path class="st3" d="M89.6,172.8v-12.9H96v32.4h-6.3v-13.4H76.4v13.4H70v-32.4h6.4v12.9H89.6z"/>
			<path class="st3" d="M123.2,183.2h-17.4c0.8,2.9,2.9,4.3,6.5,4.3c2.3,0,4-0.8,5.2-2.3l4.8,2.8c-2.3,3.3-5.6,4.9-10.1,4.9
				c-3.8,0-6.9-1.2-9.2-3.5c-2.3-2.3-3.5-5.2-3.5-8.7s1.1-6.3,3.4-8.7c2.2-2.3,5.2-3.5,8.8-3.5c3.4,0,6.2,1.2,8.4,3.5
				c2.2,2.3,3.3,5.2,3.3,8.7C123.5,181.3,123.4,182.2,123.2,183.2L123.2,183.2z M105.7,178.5h11.8c-0.3-1.5-1-2.7-2.1-3.5
				c-1-0.8-2.3-1.2-3.7-1.2c-1.6,0-2.9,0.4-4,1.2C106.8,175.9,106.1,177,105.7,178.5L105.7,178.5z"/>
			<path class="st3" d="M132.7,192.3h-6v-32.4h6V192.3z"/>
			<path class="st3" d="M150.7,168.5c3.1,0,5.8,1.2,8,3.6c2.2,2.4,3.3,5.3,3.3,8.6c0,3.4-1.1,6.3-3.3,8.7c-2.2,2.3-4.8,3.5-8,3.5
				s-5.7-1.1-7.5-3.4v12h-6v-32.4h6v2.7C144.9,169.6,147.4,168.5,150.7,168.5z M145,185.4c1.2,1.2,2.7,1.8,4.6,1.8
				c1.8,0,3.4-0.6,4.6-1.8c1.2-1.2,1.8-2.8,1.8-4.7s-0.6-3.5-1.8-4.7c-1.2-1.2-2.7-1.8-4.6-1.8c-1.8,0-3.4,0.6-4.6,1.8
				c-1.2,1.2-1.8,2.8-1.8,4.7C143.2,182.6,143.8,184.2,145,185.4z"/>
			<path class="st3" d="M190.8,168.5c2.7,0,4.8,0.9,6.4,2.6c1.6,1.7,2.4,4,2.4,6.9v14.2h-6v-13.8c0-1.4-0.3-2.5-1-3.2
				s-1.6-1.2-2.9-1.2c-1.4,0-2.4,0.4-3.2,1.3c-0.8,0.9-1.1,2.2-1.1,3.9v13h-6v-13.8c0-1.4-0.3-2.5-1-3.2c-0.7-0.8-1.6-1.2-2.9-1.2
				c-1.3,0-2.4,0.5-3.2,1.4c-0.8,0.9-1.2,2.2-1.2,3.9v13h-6v-23.1h6v2.5c1.4-2.1,3.5-3.1,6.4-3.1s5,1.1,6.3,3.3
				C185.4,169.6,187.7,168.5,190.8,168.5L190.8,168.5z"/>
			<path class="st3" d="M221.2,171.9v-2.7h6v23.1h-6v-2.7c-1.8,2.3-4.3,3.4-7.5,3.4s-5.7-1.2-8-3.5c-2.2-2.4-3.3-5.3-3.3-8.7
				c0-3.4,1.1-6.3,3.3-8.6c2.2-2.4,4.9-3.6,8-3.6C216.9,168.5,219.5,169.6,221.2,171.9L221.2,171.9z M210.2,185.4
				c1.2,1.2,2.7,1.8,4.6,1.8c1.8,0,3.4-0.6,4.6-1.8s1.8-2.8,1.8-4.7s-0.6-3.5-1.8-4.7c-1.2-1.2-2.7-1.8-4.6-1.8
				c-1.8,0-3.4,0.6-4.6,1.8c-1.2,1.2-1.8,2.8-1.8,4.7C208.4,182.6,209,184.2,210.2,185.4z"/>
			<path class="st3" d="M237.2,169.1v4c0.5-1.4,1.4-2.6,2.7-3.3s2.7-0.7,4.3-0.7v6.2c-1.8,0-3.5,0.1-4.9,1.1c-1.4,1-2.1,2.5-2.1,4.8
				v11h-6v-23.1H237.2L237.2,169.1z"/>
			<path class="st3" d="M259,180.6l9.6,11.7h-6.9l-8.4-10.5v10.5h-6v-32.4h6v19.4l8-10.2h7.1L259,180.6L259,180.6z"/>
			<path class="st3" d="M291.4,183.2h-17.4c0.8,2.9,2.9,4.3,6.5,4.3c2.3,0,4-0.8,5.2-2.3l4.8,2.8c-2.3,3.3-5.6,4.9-10.1,4.9
				c-3.8,0-6.9-1.2-9.2-3.5c-2.3-2.3-3.5-5.2-3.5-8.7s1.1-6.3,3.4-8.7c2.2-2.3,5.2-3.5,8.8-3.5c3.6,0,6.2,1.2,8.4,3.5
				c2.2,2.3,3.3,5.2,3.3,8.7C291.6,181.3,291.5,182.2,291.4,183.2L291.4,183.2z M273.8,178.5h11.8c-0.3-1.5-1-2.7-2.1-3.5
				s-2.3-1.2-3.7-1.2c-1.6,0-2.9,0.4-4,1.2C274.9,175.9,274.2,177,273.8,178.5L273.8,178.5z"/>
			<path class="st3" d="M305.7,169.1v5.7h-5.2v9.6c0,0.8,0.2,1.4,0.6,1.8c0.4,0.4,1,0.6,1.8,0.6c0.8,0,1.7,0,2.9,0v5.4
				c-4,0.5-6.9,0.1-8.6-1.1c-1.7-1.2-2.6-3.4-2.6-6.6v-20l6-1.8v6.5H305.7L305.7,169.1z"/>
			<g>
				<path class="st3" d="M313.3,192.3c-0.4,0.4-0.8,0.6-1.4,0.6s-1-0.2-1.4-0.6c-0.4-0.4-0.6-0.8-0.6-1.4c0-0.5,0.2-1,0.6-1.4
					c0.4-0.4,0.8-0.6,1.4-0.6c0.6,0,1,0.2,1.4,0.6c0.4,0.4,0.6,0.8,0.6,1.4C313.8,191.5,313.6,191.9,313.3,192.3L313.3,192.3z"/>
				<path class="st3" d="M322,192.9c-2,0-3.6-0.7-4.9-2c-1.3-1.3-2-3-2-4.9c0-1.9,0.7-3.6,2-4.9c1.3-1.3,3-2,4.9-2
					c1.3,0,2.4,0.3,3.5,0.9c1.1,0.6,1.8,1.4,2.4,2.5l-2.4,1.4c-0.3-0.6-0.7-1.1-1.4-1.5c-0.6-0.4-1.3-0.5-2.1-0.5
					c-1.2,0-2.1,0.4-2.9,1.2c-0.8,0.8-1.2,1.8-1.2,2.9s0.4,2.2,1.2,2.9s1.7,1.2,2.9,1.2c0.8,0,1.5-0.2,2.1-0.6
					c0.6-0.4,1.1-0.9,1.4-1.5l2.4,1.4c-0.6,1.1-1.4,1.9-2.4,2.5C324.4,192.6,323.3,192.9,322,192.9L322,192.9z"/>
				<path class="st3" d="M336.9,179.1c1.5,0,2.7,0.5,3.7,1.4c0.9,1,1.4,2.3,1.4,4v8.1h-2.8v-7.8c0-1-0.3-1.7-0.8-2.3
					c-0.5-0.5-1.2-0.8-2.2-0.8c-1,0-1.8,0.3-2.4,0.9c-0.6,0.6-0.9,1.6-0.9,2.8v7H330v-18.4h2.8v6.9
					C333.7,179.8,335,179.1,336.9,179.1L336.9,179.1z"/>
			</g>
		</g>
	</g>
</g>
<g>
	<g>
		<path class="st3" d="M690.8,459.9H536.3c-15,0-27.2-12.2-27.2-27.2V224.6c0-15,12.2-27.2,27.2-27.2h154.4
			c15,0,27.2,12.2,27.2,27.2v208.1C718,447.7,705.8,459.9,690.8,459.9z"/>
		<g>
			<g transform="translate(70,70)">
				<g transform="translate(350,0) scale(0.35,0.35)">
					<g transform="">
						<rect x="472.3" y="421.7" width="16.5" height="16.5"/>
					</g>
				</g>
				<g transform="translate(385,0) scale(0.35,0.35)">
					<g transform="">
						<rect x="388.8" y="421.7" width="16.5" height="16.5"/>
					</g>
				</g>
				<g transform="translate(490,0) scale(0.35,0.35)">
					<g transform="">
						<rect x="138.3" y="421.7" width="16.5" height="16.5"/>
					</g>
				</g>
				<g transform="translate(595,0) scale(0.35,0.35)">
					<g transform="">
						<rect x="-112.3" y="421.7" width="16.5" height="16.5"/>
					</g>
				</g>
				<g transform="translate(630,0) scale(0.35,0.35)">
					<g transform="">
						<rect x="-195.8" y="421.7" width="16.5" height="16.5"/>
					</g>
				</g>
				<g transform="translate(665,0) scale(0.35,0.35)">
					<g transform="">
						<rect x="-279.3" y="421.7" width="16.5" height="16.5"/>
					</g>
				</g>
				<g transform="translate(700,0) scale(0.35,0.35)">
					<g transform="">
						<rect x="-362.8" y="421.7" width="16.5" height="16.5"/>
					</g>
				</g>
				<g transform="translate(315,35) scale(0.35,0.35)">
					<g transform="">
						<rect x="555.8" y="338.2" width="16.5" height="16.5"/>
					</g>
				</g>
				<g transform="translate(350,35) scale(0.35,0.35)">
					<g transform="">
						<rect x="472.3" y="338.2" width="16.5" height="16.5"/>
					</g>
				</g>
				<g transform="translate(385,35) scale(0.35,0.35)">
					<g transform="">
						<rect x="388.8" y="338.2" width="16.5" height="16.5"/>
					</g>
				</g>
				<g transform="translate(420,35) scale(0.35,0.35)">
					<g transform="">
						<rect x="305.3" y="338.2" width="16.5" height="16.5"/>
					</g>
				</g>
				<g transform="translate(560,35) scale(0.35,0.35)">
					<g transform="">
						<rect x="-28.8" y="338.2" width="16.5" height="16.5"/>
					</g>
				</g>
				<g transform="translate(630,35) scale(0.35,0.35)">
					<g transform="">
						<rect x="-195.8" y="338.2" width="16.5" height="16.5"/>
					</g>
				</g>
				<g transform="translate(420,70) scale(0.35,0.35)">
					<g transform="">
						<rect x="305.3" y="254.7" width="16.5" height="16.5"/>
					</g>
				</g>
				<g transform="translate(490,70) scale(0.35,0.35)">
					<g transform="">
						<rect x="138.3" y="254.7" width="16.5" height="16.5"/>
					</g>
				</g>
				<g transform="translate(525,70) scale(0.35,0.35)">
					<g transform="">
						<rect x="54.8" y="254.7" width="16.5" height="16.5"/>
					</g>
				</g>
				<g transform="translate(595,70) scale(0.35,0.35)">
					<g transform="">
						<rect x="-112.3" y="254.7" width="16.5" height="16.5"/>
					</g>
				</g>
				<g transform="translate(630,70) scale(0.35,0.35)">
					<g transform="">
						<rect x="-195.8" y="254.7" width="16.5" height="16.5"/>
					</g>
				</g>
				<g transform="translate(700,70) scale(0.35,0.35)">
					<g transform="">
						<rect x="-362.8" y="254.7" width="16.5" height="16.5"/>
					</g>
				</g>
				<g transform="translate(315,105) scale(0.35,0.35)">
					<g transform="">
						<rect x="555.8" y="171.2" width="16.5" height="16.5"/>
					</g>
				</g>
				<g transform="translate(350,105) scale(0.35,0.35)">
					<g transform="">
						<rect x="472.3" y="171.2" width="16.5" height="16.5"/>
					</g>
				</g>
				<g transform="translate(385,105) scale(0.35,0.35)">
					<g transform="">
						<rect x="388.8" y="171.2" width="16.5" height="16.5"/>
					</g>
				</g>
				<g transform="translate(420,105) scale(0.35,0.35)">
					<g transform="">
						<rect x="305.3" y="171.2" width="16.5" height="16.5"/>
					</g>
				</g>
				<g transform="translate(455,105) scale(0.35,0.35)">
					<g transform="">
						<rect x="221.8" y="171.2" width="16.5" height="16.5"/>
					</g>
				</g>
				<g transform="translate(560,105) scale(0.35,0.35)">
					<g transform="">
						<rect x="-28.8" y="171.2" width="16.5" height="16.5"/>
					</g>
				</g>
				<g transform="translate(630,105) scale(0.35,0.35)">
					<g transform="">
						<rect x="-195.8" y="171.2" width="16.5" height="16.5"/>
					</g>
				</g>
				<g transform="translate(665,105) scale(0.35,0.35)">
					<g transform="">
						<rect x="-279.3" y="171.2" width="16.5" height="16.5"/>
					</g>
				</g>
				<g transform="translate(700,105) scale(0.35,0.35)">
					<g transform="">
						<rect x="-362.8" y="171.2" width="16.5" height="16.5"/>
					</g>
				</g>
				<g transform="translate(315,140) scale(0.35,0.35)">
					<g transform="">
						<rect x="555.8" y="87.7" width="16.5" height="16.5"/>
					</g>
				</g>
				<g transform="translate(350,140) scale(0.35,0.35)">
					<g transform="">
						<rect x="472.3" y="87.7" width="16.5" height="16.5"/>
					</g>
				</g>
				<g transform="translate(630,140) scale(0.35,0.35)">
					<g transform="">
						<rect x="-195.8" y="87.7" width="16.5" height="16.5"/>
					</g>
				</g>
				<g transform="translate(280,175) scale(0.35,0.35)">
					<g transform="">
						<rect x="639.3" y="4.1" width="16.5" height="16.5"/>
					</g>
				</g>
				<g transform="translate(315,175) scale(0.35,0.35)">
					<g transform="">
						<rect x="555.8" y="4.1" width="16.5" height="16.5"/>
					</g>
				</g>
				<g transform="translate(350,175) scale(0.35,0.35)">
					<g transform="">
						<rect x="472.3" y="4.1" width="16.5" height="16.5"/>
					</g>
				</g>
				<g transform="translate(525,175) scale(0.35,0.35)">
					<g transform="">
						<rect x="54.8" y="4.1" width="16.5" height="16.5"/>
					</g>
				</g>
				<g transform="translate(560,175) scale(0.35,0.35)">
					<g transform="">
						<rect x="-28.8" y="4.1" width="16.5" height="16.5"/>
					</g>
				</g>
				<g transform="translate(595,175) scale(0.35,0.35)">
					<g transform="">
						<rect x="-112.3" y="4.1" width="16.5" height="16.5"/>
					</g>
				</g>
				<g transform="translate(665,175) scale(0.35,0.35)">
					<g transform="">
						<rect x="-279.3" y="4.1" width="16.5" height="16.5"/>
					</g>
				</g>
				<g transform="translate(280,210) scale(0.35,0.35)">
					<g transform="">
						<rect x="639.3" y="-79.4" width="16.5" height="16.5"/>
					</g>
				</g>
				<g transform="translate(350,210) scale(0.35,0.35)">
					<g transform="">
						<rect x="472.3" y="-79.4" width="16.5" height="16.5"/>
					</g>
				</g>
				<g transform="translate(420,210) scale(0.35,0.35)">
					<g transform="">
						<rect x="305.3" y="-79.4" width="16.5" height="16.5"/>
					</g>
				</g>
				<g transform="translate(490,210) scale(0.35,0.35)">
					<g transform="">
						<rect x="138.3" y="-79.4" width="16.5" height="16.5"/>
					</g>
				</g>
				<g transform="translate(560,210) scale(0.35,0.35)">
					<g transform="">
						<rect x="-28.8" y="-79.4" width="16.5" height="16.5"/>
					</g>
				</g>
				<g transform="translate(630,210) scale(0.35,0.35)">
					<g transform="">
						<rect x="-195.8" y="-79.4" width="16.5" height="16.5"/>
					</g>
				</g>
				<g transform="translate(700,210) scale(0.35,0.35)">
					<g transform="">
						<rect x="-362.8" y="-79.4" width="16.5" height="16.5"/>
					</g>
				</g>
				<g transform="translate(455,245) scale(0.35,0.35)">
					<g transform="">
						<rect x="221.8" y="-162.9" width="16.5" height="16.5"/>
					</g>
				</g>
				<g transform="translate(525,245) scale(0.35,0.35)">
					<g transform="">
						<rect x="54.8" y="-162.9" width="16.5" height="16.5"/>
					</g>
				</g>
				<g transform="translate(560,245) scale(0.35,0.35)">
					<g transform="">
						<rect x="-28.8" y="-162.9" width="16.5" height="16.5"/>
					</g>
				</g>
				<g transform="translate(595,245) scale(0.35,0.35)">
					<g transform="">
						<rect x="-112.3" y="-162.9" width="16.5" height="16.5"/>
					</g>
				</g>
				<g transform="translate(630,245) scale(0.35,0.35)">
					<g transform="">
						<rect x="-195.8" y="-162.9" width="16.5" height="16.5"/>
					</g>
				</g>
				<g transform="translate(700,245) scale(0.35,0.35)">
					<g transform="">
						<rect x="-362.8" y="-162.9" width="16.5" height="16.5"/>
					</g>
				</g>
				<g transform="translate(0,280) scale(0.35,0.35)">
					<g transform="">
						<rect x="1307.4" y="-246.4" width="16.5" height="16.5"/>
					</g>
				</g>
				<g transform="translate(105,280) scale(0.35,0.35)">
					<g transform="">
						<rect x="1056.9" y="-246.4" width="16.5" height="16.5"/>
					</g>
				</g>
				<g transform="translate(175,280) scale(0.35,0.35)">
					<g transform="">
						<rect x="889.9" y="-246.4" width="16.5" height="16.5"/>
					</g>
				</g>
				<g transform="translate(210,280) scale(0.35,0.35)">
					<g transform="">
						<rect x="806.3" y="-246.4" width="16.5" height="16.5"/>
					</g>
				</g>
				<g transform="translate(280,280) scale(0.35,0.35)">
					<g transform="">
						<rect x="639.3" y="-246.4" width="16.5" height="16.5"/>
					</g>
				</g>
				<g transform="translate(315,280) scale(0.35,0.35)">
					<g transform="">
						<rect x="555.8" y="-246.4" width="16.5" height="16.5"/>
					</g>
				</g>
				<g transform="translate(420,280) scale(0.35,0.35)">
					<g transform="">
						<rect x="305.3" y="-246.4" width="16.5" height="16.5"/>
					</g>
				</g>
				<g transform="translate(490,280) scale(0.35,0.35)">
					<g transform="">
						<rect x="138.3" y="-246.4" width="16.5" height="16.5"/>
					</g>
				</g>
				<g transform="translate(560,280) scale(0.35,0.35)">
					<g transform="">
						<rect x="-28.8" y="-246.4" width="16.5" height="16.5"/>
					</g>
				</g>
				<g transform="translate(735,280) scale(0.35,0.35)">
					<g transform="">
						<rect x="-446.3" y="-246.4" width="16.5" height="16.5"/>
					</g>
				</g>
				<g transform="translate(805,280) scale(0.35,0.35)">
					<g transform="">
						<rect x="-613.3" y="-246.4" width="16.5" height="16.5"/>
					</g>
				</g>
				<g transform="translate(0,315) scale(0.35,0.35)">
					<g transform="">
						<rect x="1307.4" y="-329.9" width="16.5" height="16.5"/>
					</g>
				</g>
				<g transform="translate(35,315) scale(0.35,0.35)">
					<g transform="">
						<rect x="1223.9" y="-329.9" width="16.5" height="16.5"/>
					</g>
				</g>
				<g transform="translate(70,315) scale(0.35,0.35)">
					<g transform="">
						<rect x="1140.4" y="-329.9" width="16.5" height="16.5"/>
					</g>
				</g>
				<g transform="translate(315,315) scale(0.35,0.35)">
					<g transform="">
						<rect x="555.8" y="-329.9" width="16.5" height="16.5"/>
					</g>
				</g>
				<g transform="translate(455,315) scale(0.35,0.35)">
					<g transform="">
						<rect x="221.8" y="-329.9" width="16.5" height="16.5"/>
					</g>
				</g>
				<g transform="translate(525,315) scale(0.35,0.35)">
					<g transform="">
						<rect x="54.8" y="-329.9" width="16.5" height="16.5"/>
					</g>
				</g>
				<g transform="translate(560,315) scale(0.35,0.35)">
					<g transform="">
						<rect x="-28.8" y="-329.9" width="16.5" height="16.5"/>
					</g>
				</g>
				<g transform="translate(700,315) scale(0.35,0.35)">
					<g transform="">
						<rect x="-362.8" y="-329.9" width="16.5" height="16.5"/>
					</g>
				</g>
				<g transform="translate(735,315) scale(0.35,0.35)">
					<g transform="">
						<rect x="-446.3" y="-329.9" width="16.5" height="16.5"/>
					</g>
				</g>
				<g transform="translate(770,315) scale(0.35,0.35)">
					<g transform="">
						<rect x="-529.8" y="-329.9" width="16.5" height="16.5"/>
					</g>
				</g>
				<g transform="translate(875,315) scale(0.35,0.35)">
					<g transform="">
						<rect x="-780.3" y="-329.9" width="16.5" height="16.5"/>
					</g>
				</g>
				<g transform="translate(980,315) scale(0.35,0.35)">
					<g transform="">
						<rect x="-1030.9" y="-329.9" width="16.5" height="16.5"/>
					</g>
				</g>
				<g transform="translate(0,350) scale(0.35,0.35)">
					<g transform="">
						<rect x="1307.4" y="-413.4" width="16.5" height="16.5"/>
					</g>
				</g>
				<g transform="translate(105,350) scale(0.35,0.35)">
					<g transform="">
						<rect x="1056.9" y="-413.4" width="16.5" height="16.5"/>
					</g>
				</g>
				<g transform="translate(210,350) scale(0.35,0.35)">
					<g transform="">
						<rect x="806.3" y="-413.4" width="16.5" height="16.5"/>
					</g>
				</g>
				<g transform="translate(280,350) scale(0.35,0.35)">
					<g transform="">
						<rect x="639.3" y="-413.4" width="16.5" height="16.5"/>
					</g>
				</g>
				<g transform="translate(385,350) scale(0.35,0.35)">
					<g transform="">
						<rect x="388.8" y="-413.4" width="16.5" height="16.5"/>
					</g>
				</g>
				<g transform="translate(455,350) scale(0.35,0.35)">
					<g transform="">
						<rect x="221.8" y="-413.4" width="16.5" height="16.5"/>
					</g>
				</g>
				<g transform="translate(490,350) scale(0.35,0.35)">
					<g transform="">
						<rect x="138.3" y="-413.4" width="16.5" height="16.5"/>
					</g>
				</g>
				<g transform="translate(525,350) scale(0.35,0.35)">
					<g transform="">
						<rect x="54.8" y="-413.4" width="16.5" height="16.5"/>
					</g>
				</g>
				<g transform="translate(630,350) scale(0.35,0.35)">
					<g transform="">
						<rect x="-195.8" y="-413.4" width="16.5" height="16.5"/>
					</g>
				</g>
				<g transform="translate(665,350) scale(0.35,0.35)">
					<g transform="">
						<rect x="-279.3" y="-413.4" width="16.5" height="16.5"/>
					</g>
				</g>
				<g transform="translate(770,350) scale(0.35,0.35)">
					<g transform="">
						<rect x="-529.8" y="-413.4" width="16.5" height="16.5"/>
					</g>
				</g>
				<g transform="translate(875,350) scale(0.35,0.35)">
					<g transform="">
						<rect x="-780.3" y="-413.4" width="16.5" height="16.5"/>
					</g>
				</g>
				<g transform="translate(910,350) scale(0.35,0.35)">
					<g transform="">
						<rect x="-863.8" y="-413.4" width="16.5" height="16.5"/>
					</g>
				</g>
				<g transform="translate(945,350) scale(0.35,0.35)">
					<g transform="">
						<rect x="-947.4" y="-413.4" width="16.5" height="16.5"/>
					</g>
				</g>
				<g transform="translate(70,385) scale(0.35,0.35)">
					<g transform="">
						<rect x="1140.4" y="-496.9" width="16.5" height="16.5"/>
					</g>
				</g>
				<g transform="translate(105,385) scale(0.35,0.35)">
					<g transform="">
						<rect x="1056.9" y="-496.9" width="16.5" height="16.5"/>
					</g>
				</g>
				<g transform="translate(140,385) scale(0.35,0.35)">
					<g transform="">
						<rect x="973.4" y="-496.9" width="16.5" height="16.5"/>
					</g>
				</g>
				<g transform="translate(245,385) scale(0.35,0.35)">
					<g transform="">
						<rect x="722.8" y="-496.9" width="16.5" height="16.5"/>
					</g>
				</g>
				<g transform="translate(280,385) scale(0.35,0.35)">
					<g transform="">
						<rect x="639.3" y="-496.9" width="16.5" height="16.5"/>
					</g>
				</g>
				<g transform="translate(315,385) scale(0.35,0.35)">
					<g transform="">
						<rect x="555.8" y="-496.9" width="16.5" height="16.5"/>
					</g>
				</g>
				<g transform="translate(350,385) scale(0.35,0.35)">
					<g transform="">
						<rect x="472.3" y="-496.9" width="16.5" height="16.5"/>
					</g>
				</g>
				<g transform="translate(420,385) scale(0.35,0.35)">
					<g transform="">
						<rect x="305.3" y="-496.9" width="16.5" height="16.5"/>
					</g>
				</g>
				<g transform="translate(455,385) scale(0.35,0.35)">
					<g transform="">
						<rect x="221.8" y="-496.9" width="16.5" height="16.5"/>
					</g>
				</g>
				<g transform="translate(560,385) scale(0.35,0.35)">
					<g transform="">
						<rect x="-28.8" y="-496.9" width="16.5" height="16.5"/>
					</g>
				</g>
				<g transform="translate(700,385) scale(0.35,0.35)">
					<g transform="">
						<rect x="-362.8" y="-496.9" width="16.5" height="16.5"/>
					</g>
				</g>
				<g transform="translate(735,385) scale(0.35,0.35)">
					<g transform="">
						<rect x="-446.3" y="-496.9" width="16.5" height="16.5"/>
					</g>
				</g>
				<g transform="translate(805,385) scale(0.35,0.35)">
					<g transform="">
						<rect x="-613.3" y="-496.9" width="16.5" height="16.5"/>
					</g>
				</g>
				<g transform="translate(840,385) scale(0.35,0.35)">
					<g transform="">
						<rect x="-696.8" y="-496.9" width="16.5" height="16.5"/>
					</g>
				</g>
				<g transform="translate(910,385) scale(0.35,0.35)">
					<g transform="">
						<rect x="-863.8" y="-496.9" width="16.5" height="16.5"/>
					</g>
				</g>
				<g transform="translate(945,385) scale(0.35,0.35)">
					<g transform="">
						<rect x="-947.4" y="-496.9" width="16.5" height="16.5"/>
					</g>
				</g>
				<g transform="translate(35,420) scale(0.35,0.35)">
					<g transform="">
						<rect x="1223.9" y="-580.4" width="16.5" height="16.5"/>
					</g>
				</g>
				<g transform="translate(105,420) scale(0.35,0.35)">
					<g transform="">
						<rect x="1056.9" y="-580.4" width="16.5" height="16.5"/>
					</g>
				</g>
				<g transform="translate(175,420) scale(0.35,0.35)">
					<g transform="">
						<rect x="889.9" y="-580.4" width="16.5" height="16.5"/>
					</g>
				</g>
				<g transform="translate(210,420) scale(0.35,0.35)">
					<g transform="">
						<rect x="806.3" y="-580.4" width="16.5" height="16.5"/>
					</g>
				</g>
				<g transform="translate(245,420) scale(0.35,0.35)">
					<g transform="">
						<rect x="722.8" y="-580.4" width="16.5" height="16.5"/>
					</g>
				</g>
				<g transform="translate(385,420) scale(0.35,0.35)">
					<g transform="">
						<rect x="388.8" y="-580.4" width="16.5" height="16.5"/>
					</g>
				</g>
				<g transform="translate(490,420) scale(0.35,0.35)">
					<g transform="">
						<rect x="138.3" y="-580.4" width="16.5" height="16.5"/>
					</g>
				</g>
				<g transform="translate(525,420) scale(0.35,0.35)">
					<g transform="">
						<rect x="54.8" y="-580.4" width="16.5" height="16.5"/>
					</g>
				</g>
				<g transform="translate(595,420) scale(0.35,0.35)">
					<g transform="">
						<rect x="-112.3" y="-580.4" width="16.5" height="16.5"/>
					</g>
				</g>
				<g transform="translate(630,420) scale(0.35,0.35)">
					<g transform="">
						<rect x="-195.8" y="-580.4" width="16.5" height="16.5"/>
					</g>
				</g>
				<g transform="translate(665,420) scale(0.35,0.35)">
					<g transform="">
						<rect x="-279.3" y="-580.4" width="16.5" height="16.5"/>
					</g>
				</g>
				<g transform="translate(700,420) scale(0.35,0.35)">
					<g transform="">
						<rect x="-362.8" y="-580.4" width="16.5" height="16.5"/>
					</g>
				</g>
				<g transform="translate(735,420) scale(0.35,0.35)">
					<g transform="">
						<rect x="-446.3" y="-580.4" width="16.5" height="16.5"/>
					</g>
				</g>
				<g transform="translate(770,420) scale(0.35,0.35)">
					<g transform="">
						<rect x="-529.8" y="-580.4" width="16.5" height="16.5"/>
					</g>
				</g>
				<g transform="translate(875,420) scale(0.35,0.35)">
					<g transform="">
						<rect x="-780.3" y="-580.4" width="16.5" height="16.5"/>
					</g>
				</g>
				<g transform="translate(945,420) scale(0.35,0.35)">
					<g transform="">
						<rect x="-947.4" y="-580.4" width="16.5" height="16.5"/>
					</g>
				</g>
				<g transform="translate(980,420) scale(0.35,0.35)">
					<g transform="">
						<rect x="-1030.9" y="-580.4" width="16.5" height="16.5"/>
					</g>
				</g>
				<g transform="translate(0,455) scale(0.35,0.35)">
					<g transform="">
						<rect x="1307.4" y="-663.9" width="16.5" height="16.5"/>
					</g>
				</g>
				<g transform="translate(35,455) scale(0.35,0.35)">
					<g transform="">
						<rect x="1223.9" y="-663.9" width="16.5" height="16.5"/>
					</g>
				</g>
				<g transform="translate(70,455) scale(0.35,0.35)">
					<g transform="">
						<rect x="1140.4" y="-663.9" width="16.5" height="16.5"/>
					</g>
				</g>
				<g transform="translate(140,455) scale(0.35,0.35)">
					<g transform="">
						<rect x="973.4" y="-663.9" width="16.5" height="16.5"/>
					</g>
				</g>
				<g transform="translate(175,455) scale(0.35,0.35)">
					<g transform="">
						<rect x="889.9" y="-663.9" width="16.5" height="16.5"/>
					</g>
				</g>
				<g transform="translate(245,455) scale(0.35,0.35)">
					<g transform="">
						<rect x="722.8" y="-663.9" width="16.5" height="16.5"/>
					</g>
				</g>
				<g transform="translate(280,455) scale(0.35,0.35)">
					<g transform="">
						<rect x="639.3" y="-663.9" width="16.5" height="16.5"/>
					</g>
				</g>
				<g transform="translate(420,455) scale(0.35,0.35)">
					<g transform="">
						<rect x="305.3" y="-663.9" width="16.5" height="16.5"/>
					</g>
				</g>
				<g transform="translate(455,455) scale(0.35,0.35)">
					<g transform="">
						<rect x="221.8" y="-663.9" width="16.5" height="16.5"/>
					</g>
				</g>
				<g transform="translate(490,455) scale(0.35,0.35)">
					<g transform="">
						<rect x="138.3" y="-663.9" width="16.5" height="16.5"/>
					</g>
				</g>
				<g transform="translate(525,455) scale(0.35,0.35)">
					<g transform="">
						<rect x="54.8" y="-663.9" width="16.5" height="16.5"/>
					</g>
				</g>
				<g transform="translate(560,455) scale(0.35,0.35)">
					<g transform="">
						<rect x="-28.8" y="-663.9" width="16.5" height="16.5"/>
					</g>
				</g>
				<g transform="translate(665,455) scale(0.35,0.35)">
					<g transform="">
						<rect x="-279.3" y="-663.9" width="16.5" height="16.5"/>
					</g>
				</g>
				<g transform="translate(700,455) scale(0.35,0.35)">
					<g transform="">
						<rect x="-362.8" y="-663.9" width="16.5" height="16.5"/>
					</g>
				</g>
				<g transform="translate(735,455) scale(0.35,0.35)">
					<g transform="">
						<rect x="-446.3" y="-663.9" width="16.5" height="16.5"/>
					</g>
				</g>
				<g transform="translate(805,455) scale(0.35,0.35)">
					<g transform="">
						<rect x="-613.3" y="-663.9" width="16.5" height="16.5"/>
					</g>
				</g>
				<g transform="translate(70,490) scale(0.35,0.35)">
					<g transform="">
						<rect x="1140.4" y="-747.4" width="16.5" height="16.5"/>
					</g>
				</g>
				<g transform="translate(105,490) scale(0.35,0.35)">
					<g transform="">
						<rect x="1056.9" y="-747.4" width="16.5" height="16.5"/>
					</g>
				</g>
				<g transform="translate(175,490) scale(0.35,0.35)">
					<g transform="">
						<rect x="889.9" y="-747.4" width="16.5" height="16.5"/>
					</g>
				</g>
				<g transform="translate(210,490) scale(0.35,0.35)">
					<g transform="">
						<rect x="806.3" y="-747.4" width="16.5" height="16.5"/>
					</g>
				</g>
				<g transform="translate(280,490) scale(0.35,0.35)">
					<g transform="">
						<rect x="639.3" y="-747.4" width="16.5" height="16.5"/>
					</g>
				</g>
				<g transform="translate(350,490) scale(0.35,0.35)">
					<g transform="">
						<rect x="472.3" y="-747.4" width="16.5" height="16.5"/>
					</g>
				</g>
				<g transform="translate(385,490) scale(0.35,0.35)">
					<g transform="">
						<rect x="388.8" y="-747.4" width="16.5" height="16.5"/>
					</g>
				</g>
				<g transform="translate(455,490) scale(0.35,0.35)">
					<g transform="">
						<rect x="221.8" y="-747.4" width="16.5" height="16.5"/>
					</g>
				</g>
				<g transform="translate(490,490) scale(0.35,0.35)">
					<g transform="">
						<rect x="138.3" y="-747.4" width="16.5" height="16.5"/>
					</g>
				</g>
				<g transform="translate(735,490) scale(0.35,0.35)">
					<g transform="">
						<rect x="-446.3" y="-747.4" width="16.5" height="16.5"/>
					</g>
				</g>
				<g transform="translate(770,490) scale(0.35,0.35)">
					<g transform="">
						<rect x="-529.8" y="-747.4" width="16.5" height="16.5"/>
					</g>
				</g>
				<g transform="translate(805,490) scale(0.35,0.35)">
					<g transform="">
						<rect x="-613.3" y="-747.4" width="16.5" height="16.5"/>
					</g>
				</g>
				<g transform="translate(875,490) scale(0.35,0.35)">
					<g transform="">
						<rect x="-780.3" y="-747.4" width="16.5" height="16.5"/>
					</g>
				</g>
				<g transform="translate(910,490) scale(0.35,0.35)">
					<g transform="">
						<rect x="-863.8" y="-747.4" width="16.5" height="16.5"/>
					</g>
				</g>
				<g transform="translate(945,490) scale(0.35,0.35)">
					<g transform="">
						<rect x="-947.4" y="-747.4" width="16.5" height="16.5"/>
					</g>
				</g>
				<g transform="translate(980,490) scale(0.35,0.35)">
					<g transform="">
						<rect x="-1030.9" y="-747.4" width="16.5" height="16.5"/>
					</g>
				</g>
				<g transform="translate(35,525) scale(0.35,0.35)">
					<g transform="">
						<rect x="1223.9" y="-831" width="16.5" height="16.5"/>
					</g>
				</g>
				<g transform="translate(70,525) scale(0.35,0.35)">
					<g transform="">
						<rect x="1140.4" y="-831" width="16.5" height="16.5"/>
					</g>
				</g>
				<g transform="translate(175,525) scale(0.35,0.35)">
					<g transform="">
						<rect x="889.9" y="-831" width="16.5" height="16.5"/>
					</g>
				</g>
				<g transform="translate(280,525) scale(0.35,0.35)">
					<g transform="">
						<rect x="639.3" y="-831" width="16.5" height="16.5"/>
					</g>
				</g>
				<g transform="translate(350,525) scale(0.35,0.35)">
					<g transform="">
						<rect x="472.3" y="-831" width="16.5" height="16.5"/>
					</g>
				</g>
				<g transform="translate(525,525) scale(0.35,0.35)">
					<g transform="">
						<rect x="54.8" y="-831" width="16.5" height="16.5"/>
					</g>
				</g>
				<g transform="translate(595,525) scale(0.35,0.35)">
					<g transform="">
						<rect x="-112.3" y="-831" width="16.5" height="16.5"/>
					</g>
				</g>
				<g transform="translate(630,525) scale(0.35,0.35)">
					<g transform="">
						<rect x="-195.8" y="-831" width="16.5" height="16.5"/>
					</g>
				</g>
				<g transform="translate(875,525) scale(0.35,0.35)">
					<g transform="">
						<rect x="-780.3" y="-831" width="16.5" height="16.5"/>
					</g>
				</g>
				<g transform="translate(945,525) scale(0.35,0.35)">
					<g transform="">
						<rect x="-947.4" y="-831" width="16.5" height="16.5"/>
					</g>
				</g>
				<g transform="translate(0,560) scale(0.35,0.35)">
					<g transform="">
						<rect x="1307.4" y="-914.5" width="16.5" height="16.5"/>
					</g>
				</g>
				<g transform="translate(35,560) scale(0.35,0.35)">
					<g transform="">
						<rect x="1223.9" y="-914.5" width="16.5" height="16.5"/>
					</g>
				</g>
				<g transform="translate(70,560) scale(0.35,0.35)">
					<g transform="">
						<rect x="1140.4" y="-914.5" width="16.5" height="16.5"/>
					</g>
				</g>
				<g transform="translate(175,560) scale(0.35,0.35)">
					<g transform="">
						<rect x="889.9" y="-914.5" width="16.5" height="16.5"/>
					</g>
				</g>
				<g transform="translate(210,560) scale(0.35,0.35)">
					<g transform="">
						<rect x="806.3" y="-914.5" width="16.5" height="16.5"/>
					</g>
				</g>
				<g transform="translate(245,560) scale(0.35,0.35)">
					<g transform="">
						<rect x="722.8" y="-914.5" width="16.5" height="16.5"/>
					</g>
				</g>
				<g transform="translate(280,560) scale(0.35,0.35)">
					<g transform="">
						<rect x="639.3" y="-914.5" width="16.5" height="16.5"/>
					</g>
				</g>
				<g transform="translate(455,560) scale(0.35,0.35)">
					<g transform="">
						<rect x="221.8" y="-914.5" width="16.5" height="16.5"/>
					</g>
				</g>
				<g transform="translate(595,560) scale(0.35,0.35)">
					<g transform="">
						<rect x="-112.3" y="-914.5" width="16.5" height="16.5"/>
					</g>
				</g>
				<g transform="translate(665,560) scale(0.35,0.35)">
					<g transform="">
						<rect x="-279.3" y="-914.5" width="16.5" height="16.5"/>
					</g>
				</g>
				<g transform="translate(735,560) scale(0.35,0.35)">
					<g transform="">
						<rect x="-446.3" y="-914.5" width="16.5" height="16.5"/>
					</g>
				</g>
				<g transform="translate(805,560) scale(0.35,0.35)">
					<g transform="">
						<rect x="-613.3" y="-914.5" width="16.5" height="16.5"/>
					</g>
				</g>
				<g transform="translate(945,560) scale(0.35,0.35)">
					<g transform="">
						<rect x="-947.4" y="-914.5" width="16.5" height="16.5"/>
					</g>
				</g>
				<g transform="translate(35,595) scale(0.35,0.35)">
					<g transform="">
						<rect x="1223.9" y="-998" width="16.5" height="16.5"/>
					</g>
				</g>
				<g transform="translate(70,595) scale(0.35,0.35)">
					<g transform="">
						<rect x="1140.4" y="-998" width="16.5" height="16.5"/>
					</g>
				</g>
				<g transform="translate(140,595) scale(0.35,0.35)">
					<g transform="">
						<rect x="973.4" y="-998" width="16.5" height="16.5"/>
					</g>
				</g>
				<g transform="translate(315,595) scale(0.35,0.35)">
					<g transform="">
						<rect x="555.8" y="-998" width="16.5" height="16.5"/>
					</g>
				</g>
				<g transform="translate(350,595) scale(0.35,0.35)">
					<g transform="">
						<rect x="472.3" y="-998" width="16.5" height="16.5"/>
					</g>
				</g>
				<g transform="translate(455,595) scale(0.35,0.35)">
					<g transform="">
						<rect x="221.8" y="-998" width="16.5" height="16.5"/>
					</g>
				</g>
				<g transform="translate(490,595) scale(0.35,0.35)">
					<g transform="">
						<rect x="138.3" y="-998" width="16.5" height="16.5"/>
					</g>
				</g>
				<g transform="translate(525,595) scale(0.35,0.35)">
					<g transform="">
						<rect x="54.8" y="-998" width="16.5" height="16.5"/>
					</g>
				</g>
				<g transform="translate(560,595) scale(0.35,0.35)">
					<g transform="">
						<rect x="-28.8" y="-998" width="16.5" height="16.5"/>
					</g>
				</g>
				<g transform="translate(630,595) scale(0.35,0.35)">
					<g transform="">
						<rect x="-195.8" y="-998" width="16.5" height="16.5"/>
					</g>
				</g>
				<g transform="translate(735,595) scale(0.35,0.35)">
					<g transform="">
						<rect x="-446.3" y="-998" width="16.5" height="16.5"/>
					</g>
				</g>
				<g transform="translate(770,595) scale(0.35,0.35)">
					<g transform="">
						<rect x="-529.8" y="-998" width="16.5" height="16.5"/>
					</g>
				</g>
				<g transform="translate(805,595) scale(0.35,0.35)">
					<g transform="">
						<rect x="-613.3" y="-998" width="16.5" height="16.5"/>
					</g>
				</g>
				<g transform="translate(875,595) scale(0.35,0.35)">
					<g transform="">
						<rect x="-780.3" y="-998" width="16.5" height="16.5"/>
					</g>
				</g>
				<g transform="translate(980,595) scale(0.35,0.35)">
					<g transform="">
						<rect x="-1030.9" y="-998" width="16.5" height="16.5"/>
					</g>
				</g>
				<g transform="translate(0,630) scale(0.35,0.35)">
					<g transform="">
						<rect x="1307.4" y="-1081.5" width="16.5" height="16.5"/>
					</g>
				</g>
				<g transform="translate(70,630) scale(0.35,0.35)">
					<g transform="">
						<rect x="1140.4" y="-1081.5" width="16.5" height="16.5"/>
					</g>
				</g>
				<g transform="translate(140,630) scale(0.35,0.35)">
					<g transform="">
						<rect x="973.4" y="-1081.5" width="16.5" height="16.5"/>
					</g>
				</g>
				<g transform="translate(210,630) scale(0.35,0.35)">
					<g transform="">
						<rect x="806.3" y="-1081.5" width="16.5" height="16.5"/>
					</g>
				</g>
				<g transform="translate(245,630) scale(0.35,0.35)">
					<g transform="">
						<rect x="722.8" y="-1081.5" width="16.5" height="16.5"/>
					</g>
				</g>
				<g transform="translate(280,630) scale(0.35,0.35)">
					<g transform="">
						<rect x="639.3" y="-1081.5" width="16.5" height="16.5"/>
					</g>
				</g>
				<g transform="translate(350,630) scale(0.35,0.35)">
					<g transform="">
						<rect x="472.3" y="-1081.5" width="16.5" height="16.5"/>
					</g>
				</g>
				<g transform="translate(385,630) scale(0.35,0.35)">
					<g transform="">
						<rect x="388.8" y="-1081.5" width="16.5" height="16.5"/>
					</g>
				</g>
				<g transform="translate(490,630) scale(0.35,0.35)">
					<g transform="">
						<rect x="138.3" y="-1081.5" width="16.5" height="16.5"/>
					</g>
				</g>
				<g transform="translate(525,630) scale(0.35,0.35)">
					<g transform="">
						<rect x="54.8" y="-1081.5" width="16.5" height="16.5"/>
					</g>
				</g>
				<g transform="translate(560,630) scale(0.35,0.35)">
					<g transform="">
						<rect x="-28.8" y="-1081.5" width="16.5" height="16.5"/>
					</g>
				</g>
				<g transform="translate(735,630) scale(0.35,0.35)">
					<g transform="">
						<rect x="-446.3" y="-1081.5" width="16.5" height="16.5"/>
					</g>
				</g>
				<g transform="translate(805,630) scale(0.35,0.35)">
					<g transform="">
						<rect x="-613.3" y="-1081.5" width="16.5" height="16.5"/>
					</g>
				</g>
				<g transform="translate(840,630) scale(0.35,0.35)">
					<g transform="">
						<rect x="-696.8" y="-1081.5" width="16.5" height="16.5"/>
					</g>
				</g>
				<g transform="translate(945,630) scale(0.35,0.35)">
					<g transform="">
						<rect x="-947.4" y="-1081.5" width="16.5" height="16.5"/>
					</g>
				</g>
				<g transform="translate(980,630) scale(0.35,0.35)">
					<g transform="">
						<rect x="-1030.9" y="-1081.5" width="16.5" height="16.5"/>
					</g>
				</g>
				<g transform="translate(245,665) scale(0.35,0.35)">
					<g transform="">
						<rect x="722.8" y="-1165" width="16.5" height="16.5"/>
					</g>
				</g>
				<g transform="translate(490,665) scale(0.35,0.35)">
					<g transform="">
						<rect x="138.3" y="-1165" width="16.5" height="16.5"/>
					</g>
				</g>
				<g transform="translate(595,665) scale(0.35,0.35)">
					<g transform="">
						<rect x="-112.3" y="-1165" width="16.5" height="16.5"/>
					</g>
				</g>
				<g transform="translate(630,665) scale(0.35,0.35)">
					<g transform="">
						<rect x="-195.8" y="-1165" width="16.5" height="16.5"/>
					</g>
				</g>
				<g transform="translate(735,665) scale(0.35,0.35)">
					<g transform="">
						<rect x="-446.3" y="-1165" width="16.5" height="16.5"/>
					</g>
				</g>
				<g transform="translate(770,665) scale(0.35,0.35)">
					<g transform="">
						<rect x="-529.8" y="-1165" width="16.5" height="16.5"/>
					</g>
				</g>
				<g transform="translate(945,665) scale(0.35,0.35)">
					<g transform="">
						<rect x="-947.4" y="-1165" width="16.5" height="16.5"/>
					</g>
				</g>
				<g transform="translate(980,665) scale(0.35,0.35)">
					<g transform="">
						<rect x="-1030.9" y="-1165" width="16.5" height="16.5"/>
					</g>
				</g>
				<g transform="translate(0,700) scale(0.35,0.35)">
					<g transform="">
						<rect x="1307.4" y="-1248.5" width="16.5" height="16.5"/>
					</g>
				</g>
				<g transform="translate(210,700) scale(0.35,0.35)">
					<g transform="">
						<rect x="806.3" y="-1248.5" width="16.5" height="16.5"/>
					</g>
				</g>
				<g transform="translate(245,700) scale(0.35,0.35)">
					<g transform="">
						<rect x="722.8" y="-1248.5" width="16.5" height="16.5"/>
					</g>
				</g>
				<g transform="translate(315,700) scale(0.35,0.35)">
					<g transform="">
						<rect x="555.8" y="-1248.5" width="16.5" height="16.5"/>
					</g>
				</g>
				<g transform="translate(350,700) scale(0.35,0.35)">
					<g transform="">
						<rect x="472.3" y="-1248.5" width="16.5" height="16.5"/>
					</g>
				</g>
				<g transform="translate(420,700) scale(0.35,0.35)">
					<g transform="">
						<rect x="305.3" y="-1248.5" width="16.5" height="16.5"/>
					</g>
				</g>
				<g transform="translate(525,700) scale(0.35,0.35)">
					<g transform="">
						<rect x="54.8" y="-1248.5" width="16.5" height="16.5"/>
					</g>
				</g>
				<g transform="translate(700,700) scale(0.35,0.35)">
					<g transform="">
						<rect x="-362.8" y="-1248.5" width="16.5" height="16.5"/>
					</g>
				</g>
				<g transform="translate(735,700) scale(0.35,0.35)">
					<g transform="">
						<rect x="-446.3" y="-1248.5" width="16.5" height="16.5"/>
					</g>
				</g>
				<g transform="translate(770,700) scale(0.35,0.35)">
					<g transform="">
						<rect x="-529.8" y="-1248.5" width="16.5" height="16.5"/>
					</g>
				</g>
				<g transform="translate(805,700) scale(0.35,0.35)">
					<g transform="">
						<rect x="-613.3" y="-1248.5" width="16.5" height="16.5"/>
					</g>
				</g>
				<g transform="translate(840,700) scale(0.35,0.35)">
					<g transform="">
						<rect x="-696.8" y="-1248.5" width="16.5" height="16.5"/>
					</g>
				</g>
				<g transform="translate(910,700) scale(0.35,0.35)">
					<g transform="">
						<rect x="-863.8" y="-1248.5" width="16.5" height="16.5"/>
					</g>
				</g>
				<g transform="translate(280,735) scale(0.35,0.35)">
					<g transform="">
						<rect x="639.3" y="-1332" width="16.5" height="16.5"/>
					</g>
				</g>
				<g transform="translate(315,735) scale(0.35,0.35)">
					<g transform="">
						<rect x="555.8" y="-1332" width="16.5" height="16.5"/>
					</g>
				</g>
				<g transform="translate(385,735) scale(0.35,0.35)">
					<g transform="">
						<rect x="388.8" y="-1332" width="16.5" height="16.5"/>
					</g>
				</g>
				<g transform="translate(420,735) scale(0.35,0.35)">
					<g transform="">
						<rect x="305.3" y="-1332" width="16.5" height="16.5"/>
					</g>
				</g>
				<g transform="translate(490,735) scale(0.35,0.35)">
					<g transform="">
						<rect x="138.3" y="-1332" width="16.5" height="16.5"/>
					</g>
				</g>
				<g transform="translate(525,735) scale(0.35,0.35)">
					<g transform="">
						<rect x="54.8" y="-1332" width="16.5" height="16.5"/>
					</g>
				</g>
				<g transform="translate(665,735) scale(0.35,0.35)">
					<g transform="">
						<rect x="-279.3" y="-1332" width="16.5" height="16.5"/>
					</g>
				</g>
				<g transform="translate(700,735) scale(0.35,0.35)">
					<g transform="">
						<rect x="-362.8" y="-1332" width="16.5" height="16.5"/>
					</g>
				</g>
				<g transform="translate(840,735) scale(0.35,0.35)">
					<g transform="">
						<rect x="-696.8" y="-1332" width="16.5" height="16.5"/>
					</g>
				</g>
				<g transform="translate(910,735) scale(0.35,0.35)">
					<g transform="">
						<rect x="-863.8" y="-1332" width="16.5" height="16.5"/>
					</g>
				</g>
				<g transform="translate(945,735) scale(0.35,0.35)">
					<g transform="">
						<rect x="-947.4" y="-1332" width="16.5" height="16.5"/>
					</g>
				</g>
				<g transform="translate(980,735) scale(0.35,0.35)">
					<g transform="">
						<rect x="-1030.9" y="-1332" width="16.5" height="16.5"/>
					</g>
				</g>
				<g transform="translate(350,770) scale(0.35,0.35)">
					<g transform="">
						<rect x="472.3" y="-1415.5" width="16.5" height="16.5"/>
					</g>
				</g>
				<g transform="translate(385,770) scale(0.35,0.35)">
					<g transform="">
						<rect x="388.8" y="-1415.5" width="16.5" height="16.5"/>
					</g>
				</g>
				<g transform="translate(420,770) scale(0.35,0.35)">
					<g transform="">
						<rect x="305.3" y="-1415.5" width="16.5" height="16.5"/>
					</g>
				</g>
				<g transform="translate(560,770) scale(0.35,0.35)">
					<g transform="">
						<rect x="-28.8" y="-1415.5" width="16.5" height="16.5"/>
					</g>
				</g>
				<g transform="translate(595,770) scale(0.35,0.35)">
					<g transform="">
						<rect x="-112.3" y="-1415.5" width="16.5" height="16.5"/>
					</g>
				</g>
				<g transform="translate(630,770) scale(0.35,0.35)">
					<g transform="">
						<rect x="-195.8" y="-1415.5" width="16.5" height="16.5"/>
					</g>
				</g>
				<g transform="translate(700,770) scale(0.35,0.35)">
					<g transform="">
						<rect x="-362.8" y="-1415.5" width="16.5" height="16.5"/>
					</g>
				</g>
				<g transform="translate(770,770) scale(0.35,0.35)">
					<g transform="">
						<rect x="-529.8" y="-1415.5" width="16.5" height="16.5"/>
					</g>
				</g>
				<g transform="translate(840,770) scale(0.35,0.35)">
					<g transform="">
						<rect x="-696.8" y="-1415.5" width="16.5" height="16.5"/>
					</g>
				</g>
				<g transform="translate(945,770) scale(0.35,0.35)">
					<g transform="">
						<rect x="-947.4" y="-1415.5" width="16.5" height="16.5"/>
					</g>
				</g>
				<g transform="translate(280,805) scale(0.35,0.35)">
					<g transform="">
						<rect x="639.3" y="-1499" width="16.5" height="16.5"/>
					</g>
				</g>
				<g transform="translate(315,805) scale(0.35,0.35)">
					<g transform="">
						<rect x="555.8" y="-1499" width="16.5" height="16.5"/>
					</g>
				</g>
				<g transform="translate(385,805) scale(0.35,0.35)">
					<g transform="">
						<rect x="388.8" y="-1499" width="16.5" height="16.5"/>
					</g>
				</g>
				<g transform="translate(490,805) scale(0.35,0.35)">
					<g transform="">
						<rect x="138.3" y="-1499" width="16.5" height="16.5"/>
					</g>
				</g>
				<g transform="translate(525,805) scale(0.35,0.35)">
					<g transform="">
						<rect x="54.8" y="-1499" width="16.5" height="16.5"/>
					</g>
				</g>
				<g transform="translate(630,805) scale(0.35,0.35)">
					<g transform="">
						<rect x="-195.8" y="-1499" width="16.5" height="16.5"/>
					</g>
				</g>
				<g transform="translate(700,805) scale(0.35,0.35)">
					<g transform="">
						<rect x="-362.8" y="-1499" width="16.5" height="16.5"/>
					</g>
				</g>
				<g transform="translate(840,805) scale(0.35,0.35)">
					<g transform="">
						<rect x="-696.8" y="-1499" width="16.5" height="16.5"/>
					</g>
				</g>
				<g transform="translate(875,805) scale(0.35,0.35)">
					<g transform="">
						<rect x="-780.3" y="-1499" width="16.5" height="16.5"/>
					</g>
				</g>
				<g transform="translate(910,805) scale(0.35,0.35)">
					<g transform="">
						<rect x="-863.8" y="-1499" width="16.5" height="16.5"/>
					</g>
				</g>
				<g transform="translate(315,840) scale(0.35,0.35)">
					<g transform="">
						<rect x="555.8" y="-1582.5" width="16.5" height="16.5"/>
					</g>
				</g>
				<g transform="translate(350,840) scale(0.35,0.35)">
					<g transform="">
						<rect x="472.3" y="-1582.5" width="16.5" height="16.5"/>
					</g>
				</g>
				<g transform="translate(385,840) scale(0.35,0.35)">
					<g transform="">
						<rect x="388.8" y="-1582.5" width="16.5" height="16.5"/>
					</g>
				</g>
				<g transform="translate(420,840) scale(0.35,0.35)">
					<g transform="">
						<rect x="305.3" y="-1582.5" width="16.5" height="16.5"/>
					</g>
				</g>
				<g transform="translate(560,840) scale(0.35,0.35)">
					<g transform="">
						<rect x="-28.8" y="-1582.5" width="16.5" height="16.5"/>
					</g>
				</g>
				<g transform="translate(595,840) scale(0.35,0.35)">
					<g transform="">
						<rect x="-112.3" y="-1582.5" width="16.5" height="16.5"/>
					</g>
				</g>
				<g transform="translate(630,840) scale(0.35,0.35)">
					<g transform="">
						<rect x="-195.8" y="-1582.5" width="16.5" height="16.5"/>
					</g>
				</g>
				<g transform="translate(700,840) scale(0.35,0.35)">
					<g transform="">
						<rect x="-362.8" y="-1582.5" width="16.5" height="16.5"/>
					</g>
				</g>
				<g transform="translate(735,840) scale(0.35,0.35)">
					<g transform="">
						<rect x="-446.3" y="-1582.5" width="16.5" height="16.5"/>
					</g>
				</g>
				<g transform="translate(770,840) scale(0.35,0.35)">
					<g transform="">
						<rect x="-529.8" y="-1582.5" width="16.5" height="16.5"/>
					</g>
				</g>
				<g transform="translate(805,840) scale(0.35,0.35)">
					<g transform="">
						<rect x="-613.3" y="-1582.5" width="16.5" height="16.5"/>
					</g>
				</g>
				<g transform="translate(840,840) scale(0.35,0.35)">
					<g transform="">
						<rect x="-696.8" y="-1582.5" width="16.5" height="16.5"/>
					</g>
				</g>
				<g transform="translate(945,840) scale(0.35,0.35)">
					<g transform="">
						<rect x="-947.4" y="-1582.5" width="16.5" height="16.5"/>
					</g>
				</g>
				<g transform="translate(280,875) scale(0.35,0.35)">
					<g transform="">
						<rect x="639.3" y="-1666.1" width="16.5" height="16.5"/>
					</g>
				</g>
				<g transform="translate(315,875) scale(0.35,0.35)">
					<g transform="">
						<rect x="555.8" y="-1666.1" width="16.5" height="16.5"/>
					</g>
				</g>
				<g transform="translate(455,875) scale(0.35,0.35)">
					<g transform="">
						<rect x="221.8" y="-1666.1" width="16.5" height="16.5"/>
					</g>
				</g>
				<g transform="translate(525,875) scale(0.35,0.35)">
					<g transform="">
						<rect x="54.8" y="-1666.1" width="16.5" height="16.5"/>
					</g>
				</g>
				<g transform="translate(665,875) scale(0.35,0.35)">
					<g transform="">
						<rect x="-279.3" y="-1666.1" width="16.5" height="16.5"/>
					</g>
				</g>
				<g transform="translate(770,875) scale(0.35,0.35)">
					<g transform="">
						<rect x="-529.8" y="-1666.1" width="16.5" height="16.5"/>
					</g>
				</g>
				<g transform="translate(805,875) scale(0.35,0.35)">
					<g transform="">
						<rect x="-613.3" y="-1666.1" width="16.5" height="16.5"/>
					</g>
				</g>
				<g transform="translate(840,875) scale(0.35,0.35)">
					<g transform="">
						<rect x="-696.8" y="-1666.1" width="16.5" height="16.5"/>
					</g>
				</g>
				<g transform="translate(875,875) scale(0.35,0.35)">
					<g transform="">
						<rect x="-780.3" y="-1666.1" width="16.5" height="16.5"/>
					</g>
				</g>
				<g transform="translate(910,875) scale(0.35,0.35)">
					<g transform="">
						<rect x="-863.8" y="-1666.1" width="16.5" height="16.5"/>
					</g>
				</g>
				<g transform="translate(980,875) scale(0.35,0.35)">
					<g transform="">
						<rect x="-1030.9" y="-1666.1" width="16.5" height="16.5"/>
					</g>
				</g>
				<g transform="translate(315,910) scale(0.35,0.35)">
					<g transform="">
						<rect x="555.8" y="-1749.6" width="16.5" height="16.5"/>
					</g>
				</g>
				<g transform="translate(350,910) scale(0.35,0.35)">
					<g transform="">
						<rect x="472.3" y="-1749.6" width="16.5" height="16.5"/>
					</g>
				</g>
				<g transform="translate(385,910) scale(0.35,0.35)">
					<g transform="">
						<rect x="388.8" y="-1749.6" width="16.5" height="16.5"/>
					</g>
				</g>
				<g transform="translate(420,910) scale(0.35,0.35)">
					<g transform="">
						<rect x="305.3" y="-1749.6" width="16.5" height="16.5"/>
					</g>
				</g>
				<g transform="translate(455,910) scale(0.35,0.35)">
					<g transform="">
						<rect x="221.8" y="-1749.6" width="16.5" height="16.5"/>
					</g>
				</g>
				<g transform="translate(525,910) scale(0.35,0.35)">
					<g transform="">
						<rect x="54.8" y="-1749.6" width="16.5" height="16.5"/>
					</g>
				</g>
				<g transform="translate(560,910) scale(0.35,0.35)">
					<g transform="">
						<rect x="-28.8" y="-1749.6" width="16.5" height="16.5"/>
					</g>
				</g>
				<g transform="translate(665,910) scale(0.35,0.35)">
					<g transform="">
						<rect x="-279.3" y="-1749.6" width="16.5" height="16.5"/>
					</g>
				</g>
				<g transform="translate(700,910) scale(0.35,0.35)">
					<g transform="">
						<rect x="-362.8" y="-1749.6" width="16.5" height="16.5"/>
					</g>
				</g>
				<g transform="translate(735,910) scale(0.35,0.35)">
					<g transform="">
						<rect x="-446.3" y="-1749.6" width="16.5" height="16.5"/>
					</g>
				</g>
				<g transform="translate(840,910) scale(0.35,0.35)">
					<g transform="">
						<rect x="-696.8" y="-1749.6" width="16.5" height="16.5"/>
					</g>
				</g>
				<g transform="translate(875,910) scale(0.35,0.35)">
					<g transform="">
						<rect x="-780.3" y="-1749.6" width="16.5" height="16.5"/>
					</g>
				</g>
				<g transform="translate(910,910) scale(0.35,0.35)">
					<g transform="">
						<rect x="-863.8" y="-1749.6" width="16.5" height="16.5"/>
					</g>
				</g>
				<g transform="translate(980,910) scale(0.35,0.35)">
					<g transform="">
						<rect x="-1030.9" y="-1749.6" width="16.5" height="16.5"/>
					</g>
				</g>
				<g transform="translate(350,945) scale(0.35,0.35)">
					<g transform="">
						<rect x="472.3" y="-1833.1" width="16.5" height="16.5"/>
					</g>
				</g>
				<g transform="translate(385,945) scale(0.35,0.35)">
					<g transform="">
						<rect x="388.8" y="-1833.1" width="16.5" height="16.5"/>
					</g>
				</g>
				<g transform="translate(420,945) scale(0.35,0.35)">
					<g transform="">
						<rect x="305.3" y="-1833.1" width="16.5" height="16.5"/>
					</g>
				</g>
				<g transform="translate(455,945) scale(0.35,0.35)">
					<g transform="">
						<rect x="221.8" y="-1833.1" width="16.5" height="16.5"/>
					</g>
				</g>
				<g transform="translate(560,945) scale(0.35,0.35)">
					<g transform="">
						<rect x="-28.8" y="-1833.1" width="16.5" height="16.5"/>
					</g>
				</g>
				<g transform="translate(595,945) scale(0.35,0.35)">
					<g transform="">
						<rect x="-112.3" y="-1833.1" width="16.5" height="16.5"/>
					</g>
				</g>
				<g transform="translate(630,945) scale(0.35,0.35)">
					<g transform="">
						<rect x="-195.8" y="-1833.1" width="16.5" height="16.5"/>
					</g>
				</g>
				<g transform="translate(665,945) scale(0.35,0.35)">
					<g transform="">
						<rect x="-279.3" y="-1833.1" width="16.5" height="16.5"/>
					</g>
				</g>
				<g transform="translate(700,945) scale(0.35,0.35)">
					<g transform="">
						<rect x="-362.8" y="-1833.1" width="16.5" height="16.5"/>
					</g>
				</g>
				<g transform="translate(735,945) scale(0.35,0.35)">
					<g transform="">
						<rect x="-446.3" y="-1833.1" width="16.5" height="16.5"/>
					</g>
				</g>
				<g transform="translate(805,945) scale(0.35,0.35)">
					<g transform="">
						<rect x="-613.3" y="-1833.1" width="16.5" height="16.5"/>
					</g>
				</g>
				<g transform="translate(945,945) scale(0.35,0.35)">
					<g transform="">
						<rect x="-947.4" y="-1833.1" width="16.5" height="16.5"/>
					</g>
				</g>
				<g transform="translate(280,980) scale(0.35,0.35)">
					<g transform="">
						<rect x="639.3" y="-1916.6" width="16.5" height="16.5"/>
					</g>
				</g>
				<g transform="translate(350,980) scale(0.35,0.35)">
					<g transform="">
						<rect x="472.3" y="-1916.6" width="16.5" height="16.5"/>
					</g>
				</g>
				<g transform="translate(385,980) scale(0.35,0.35)">
					<g transform="">
						<rect x="388.8" y="-1916.6" width="16.5" height="16.5"/>
					</g>
				</g>
				<g transform="translate(420,980) scale(0.35,0.35)">
					<g transform="">
						<rect x="305.3" y="-1916.6" width="16.5" height="16.5"/>
					</g>
				</g>
				<g transform="translate(455,980) scale(0.35,0.35)">
					<g transform="">
						<rect x="221.8" y="-1916.6" width="16.5" height="16.5"/>
					</g>
				</g>
				<g transform="translate(490,980) scale(0.35,0.35)">
					<g transform="">
						<rect x="138.3" y="-1916.6" width="16.5" height="16.5"/>
					</g>
				</g>
				<g transform="translate(525,980) scale(0.35,0.35)">
					<g transform="">
						<rect x="54.8" y="-1916.6" width="16.5" height="16.5"/>
					</g>
				</g>
				<g transform="translate(630,980) scale(0.35,0.35)">
					<g transform="">
						<rect x="-195.8" y="-1916.6" width="16.5" height="16.5"/>
					</g>
				</g>
				<g transform="translate(700,980) scale(0.35,0.35)">
					<g transform="">
						<rect x="-362.8" y="-1916.6" width="16.5" height="16.5"/>
					</g>
				</g>
				<g transform="translate(805,980) scale(0.35,0.35)">
					<g transform="">
						<rect x="-613.3" y="-1916.6" width="16.5" height="16.5"/>
					</g>
				</g>
				<g transform="translate(840,980) scale(0.35,0.35)">
					<g transform="">
						<rect x="-696.8" y="-1916.6" width="16.5" height="16.5"/>
					</g>
				</g>
				<g transform="translate(875,980) scale(0.35,0.35)">
					<g transform="">
						<rect x="-780.3" y="-1916.6" width="16.5" height="16.5"/>
					</g>
				</g>
				<g transform="translate(945,980) scale(0.35,0.35)">
					<g transform="">
						<rect x="-947.4" y="-1916.6" width="16.5" height="16.5"/>
					</g>
				</g>
				<g transform="translate(0,0) scale(2.45, 2.45)">
					<g transform="">
						<g>
							<rect x="189.2" y="62.7" class="st4" width="11.5" height="11.5"/>
							<path d="M200.8,60.2h-11.5h-2.5v2.5v11.5v2.5h2.5h11.5h2.5v-2.5V62.7v-2.5H200.8z M200.8,74.3h-11.5V62.7h11.5V74.3z"/>
						</g>
					</g>
				</g>
				<g transform="translate(770,0) scale(2.45, 2.45)">
					<g transform="">
						<g>
							<rect x="-73.2" y="62.7" class="st4" width="11.5" height="11.5"/>
							<path d="M-61.7,60.2h-11.5h-2.5v2.5v11.5v2.5h2.5h11.5h2.5v-2.5V62.7v-2.5H-61.7z M-61.7,74.3h-11.5V62.7h11.5V74.3z"/>
						</g>
					</g>
				</g>
				<g transform="translate(0,770) scale(2.45, 2.45)">
					<g transform="">
						<g>
							<rect x="189.2" y="-199.7" class="st4" width="11.5" height="11.5"/>
							<path d="M200.8-202.2h-11.5h-2.5v2.5v11.5v2.5h2.5h11.5h2.5v-2.5v-11.5v-2.5H200.8z M200.8-188.2h-11.5v-11.5h11.5V-188.2z"
								/>
						</g>
					</g>
				</g>
				<g transform="translate(70,70) scale(1.05, 1.05)">
					<g transform="">
						<rect x="380.1" y="84.9" width="16.5" height="16.5"/>
					</g>
				</g>
				<g transform="translate(840,70) scale(1.05, 1.05)">
					<g transform="">
						<rect x="-232.3" y="84.9" width="16.5" height="16.5"/>
					</g>
				</g>
				<g transform="translate(70,840) scale(1.05, 1.05)">
					<g transform="">
						<rect x="380.1" y="-527.5" width="16.5" height="16.5"/>
					</g>
				</g>
			</g>
		</g>
	</g>
	<g>
		<text transform="matrix(1 0 0 1 587.4551 442.9307)" class="st5 st6 st7">Scan Me</text>
		<g>
			<path class="st8" d="M552,430.1v-6.4c0-0.5,0.4-0.9,0.9-0.9h6.3"/>
			<path class="st8" d="M578.6,430.1v-6.4c0-0.5-0.4-0.9-0.9-0.9h-6.3"/>
			<path class="st8" d="M552,442v6.4c0,0.5,0.4,0.9,0.9,0.9h6.3"/>
			<path class="st8" d="M578.6,442v6.4c0,0.5-0.4,0.9-0.9,0.9h-6.3"/>
		</g>
	</g>
	<line class="st8" x1="509.1" y1="406.7" x2="718" y2="406.7"/>
</g>
<polygon class="st1" points="531.9,104.2 801.5,104.2 801.5,69.5 531.9,69.5 517.1,86 "/>
<polygon class="st2" points="687.9,155.8 801.5,155.8 801.5,121.1 687.9,121.1 673.1,137.5 "/>
<g>
	<defs>
		<rect id="SVGID_1_" x="0" y="0.1" width="801.5" height="518.6"/>
	</defs>
	<clipPath id="SVGID_00000072962362165011334520000011846433530356069793_">
		<use xlink:href="#SVGID_1_"  style="overflow:visible;"/>
	</clipPath>
	<g style="clip-path:url(#SVGID_00000072962362165011334520000011846433530356069793_);">
		<polygon class="st10" points="375.1,403.8 -20.6,403.8 -20.6,289.5 375.1,289.5 420.7,343.8 		"/>
		<polygon class="st1" points="375.1,387.3 0,387.3 0,273 375.1,273 420.7,327.3 		"/>
		<g>
			<text transform="matrix(1 0 0 1 47.0562 332.7383)" class="st0 st11 st12">Your Name</text>
			<g class="st13">
				<text transform="matrix(1 0 0 1 53.2056 367.7295)" class="st0 st14 st15">Manager</text>
			</g>
		</g>
	</g>
</g>
</svg>
