<?xml version="1.0" encoding="UTF-8"?>
<svg id="Layer_1" data-name="Layer 1" xmlns="http://www.w3.org/2000/svg" width="257.76" height="323.98" viewBox="0 0 257.76 323.98">
  <defs>
    <style>
      .cls-1, .cls-2 {
        fill: none;
      }

      .cls-2 {
        stroke: #1d1d1b;
        stroke-miterlimit: 10;
        stroke-width: 3.56px;
      }

      .cls-3 {
        fill: #010100;
      }

      .cls-4 {
        fill: #fff;
      }
    </style>
  </defs>
  <g>
    <rect class="cls-4" width="257.76" height="323.98" rx="33.62" ry="33.62"/>
    <g>
      <rect x="94.05" y="24.99" width="7.12" height="7.12"/>
      <rect x="101.17" y="24.99" width="7.12" height="7.12"/>
      <rect x="122.53" y="24.99" width="7.12" height="7.12"/>
      <rect x="143.89" y="24.99" width="7.12" height="7.12"/>
      <rect x="151.01" y="24.99" width="7.12" height="7.12"/>
      <rect x="158.13" y="24.99" width="7.12" height="7.12"/>
      <rect x="165.25" y="24.99" width="7.12" height="7.12"/>
      <rect x="86.92" y="32.11" width="7.12" height="7.12"/>
      <rect x="94.05" y="32.11" width="7.12" height="7.12"/>
      <rect x="101.17" y="32.11" width="7.12" height="7.12"/>
      <rect x="108.29" y="32.11" width="7.12" height="7.12"/>
      <rect x="136.77" y="32.11" width="7.12" height="7.12"/>
      <rect x="151.01" y="32.11" width="7.12" height="7.12"/>
      <rect x="108.29" y="39.23" width="7.12" height="7.12"/>
      <rect x="122.53" y="39.23" width="7.12" height="7.12"/>
      <rect x="129.65" y="39.23" width="7.12" height="7.12"/>
      <rect x="143.89" y="39.23" width="7.12" height="7.12"/>
      <rect x="151.01" y="39.23" width="7.12" height="7.12"/>
      <rect x="165.25" y="39.23" width="7.12" height="7.12"/>
      <rect x="86.92" y="46.35" width="7.12" height="7.12"/>
      <rect x="94.05" y="46.35" width="7.12" height="7.12"/>
      <rect x="101.17" y="46.35" width="7.12" height="7.12"/>
      <rect x="108.29" y="46.35" width="7.12" height="7.12"/>
      <rect x="115.41" y="46.35" width="7.12" height="7.12"/>
      <rect x="136.77" y="46.35" width="7.12" height="7.12"/>
      <rect x="151.01" y="46.35" width="7.12" height="7.12"/>
      <rect x="158.13" y="46.35" width="7.12" height="7.12"/>
      <rect x="165.25" y="46.35" width="7.12" height="7.12"/>
      <rect x="86.92" y="53.47" width="7.12" height="7.12"/>
      <rect x="94.05" y="53.47" width="7.12" height="7.12"/>
      <rect x="151.01" y="53.47" width="7.12" height="7.12"/>
      <rect x="79.8" y="60.59" width="7.12" height="7.12"/>
      <rect x="86.92" y="60.59" width="7.12" height="7.12"/>
      <rect x="94.05" y="60.59" width="7.12" height="7.12"/>
      <rect x="129.65" y="60.59" width="7.12" height="7.12"/>
      <rect x="136.77" y="60.59" width="7.12" height="7.12"/>
      <rect x="143.89" y="60.59" width="7.12" height="7.12"/>
      <rect x="158.13" y="60.59" width="7.12" height="7.12"/>
      <rect x="79.8" y="67.71" width="7.12" height="7.12"/>
      <rect x="94.05" y="67.71" width="7.12" height="7.12"/>
      <rect x="108.29" y="67.71" width="7.12" height="7.12"/>
      <rect x="122.53" y="67.71" width="7.12" height="7.12"/>
      <rect x="136.77" y="67.71" width="7.12" height="7.12"/>
      <rect x="151.01" y="67.71" width="7.12" height="7.12"/>
      <rect x="165.25" y="67.71" width="7.12" height="7.12"/>
      <rect x="115.41" y="74.83" width="7.12" height="7.12"/>
      <rect x="129.65" y="74.83" width="7.12" height="7.12"/>
      <rect x="136.77" y="74.83" width="7.12" height="7.12"/>
      <rect x="143.89" y="74.83" width="7.12" height="7.12"/>
      <rect x="151.01" y="74.83" width="7.12" height="7.12"/>
      <rect x="165.25" y="74.83" width="7.12" height="7.12"/>
      <rect x="22.84" y="81.95" width="7.12" height="7.12"/>
      <rect x="44.2" y="81.95" width="7.12" height="7.12"/>
      <rect x="58.44" y="81.95" width="7.12" height="7.12"/>
      <rect x="65.56" y="81.95" width="7.12" height="7.12"/>
      <rect x="79.8" y="81.95" width="7.12" height="7.12"/>
      <rect x="86.92" y="81.95" width="7.12" height="7.12"/>
      <rect x="108.29" y="81.95" width="7.12" height="7.12"/>
      <rect x="122.53" y="81.95" width="7.12" height="7.12"/>
      <rect x="136.77" y="81.95" width="7.12" height="7.12"/>
      <rect x="172.38" y="81.95" width="7.12" height="7.12"/>
      <rect x="186.62" y="81.95" width="7.12" height="7.12"/>
      <rect x="22.84" y="89.07" width="7.12" height="7.12"/>
      <rect x="29.96" y="89.07" width="7.12" height="7.12"/>
      <rect x="37.08" y="89.07" width="7.12" height="7.12"/>
      <rect x="86.92" y="89.07" width="7.12" height="7.12"/>
      <rect x="115.41" y="89.07" width="7.12" height="7.12"/>
      <rect x="129.65" y="89.07" width="7.12" height="7.12"/>
      <rect x="136.77" y="89.07" width="7.12" height="7.12"/>
      <rect x="165.25" y="89.07" width="7.12" height="7.12"/>
      <rect x="172.38" y="89.07" width="7.12" height="7.12"/>
      <rect x="179.5" y="89.07" width="7.12" height="7.12"/>
      <rect x="200.86" y="89.07" width="7.12" height="7.12"/>
      <rect x="222.22" y="89.07" width="7.12" height="7.12"/>
      <rect x="22.84" y="96.2" width="7.12" height="7.12"/>
      <rect x="44.2" y="96.2" width="7.12" height="7.12"/>
      <rect x="65.56" y="96.2" width="7.12" height="7.12"/>
      <rect x="79.8" y="96.2" width="7.12" height="7.12"/>
      <rect x="101.17" y="96.2" width="7.12" height="7.12"/>
      <rect x="115.41" y="96.2" width="7.12" height="7.12"/>
      <rect x="122.53" y="96.2" width="7.12" height="7.12"/>
      <rect x="129.65" y="96.2" width="7.12" height="7.12"/>
      <rect x="151.01" y="96.2" width="7.12" height="7.12"/>
      <rect x="158.13" y="96.2" width="7.12" height="7.12"/>
      <rect x="179.5" y="96.2" width="7.12" height="7.12"/>
      <rect x="200.86" y="96.2" width="7.12" height="7.12"/>
      <rect x="207.98" y="96.2" width="7.12" height="7.12"/>
      <rect x="215.1" y="96.2" width="7.12" height="7.12"/>
      <rect x="37.08" y="103.32" width="7.12" height="7.12"/>
      <rect x="44.2" y="103.32" width="7.12" height="7.12"/>
      <rect x="51.32" y="103.32" width="7.12" height="7.12"/>
      <rect x="72.68" y="103.32" width="7.12" height="7.12"/>
      <rect x="79.8" y="103.32" width="7.12" height="7.12"/>
      <rect x="86.92" y="103.32" width="7.12" height="7.12"/>
      <rect x="94.05" y="103.32" width="7.12" height="7.12"/>
      <rect x="108.29" y="103.32" width="7.12" height="7.12"/>
      <rect x="115.41" y="103.32" width="7.12" height="7.12"/>
      <rect x="136.77" y="103.32" width="7.12" height="7.12"/>
      <rect x="165.25" y="103.32" width="7.12" height="7.12"/>
      <rect x="172.38" y="103.32" width="7.12" height="7.12"/>
      <rect x="186.62" y="103.32" width="7.12" height="7.12"/>
      <rect x="193.74" y="103.32" width="7.12" height="7.12"/>
      <rect x="207.98" y="103.32" width="7.12" height="7.12"/>
      <rect x="215.1" y="103.32" width="7.12" height="7.12"/>
      <rect x="29.96" y="110.44" width="7.12" height="7.12"/>
      <rect x="44.2" y="110.44" width="7.12" height="7.12"/>
      <rect x="58.44" y="110.44" width="7.12" height="7.12"/>
      <rect x="65.56" y="110.44" width="7.12" height="7.12"/>
      <rect x="72.68" y="110.44" width="7.12" height="7.12"/>
      <rect x="101.17" y="110.44" width="7.12" height="7.12"/>
      <rect x="122.53" y="110.44" width="7.12" height="7.12"/>
      <rect x="129.65" y="110.44" width="7.12" height="7.12"/>
      <rect x="143.89" y="110.44" width="7.12" height="7.12"/>
      <rect x="151.01" y="110.44" width="7.12" height="7.12"/>
      <rect x="158.13" y="110.44" width="7.12" height="7.12"/>
      <rect x="165.25" y="110.44" width="7.12" height="7.12"/>
      <rect x="172.38" y="110.44" width="7.12" height="7.12"/>
      <rect x="179.5" y="110.44" width="7.12" height="7.12"/>
      <rect x="200.86" y="110.44" width="7.12" height="7.12"/>
      <rect x="215.1" y="110.44" width="7.12" height="7.12"/>
      <rect x="222.22" y="110.44" width="7.12" height="7.12"/>
      <rect x="22.84" y="117.56" width="7.12" height="7.12"/>
      <rect x="29.96" y="117.56" width="7.12" height="7.12"/>
      <rect x="37.08" y="117.56" width="7.12" height="7.12"/>
      <rect x="51.32" y="117.56" width="7.12" height="7.12"/>
      <rect x="58.44" y="117.56" width="7.12" height="7.12"/>
      <rect x="72.68" y="117.56" width="7.12" height="7.12"/>
      <rect x="79.8" y="117.56" width="7.12" height="7.12"/>
      <rect x="108.29" y="117.56" width="7.12" height="7.12"/>
      <rect x="115.41" y="117.56" width="7.12" height="7.12"/>
      <rect x="122.53" y="117.56" width="7.12" height="7.12"/>
      <rect x="129.65" y="117.56" width="7.12" height="7.12"/>
      <rect x="136.77" y="117.56" width="7.12" height="7.12"/>
      <rect x="158.13" y="117.56" width="7.12" height="7.12"/>
      <rect x="165.25" y="117.56" width="7.12" height="7.12"/>
      <rect x="172.38" y="117.56" width="7.12" height="7.12"/>
      <rect x="186.62" y="117.56" width="7.12" height="7.12"/>
      <rect x="37.08" y="124.68" width="7.12" height="7.12"/>
      <rect x="44.2" y="124.68" width="7.12" height="7.12"/>
      <rect x="58.44" y="124.68" width="7.12" height="7.12"/>
      <rect x="65.56" y="124.68" width="7.12" height="7.12"/>
      <rect x="79.8" y="124.68" width="7.12" height="7.12"/>
      <rect x="94.05" y="124.68" width="7.12" height="7.12"/>
      <rect x="101.17" y="124.68" width="7.12" height="7.12"/>
      <rect x="115.41" y="124.68" width="7.12" height="7.12"/>
      <rect x="122.53" y="124.68" width="7.12" height="7.12"/>
      <rect x="172.38" y="124.68" width="7.12" height="7.12"/>
      <rect x="179.5" y="124.68" width="7.12" height="7.12"/>
      <rect x="186.62" y="124.68" width="7.12" height="7.12"/>
      <rect x="200.86" y="124.68" width="7.12" height="7.12"/>
      <rect x="207.98" y="124.68" width="7.12" height="7.12"/>
      <rect x="215.1" y="124.68" width="7.12" height="7.12"/>
      <rect x="222.22" y="124.68" width="7.12" height="7.12"/>
      <rect x="29.96" y="131.8" width="7.12" height="7.12"/>
      <rect x="37.08" y="131.8" width="7.12" height="7.12"/>
      <rect x="58.44" y="131.8" width="7.12" height="7.12"/>
      <rect x="79.8" y="131.8" width="7.12" height="7.12"/>
      <rect x="94.05" y="131.8" width="7.12" height="7.12"/>
      <rect x="129.65" y="131.8" width="7.12" height="7.12"/>
      <rect x="143.89" y="131.8" width="7.12" height="7.12"/>
      <rect x="151.01" y="131.8" width="7.12" height="7.12"/>
      <rect x="200.86" y="131.8" width="7.12" height="7.12"/>
      <rect x="215.1" y="131.8" width="7.12" height="7.12"/>
      <rect x="22.84" y="138.92" width="7.12" height="7.12"/>
      <rect x="29.96" y="138.92" width="7.12" height="7.12"/>
      <rect x="37.08" y="138.92" width="7.12" height="7.12"/>
      <rect x="58.44" y="138.92" width="7.12" height="7.12"/>
      <rect x="65.56" y="138.92" width="7.12" height="7.12"/>
      <rect x="72.68" y="138.92" width="7.12" height="7.12"/>
      <rect x="79.8" y="138.92" width="7.12" height="7.12"/>
      <rect x="115.41" y="138.92" width="7.12" height="7.12"/>
      <rect x="143.89" y="138.92" width="7.12" height="7.12"/>
      <rect x="158.13" y="138.92" width="7.12" height="7.12"/>
      <rect x="172.38" y="138.92" width="7.12" height="7.12"/>
      <rect x="186.62" y="138.92" width="7.12" height="7.12"/>
      <rect x="215.1" y="138.92" width="7.12" height="7.12"/>
      <rect x="29.96" y="146.04" width="7.12" height="7.12"/>
      <rect x="37.08" y="146.04" width="7.12" height="7.12"/>
      <rect x="51.32" y="146.04" width="7.12" height="7.12"/>
      <rect x="86.92" y="146.04" width="7.12" height="7.12"/>
      <rect x="94.05" y="146.04" width="7.12" height="7.12"/>
      <rect x="115.41" y="146.04" width="7.12" height="7.12"/>
      <rect x="122.53" y="146.04" width="7.12" height="7.12"/>
      <rect x="129.65" y="146.04" width="7.12" height="7.12"/>
      <rect x="136.77" y="146.04" width="7.12" height="7.12"/>
      <rect x="151.01" y="146.04" width="7.12" height="7.12"/>
      <rect x="172.38" y="146.04" width="7.12" height="7.12"/>
      <rect x="179.5" y="146.04" width="7.12" height="7.12"/>
      <rect x="186.62" y="146.04" width="7.12" height="7.12"/>
      <rect x="200.86" y="146.04" width="7.12" height="7.12"/>
      <rect x="222.22" y="146.04" width="7.12" height="7.12"/>
      <rect x="22.84" y="153.16" width="7.12" height="7.12"/>
      <rect x="37.08" y="153.16" width="7.12" height="7.12"/>
      <rect x="51.32" y="153.16" width="7.12" height="7.12"/>
      <rect x="65.56" y="153.16" width="7.12" height="7.12"/>
      <rect x="72.68" y="153.16" width="7.12" height="7.12"/>
      <rect x="79.8" y="153.16" width="7.12" height="7.12"/>
      <rect x="94.05" y="153.16" width="7.12" height="7.12"/>
      <rect x="101.17" y="153.16" width="7.12" height="7.12"/>
      <rect x="122.53" y="153.16" width="7.12" height="7.12"/>
      <rect x="129.65" y="153.16" width="7.12" height="7.12"/>
      <rect x="136.77" y="153.16" width="7.12" height="7.12"/>
      <rect x="172.38" y="153.16" width="7.12" height="7.12"/>
      <rect x="186.62" y="153.16" width="7.12" height="7.12"/>
      <rect x="193.74" y="153.16" width="7.12" height="7.12"/>
      <rect x="215.1" y="153.16" width="7.12" height="7.12"/>
      <rect x="222.22" y="153.16" width="7.12" height="7.12"/>
      <rect x="72.68" y="160.28" width="7.12" height="7.12"/>
      <rect x="122.53" y="160.28" width="7.12" height="7.12"/>
      <rect x="143.89" y="160.28" width="7.12" height="7.12"/>
      <rect x="151.01" y="160.28" width="7.12" height="7.12"/>
      <rect x="172.38" y="160.28" width="7.12" height="7.12"/>
      <rect x="179.5" y="160.28" width="7.12" height="7.12"/>
      <rect x="215.1" y="160.28" width="7.12" height="7.12"/>
      <rect x="222.22" y="160.28" width="7.12" height="7.12"/>
      <rect x="22.84" y="167.4" width="7.12" height="7.12"/>
      <rect x="65.56" y="167.4" width="7.12" height="7.12"/>
      <rect x="72.68" y="167.4" width="7.12" height="7.12"/>
      <rect x="86.92" y="167.4" width="7.12" height="7.12"/>
      <rect x="94.05" y="167.4" width="7.12" height="7.12"/>
      <rect x="108.29" y="167.4" width="7.12" height="7.12"/>
      <rect x="129.65" y="167.4" width="7.12" height="7.12"/>
      <rect x="165.25" y="167.4" width="7.12" height="7.12"/>
      <rect x="172.38" y="167.4" width="7.12" height="7.12"/>
      <rect x="179.5" y="167.4" width="7.12" height="7.12"/>
      <rect x="186.62" y="167.4" width="7.12" height="7.12"/>
      <rect x="193.74" y="167.4" width="7.12" height="7.12"/>
      <rect x="207.98" y="167.4" width="7.12" height="7.12"/>
      <rect x="79.8" y="174.53" width="7.12" height="7.12"/>
      <rect x="86.92" y="174.53" width="7.12" height="7.12"/>
      <rect x="101.17" y="174.53" width="7.12" height="7.12"/>
      <rect x="108.29" y="174.53" width="7.12" height="7.12"/>
      <rect x="122.53" y="174.53" width="7.12" height="7.12"/>
      <rect x="129.65" y="174.53" width="7.12" height="7.12"/>
      <rect x="158.13" y="174.53" width="7.12" height="7.12"/>
      <rect x="165.25" y="174.53" width="7.12" height="7.12"/>
      <rect x="193.74" y="174.53" width="7.12" height="7.12"/>
      <rect x="207.98" y="174.53" width="7.12" height="7.12"/>
      <rect x="215.1" y="174.53" width="7.12" height="7.12"/>
      <rect x="222.22" y="174.53" width="7.12" height="7.12"/>
      <rect x="94.05" y="181.65" width="7.12" height="7.12"/>
      <rect x="101.17" y="181.65" width="7.12" height="7.12"/>
      <rect x="108.29" y="181.65" width="7.12" height="7.12"/>
      <rect x="136.77" y="181.65" width="7.12" height="7.12"/>
      <rect x="143.89" y="181.65" width="7.12" height="7.12"/>
      <rect x="151.01" y="181.65" width="7.12" height="7.12"/>
      <rect x="165.25" y="181.65" width="7.12" height="7.12"/>
      <rect x="179.5" y="181.65" width="7.12" height="7.12"/>
      <rect x="193.74" y="181.65" width="7.12" height="7.12"/>
      <rect x="215.1" y="181.65" width="7.12" height="7.12"/>
      <rect x="79.8" y="188.77" width="7.12" height="7.12"/>
      <rect x="86.92" y="188.77" width="7.12" height="7.12"/>
      <rect x="101.17" y="188.77" width="7.12" height="7.12"/>
      <rect x="122.53" y="188.77" width="7.12" height="7.12"/>
      <rect x="129.65" y="188.77" width="7.12" height="7.12"/>
      <rect x="151.01" y="188.77" width="7.12" height="7.12"/>
      <rect x="165.25" y="188.77" width="7.12" height="7.12"/>
      <rect x="193.74" y="188.77" width="7.12" height="7.12"/>
      <rect x="200.86" y="188.77" width="7.12" height="7.12"/>
      <rect x="207.98" y="188.77" width="7.12" height="7.12"/>
      <rect x="86.92" y="195.89" width="7.12" height="7.12"/>
      <rect x="94.05" y="195.89" width="7.12" height="7.12"/>
      <rect x="101.17" y="195.89" width="7.12" height="7.12"/>
      <rect x="108.29" y="195.89" width="7.12" height="7.12"/>
      <rect x="136.77" y="195.89" width="7.12" height="7.12"/>
      <rect x="143.89" y="195.89" width="7.12" height="7.12"/>
      <rect x="151.01" y="195.89" width="7.12" height="7.12"/>
      <rect x="165.25" y="195.89" width="7.12" height="7.12"/>
      <rect x="172.38" y="195.89" width="7.12" height="7.12"/>
      <rect x="179.5" y="195.89" width="7.12" height="7.12"/>
      <rect x="186.62" y="195.89" width="7.12" height="7.12"/>
      <rect x="193.74" y="195.89" width="7.12" height="7.12"/>
      <rect x="215.1" y="195.89" width="7.12" height="7.12"/>
      <rect x="79.8" y="203.01" width="7.12" height="7.12"/>
      <rect x="86.92" y="203.01" width="7.12" height="7.12"/>
      <rect x="115.41" y="203.01" width="7.12" height="7.12"/>
      <rect x="129.65" y="203.01" width="7.12" height="7.12"/>
      <rect x="158.13" y="203.01" width="7.12" height="7.12"/>
      <rect x="179.5" y="203.01" width="7.12" height="7.12"/>
      <rect x="186.62" y="203.01" width="7.12" height="7.12"/>
      <rect x="193.74" y="203.01" width="7.12" height="7.12"/>
      <rect x="200.86" y="203.01" width="7.12" height="7.12"/>
      <rect x="207.98" y="203.01" width="7.12" height="7.12"/>
      <rect x="222.22" y="203.01" width="7.12" height="7.12"/>
      <rect x="86.92" y="210.13" width="7.12" height="7.12"/>
      <rect x="94.05" y="210.13" width="7.12" height="7.12"/>
      <rect x="101.17" y="210.13" width="7.12" height="7.12"/>
      <rect x="108.29" y="210.13" width="7.12" height="7.12"/>
      <rect x="115.41" y="210.13" width="7.12" height="7.12"/>
      <rect x="129.65" y="210.13" width="7.12" height="7.12"/>
      <rect x="136.77" y="210.13" width="7.12" height="7.12"/>
      <rect x="158.13" y="210.13" width="7.12" height="7.12"/>
      <rect x="165.25" y="210.13" width="7.12" height="7.12"/>
      <rect x="172.38" y="210.13" width="7.12" height="7.12"/>
      <rect x="193.74" y="210.13" width="7.12" height="7.12"/>
      <rect x="200.86" y="210.13" width="7.12" height="7.12"/>
      <rect x="207.98" y="210.13" width="7.12" height="7.12"/>
      <rect x="222.22" y="210.13" width="7.12" height="7.12"/>
      <rect x="94.05" y="217.25" width="7.12" height="7.12"/>
      <rect x="101.17" y="217.25" width="7.12" height="7.12"/>
      <rect x="108.29" y="217.25" width="7.12" height="7.12"/>
      <rect x="115.41" y="217.25" width="7.12" height="7.12"/>
      <rect x="136.77" y="217.25" width="7.12" height="7.12"/>
      <rect x="143.89" y="217.25" width="7.12" height="7.12"/>
      <rect x="151.01" y="217.25" width="7.12" height="7.12"/>
      <rect x="158.13" y="217.25" width="7.12" height="7.12"/>
      <rect x="165.25" y="217.25" width="7.12" height="7.12"/>
      <rect x="172.38" y="217.25" width="7.12" height="7.12"/>
      <rect x="186.62" y="217.25" width="7.12" height="7.12"/>
      <rect x="215.1" y="217.25" width="7.12" height="7.12"/>
      <rect x="79.8" y="224.37" width="7.12" height="7.12"/>
      <rect x="94.05" y="224.37" width="7.12" height="7.12"/>
      <rect x="101.17" y="224.37" width="7.12" height="7.12"/>
      <rect x="108.29" y="224.37" width="7.12" height="7.12"/>
      <rect x="115.41" y="224.37" width="7.12" height="7.12"/>
      <rect x="122.53" y="224.37" width="7.12" height="7.12"/>
      <rect x="129.65" y="224.37" width="7.12" height="7.12"/>
      <rect x="151.01" y="224.37" width="7.12" height="7.12"/>
      <rect x="165.25" y="224.37" width="7.12" height="7.12"/>
      <rect x="186.62" y="224.37" width="7.12" height="7.12"/>
      <rect x="193.74" y="224.37" width="7.12" height="7.12"/>
      <rect x="200.86" y="224.37" width="7.12" height="7.12"/>
      <rect x="215.1" y="224.37" width="7.12" height="7.12"/>
      <g>
        <rect class="cls-1" x="30.31" y="32.46" width="34.89" height="34.89"/>
        <path d="M65.21,24.99H22.84v49.85h49.85V24.99h-7.48Zm0,42.37H30.31V32.46h34.89v34.89Z"/>
      </g>
      <g>
        <rect class="cls-1" x="186.97" y="32.46" width="34.89" height="34.89"/>
        <path d="M221.87,24.99h-42.37v49.85h49.85V24.99h-7.48Zm0,42.37h-34.89V32.46h34.89v34.89Z"/>
      </g>
      <g>
        <rect class="cls-1" x="30.31" y="189.12" width="34.89" height="34.89"/>
        <path d="M65.21,181.65H22.84v49.85h49.85v-49.85h-7.48Zm0,42.37H30.31v-34.89h34.89v34.89Z"/>
      </g>
      <rect x="37.08" y="39.23" width="21.36" height="21.36"/>
      <rect x="193.74" y="39.23" width="21.36" height="21.36"/>
      <rect x="37.08" y="195.89" width="21.36" height="21.36"/>
    </g>
  </g>
  <g>
    <g>
      <path class="cls-3" d="M104.95,303.36c-1.84,0-3.39-.42-4.67-1.25s-2.18-1.98-2.69-3.43l2.7-1.58c.76,2.14,2.34,3.22,4.74,3.22,1.18,0,2.07-.23,2.66-.7,.59-.46,.89-1.07,.89-1.81s-.32-1.38-.95-1.79c-.64-.41-1.76-.86-3.38-1.35-.91-.27-1.64-.53-2.21-.76s-1.16-.57-1.79-1-1.1-.96-1.4-1.59-.46-1.38-.46-2.24c0-1.69,.6-3.03,1.8-4.02s2.64-1.49,4.33-1.49c1.53,0,2.86,.37,4.01,1.12,1.14,.75,2.03,1.77,2.64,3.08l-2.64,1.53c-.8-1.78-2.14-2.67-4.01-2.67-.91,0-1.64,.21-2.18,.64s-.82,1-.82,1.73,.28,1.27,.83,1.68,1.56,.84,3.01,1.29c.73,.24,1.26,.41,1.59,.53,.34,.12,.81,.3,1.42,.56,.61,.25,1.07,.51,1.38,.76,.31,.25,.64,.57,1,.95s.6,.82,.75,1.31c.15,.49,.22,1.04,.22,1.66,0,1.73-.62,3.09-1.87,4.1-1.25,1.01-2.88,1.51-4.89,1.51Z"/>
      <path class="cls-3" d="M121.03,303.36c-2.05,0-3.77-.69-5.14-2.07-1.37-1.38-2.06-3.08-2.06-5.1s.69-3.74,2.06-5.11c1.37-1.37,3.08-2.06,5.14-2.06,1.33,0,2.54,.32,3.63,.95,1.09,.64,1.91,1.49,2.45,2.56l-2.54,1.47c-.31-.65-.78-1.17-1.4-1.54-.63-.37-1.35-.56-2.17-.56-1.2,0-2.2,.41-3.01,1.23-.81,.82-1.21,1.84-1.21,3.05s.4,2.24,1.21,3.05c.81,.82,1.81,1.23,3.01,1.23,.8,0,1.52-.19,2.17-.57,.64-.38,1.13-.89,1.46-1.53l2.54,1.44c-.58,1.09-1.42,1.95-2.51,2.59-1.09,.64-2.3,.95-3.63,.95Z"/>
      <path class="cls-3" d="M139.87,289.37h2.94v13.63h-2.94v-1.96c-1.11,1.54-2.7,2.32-4.77,2.32-1.87,0-3.47-.7-4.8-2.09-1.33-1.39-1.99-3.08-1.99-5.08s.66-3.72,1.99-5.1c1.33-1.38,2.93-2.07,4.8-2.07,2.07,0,3.66,.76,4.77,2.29v-1.94Zm-7.39,9.94c.82,.83,1.84,1.24,3.08,1.24s2.26-.41,3.08-1.24c.82-.83,1.23-1.87,1.23-3.12s-.41-2.29-1.23-3.12c-.82-.83-1.84-1.24-3.08-1.24s-2.26,.41-3.08,1.24c-.82,.83-1.23,1.87-1.23,3.12s.41,2.29,1.23,3.12Z"/>
      <path class="cls-3" d="M153.42,289.02c1.56,0,2.83,.5,3.79,1.5,.96,1,1.44,2.37,1.44,4.12v8.37h-2.94v-8.07c0-1.02-.27-1.8-.82-2.34-.54-.54-1.29-.82-2.24-.82-1.04,0-1.87,.32-2.51,.97-.64,.65-.95,1.63-.95,2.96v7.31h-2.94v-13.63h2.94v1.74c.89-1.4,2.3-2.1,4.23-2.1Z"/>
      <path class="cls-3" d="M187.09,283.92v19.08h-3.13v-13.6l-5.81,9.6h-.38l-5.81-9.62v13.63h-3.13v-19.08h3.38l5.75,9.54,5.78-9.54h3.35Z"/>
      <path class="cls-3" d="M193.03,297.44c.22,1.04,.72,1.83,1.5,2.38,.78,.55,1.73,.83,2.86,.83,1.56,0,2.73-.56,3.52-1.69l2.43,1.42c-1.35,1.98-3.33,2.97-5.97,2.97-2.22,0-4.01-.68-5.37-2.03-1.36-1.35-2.04-3.07-2.04-5.14s.67-3.74,2.02-5.11c1.34-1.37,3.07-2.06,5.18-2.06,2,0,3.64,.7,4.92,2.1,1.28,1.4,1.92,3.1,1.92,5.1,0,.31-.04,.72-.11,1.23h-10.85Zm-.03-2.4h8.01c-.2-1.11-.66-1.94-1.38-2.51s-1.56-.84-2.52-.84c-1.09,0-2,.3-2.73,.9-.73,.6-1.19,1.42-1.39,2.45Z"/>
    </g>
    <g>
      <path class="cls-2" d="M52.9,287.2v-7.88c0-.62,.51-1.13,1.13-1.13h7.82"/>
      <path class="cls-2" d="M85.75,287.2v-7.88c0-.62-.51-1.13-1.13-1.13h-7.82"/>
      <path class="cls-2" d="M52.9,301.83v7.88c0,.62,.51,1.13,1.13,1.13h7.82"/>
      <path class="cls-2" d="M85.75,301.83v7.88c0,.62-.51,1.13-1.13,1.13h-7.82"/>
    </g>
  </g>
  <line class="cls-2" y1="258.34" x2="257.76" y2="258.34"/>
</svg>